G04 #@! TF.GenerationSoftware,KiCad,Pcbnew,(2016-12-02 revision 54c5f6b)-makepkg*
G04 #@! TF.CreationDate,2016-12-15T21:43:30-06:00*
G04 #@! TF.ProjectId,Star,537461722E6B696361645F7063620000,rev?*
G04 #@! TF.FileFunction,Legend,Top*
G04 #@! TF.FilePolarity,Positive*
%FSLAX46Y46*%
G04 Gerber Fmt 4.6, Leading zero omitted, Abs format (unit mm)*
G04 Created by KiCad (PCBNEW (2016-12-02 revision 54c5f6b)-makepkg) date 12/15/16 21:43:30*
%MOMM*%
%LPD*%
G01*
G04 APERTURE LIST*
%ADD10C,0.100000*%
%ADD11C,0.762000*%
%ADD12C,0.203200*%
%ADD13C,0.150000*%
G04 APERTURE END LIST*
D10*
D11*
X110110587Y-108820857D02*
X109838444Y-110998000D01*
X109638873Y-111433428D01*
X109312301Y-111723714D01*
X108858730Y-111868857D01*
X108568444Y-111868857D01*
X111616444Y-111868857D02*
X111344301Y-111723714D01*
X111217301Y-111578571D01*
X111108444Y-111288285D01*
X111217301Y-110417428D01*
X111398730Y-110127142D01*
X111562016Y-109982000D01*
X111870444Y-109836857D01*
X112305873Y-109836857D01*
X112578016Y-109982000D01*
X112705016Y-110127142D01*
X112813873Y-110417428D01*
X112705016Y-111288285D01*
X112523587Y-111578571D01*
X112360301Y-111723714D01*
X112051873Y-111868857D01*
X111616444Y-111868857D01*
X113938730Y-111868857D02*
X114319730Y-108820857D01*
X115245016Y-111868857D02*
X115444587Y-110272285D01*
X115335730Y-109982000D01*
X115063587Y-109836857D01*
X114628158Y-109836857D01*
X114319730Y-109982000D01*
X114156444Y-110127142D01*
X116950444Y-109836857D02*
X116696444Y-111868857D01*
X116914158Y-110127142D02*
X117077444Y-109982000D01*
X117385873Y-109836857D01*
X117821301Y-109836857D01*
X118093444Y-109982000D01*
X118202301Y-110272285D01*
X118002730Y-111868857D01*
X135220301Y-109111142D02*
X135383587Y-108966000D01*
X135692016Y-108820857D01*
X136417730Y-108820857D01*
X136689873Y-108966000D01*
X136816873Y-109111142D01*
X136925730Y-109401428D01*
X136889444Y-109691714D01*
X136689873Y-110127142D01*
X134730444Y-111868857D01*
X136617301Y-111868857D01*
X138885158Y-108820857D02*
X139175444Y-108820857D01*
X139447587Y-108966000D01*
X139574587Y-109111142D01*
X139683444Y-109401428D01*
X139756016Y-109982000D01*
X139665301Y-110707714D01*
X139447587Y-111288285D01*
X139266158Y-111578571D01*
X139102873Y-111723714D01*
X138794444Y-111868857D01*
X138504158Y-111868857D01*
X138232016Y-111723714D01*
X138105016Y-111578571D01*
X137996158Y-111288285D01*
X137923587Y-110707714D01*
X138014301Y-109982000D01*
X138232016Y-109401428D01*
X138413444Y-109111142D01*
X138576730Y-108966000D01*
X138885158Y-108820857D01*
X142423016Y-111868857D02*
X140681301Y-111868857D01*
X141552158Y-111868857D02*
X141933158Y-108820857D01*
X141588444Y-109256285D01*
X141261873Y-109546571D01*
X140953444Y-109691714D01*
X145416587Y-108820857D02*
X144836016Y-108820857D01*
X144527587Y-108966000D01*
X144364301Y-109111142D01*
X144019587Y-109546571D01*
X143801873Y-110127142D01*
X143656730Y-111288285D01*
X143765587Y-111578571D01*
X143892587Y-111723714D01*
X144164730Y-111868857D01*
X144745301Y-111868857D01*
X145053730Y-111723714D01*
X145217016Y-111578571D01*
X145398444Y-111288285D01*
X145489158Y-110562571D01*
X145380301Y-110272285D01*
X145253301Y-110127142D01*
X144981158Y-109982000D01*
X144400587Y-109982000D01*
X144092158Y-110127142D01*
X143928873Y-110272285D01*
X143747444Y-110562571D01*
X104191480Y-84727142D02*
X105143980Y-77107142D01*
X105733623Y-82550000D01*
X107683980Y-77107142D01*
X106731480Y-84727142D01*
X110042551Y-84364285D02*
X109634337Y-84727142D01*
X108908623Y-84727142D01*
X108591123Y-84364285D01*
X108500408Y-83638571D01*
X108863266Y-80735714D01*
X109135408Y-80010000D01*
X109543623Y-79647142D01*
X110269337Y-79647142D01*
X110586837Y-80010000D01*
X110677551Y-80735714D01*
X110586837Y-81461428D01*
X108681837Y-82187142D01*
X111811480Y-84727142D02*
X112446480Y-79647142D01*
X112265051Y-81098571D02*
X112537194Y-80372857D01*
X112763980Y-80010000D01*
X113172194Y-79647142D01*
X113535051Y-79647142D01*
X114170051Y-84727142D02*
X114805051Y-79647142D01*
X114623623Y-81098571D02*
X114895766Y-80372857D01*
X115122551Y-80010000D01*
X115530766Y-79647142D01*
X115893623Y-79647142D01*
X116800766Y-79647142D02*
X117072908Y-84727142D01*
X118615051Y-79647142D02*
X117072908Y-84727142D01*
X116483266Y-86541428D01*
X116256480Y-86904285D01*
X115848266Y-87267142D01*
X124602194Y-84001428D02*
X124375408Y-84364285D01*
X123785766Y-84727142D01*
X123422908Y-84727142D01*
X122923980Y-84364285D01*
X122651837Y-83638571D01*
X122561123Y-82912857D01*
X122561123Y-81461428D01*
X122697194Y-80372857D01*
X123060051Y-78921428D01*
X123332194Y-78195714D01*
X123785766Y-77470000D01*
X124375408Y-77107142D01*
X124738266Y-77107142D01*
X125237194Y-77470000D01*
X125373266Y-77832857D01*
X126144337Y-84727142D02*
X127096837Y-77107142D01*
X127777194Y-84727142D02*
X128276123Y-80735714D01*
X128185408Y-80010000D01*
X127867908Y-79647142D01*
X127323623Y-79647142D01*
X126915408Y-80010000D01*
X126688623Y-80372857D01*
X129591480Y-84727142D02*
X130226480Y-79647142D01*
X130045051Y-81098571D02*
X130317194Y-80372857D01*
X130543980Y-80010000D01*
X130952194Y-79647142D01*
X131315051Y-79647142D01*
X131950051Y-84727142D02*
X132585051Y-79647142D01*
X132902551Y-77107142D02*
X132675766Y-77470000D01*
X132811837Y-77832857D01*
X133038623Y-77470000D01*
X132902551Y-77107142D01*
X132811837Y-77832857D01*
X133628266Y-84364285D02*
X133945766Y-84727142D01*
X134671480Y-84727142D01*
X135079694Y-84364285D01*
X135351837Y-83638571D01*
X135397194Y-83275714D01*
X135306480Y-82550000D01*
X134988980Y-82187142D01*
X134444694Y-82187142D01*
X134127194Y-81824285D01*
X134036480Y-81098571D01*
X134081837Y-80735714D01*
X134353980Y-80010000D01*
X134762194Y-79647142D01*
X135306480Y-79647142D01*
X135623980Y-80010000D01*
X136939337Y-79647142D02*
X138390766Y-79647142D01*
X137801123Y-77107142D02*
X136984694Y-83638571D01*
X137075408Y-84364285D01*
X137392908Y-84727142D01*
X137755766Y-84727142D01*
X139025766Y-84727142D02*
X139660766Y-79647142D01*
X139570051Y-80372857D02*
X139796837Y-80010000D01*
X140205051Y-79647142D01*
X140749337Y-79647142D01*
X141066837Y-80010000D01*
X141157551Y-80735714D01*
X140658623Y-84727142D01*
X141157551Y-80735714D02*
X141429694Y-80010000D01*
X141837908Y-79647142D01*
X142382194Y-79647142D01*
X142699694Y-80010000D01*
X142790408Y-80735714D01*
X142291480Y-84727142D01*
X145738623Y-84727142D02*
X146237551Y-80735714D01*
X146146837Y-80010000D01*
X145829337Y-79647142D01*
X145103623Y-79647142D01*
X144695408Y-80010000D01*
X145783980Y-84364285D02*
X145375766Y-84727142D01*
X144468623Y-84727142D01*
X144151123Y-84364285D01*
X144060408Y-83638571D01*
X144151123Y-82912857D01*
X144423266Y-82187142D01*
X144831480Y-81824285D01*
X145738623Y-81824285D01*
X146146837Y-81461428D01*
X147416837Y-84364285D02*
X147734337Y-84727142D01*
X148460051Y-84727142D01*
X148868266Y-84364285D01*
X149140408Y-83638571D01*
X149185766Y-83275714D01*
X149095051Y-82550000D01*
X148777551Y-82187142D01*
X148233266Y-82187142D01*
X147915766Y-81824285D01*
X147825051Y-81098571D01*
X147870408Y-80735714D01*
X148142551Y-80010000D01*
X148550766Y-79647142D01*
X149095051Y-79647142D01*
X149412551Y-80010000D01*
D12*
X94103621Y-115883763D02*
X93993636Y-115947263D01*
X94230621Y-116103734D02*
X94103621Y-115883763D01*
X93773665Y-116074263D02*
X94230621Y-116103734D01*
X94086606Y-115600293D02*
X93773665Y-116074263D01*
X94404106Y-116150219D02*
X94086606Y-115600293D01*
X94755636Y-117267086D02*
X94802121Y-117093601D01*
X95039106Y-117250071D02*
X94755636Y-117267086D01*
X94848606Y-116920115D02*
X95039106Y-117250071D01*
X94535665Y-117394086D02*
X94848606Y-116920115D01*
X95102606Y-117360056D02*
X94535665Y-117394086D01*
X95158342Y-114138594D02*
X91694241Y-116138594D01*
X96908342Y-117169683D02*
X93444241Y-119169683D01*
X93743279Y-116687632D02*
X93243279Y-115821607D01*
X93493279Y-116254620D02*
X94609304Y-116187632D01*
X94109304Y-115321607D02*
X93493279Y-116254620D01*
X94609304Y-116187632D02*
X94109304Y-115321607D01*
X94493279Y-117986670D02*
X93993279Y-117120645D01*
X94243279Y-117553658D02*
X95359304Y-117486670D01*
X94859304Y-116620645D02*
X94243279Y-117553658D01*
X95359304Y-117486670D02*
X94859304Y-116620645D01*
X127876300Y-136639300D02*
X127876300Y-136512300D01*
X127622300Y-136639300D02*
X127876300Y-136639300D01*
X127876300Y-136258300D02*
X127622300Y-136639300D01*
X128130300Y-136766300D02*
X127876300Y-136258300D01*
X127495300Y-136766300D02*
X128130300Y-136766300D01*
X126352300Y-136512300D02*
X126479300Y-136639300D01*
X126225300Y-136766300D02*
X126352300Y-136512300D01*
X126606300Y-136766300D02*
X126225300Y-136766300D01*
X126352300Y-136258300D02*
X126606300Y-136766300D01*
X126098300Y-136766300D02*
X126352300Y-136258300D01*
X128860300Y-138425300D02*
X128860300Y-134425300D01*
X125360300Y-138425300D02*
X125360300Y-134425300D01*
X127360300Y-135925300D02*
X128360300Y-135925300D01*
X127860300Y-135925300D02*
X127360300Y-136925300D01*
X128360300Y-136925300D02*
X127860300Y-135925300D01*
X127360300Y-136925300D02*
X128360300Y-136925300D01*
X125860300Y-135925300D02*
X126860300Y-135925300D01*
X126360300Y-135925300D02*
X125860300Y-136925300D01*
X126860300Y-136925300D02*
X126360300Y-135925300D01*
X125860300Y-136925300D02*
X126860300Y-136925300D01*
X159793096Y-115428067D02*
X159293096Y-116294092D01*
X159293096Y-116294092D02*
X160409121Y-116361079D01*
X160409121Y-116361079D02*
X159793096Y-115428067D01*
X160659121Y-115928067D02*
X160159121Y-116794092D01*
X159043096Y-116727105D02*
X158543096Y-117593130D01*
X158543096Y-117593130D02*
X159659121Y-117660117D01*
X159659121Y-117660117D02*
X159043096Y-116727105D01*
X159909121Y-117227105D02*
X159409121Y-118093130D01*
X158744058Y-114245054D02*
X162208159Y-116245054D01*
X156994058Y-117276143D02*
X160458159Y-119276143D01*
X159811794Y-115713681D02*
X160124735Y-116187651D01*
X160124735Y-116187651D02*
X159557794Y-116153622D01*
X159557794Y-116153622D02*
X159748294Y-115823666D01*
X159748294Y-115823666D02*
X159904764Y-116060651D01*
X159904764Y-116060651D02*
X159731279Y-116107136D01*
X159113294Y-116923518D02*
X158795794Y-117473444D01*
X158795794Y-117473444D02*
X159362735Y-117507474D01*
X159362735Y-117507474D02*
X159159779Y-117097003D01*
X159159779Y-117097003D02*
X159032779Y-117316974D01*
X159032779Y-117316974D02*
X159142764Y-117380474D01*
X158755288Y-78118730D02*
X159255288Y-78984755D01*
X159255288Y-78984755D02*
X159871313Y-78051742D01*
X159871313Y-78051742D02*
X158755288Y-78118730D01*
X159621313Y-77618730D02*
X160121313Y-78484755D01*
X159505288Y-79417768D02*
X160005288Y-80283793D01*
X160005288Y-80283793D02*
X160621313Y-79350780D01*
X160621313Y-79350780D02*
X159505288Y-79417768D01*
X160371313Y-78917768D02*
X160871313Y-79783793D01*
X157206250Y-78435717D02*
X160670351Y-76435717D01*
X158956250Y-81466806D02*
X162420351Y-79466806D01*
X159011986Y-78245344D02*
X159578927Y-78211314D01*
X159578927Y-78211314D02*
X159265986Y-78685285D01*
X159265986Y-78685285D02*
X159075486Y-78355329D01*
X159075486Y-78355329D02*
X159358956Y-78338314D01*
X159358956Y-78338314D02*
X159312471Y-78511799D01*
X159710486Y-79455181D02*
X160027986Y-80005107D01*
X160027986Y-80005107D02*
X160340927Y-79531137D01*
X160340927Y-79531137D02*
X159883971Y-79501666D01*
X159883971Y-79501666D02*
X160010971Y-79721637D01*
X160010971Y-79721637D02*
X160120956Y-79658137D01*
X126187200Y-58991500D02*
X126187200Y-59118500D01*
X126441200Y-58991500D02*
X126187200Y-58991500D01*
X126187200Y-59372500D02*
X126441200Y-58991500D01*
X125933200Y-58864500D02*
X126187200Y-59372500D01*
X126568200Y-58864500D02*
X125933200Y-58864500D01*
X127711200Y-59118500D02*
X127584200Y-58991500D01*
X127838200Y-58864500D02*
X127711200Y-59118500D01*
X127457200Y-58864500D02*
X127838200Y-58864500D01*
X127711200Y-59372500D02*
X127457200Y-58864500D01*
X127965200Y-58864500D02*
X127711200Y-59372500D01*
X125203200Y-57205500D02*
X125203200Y-61205500D01*
X128703200Y-57205500D02*
X128703200Y-61205500D01*
X126703200Y-59705500D02*
X125703200Y-59705500D01*
X126203200Y-59705500D02*
X126703200Y-58705500D01*
X125703200Y-58705500D02*
X126203200Y-59705500D01*
X126703200Y-58705500D02*
X125703200Y-58705500D01*
X128203200Y-59705500D02*
X127203200Y-59705500D01*
X127703200Y-59705500D02*
X128203200Y-58705500D01*
X127203200Y-58705500D02*
X127703200Y-59705500D01*
X128203200Y-58705500D02*
X127203200Y-58705500D01*
X94257704Y-80304333D02*
X94757704Y-79438308D01*
X94757704Y-79438308D02*
X93641679Y-79371321D01*
X93641679Y-79371321D02*
X94257704Y-80304333D01*
X93391679Y-79804333D02*
X93891679Y-78938308D01*
X95007704Y-79005295D02*
X95507704Y-78139270D01*
X95507704Y-78139270D02*
X94391679Y-78072283D01*
X94391679Y-78072283D02*
X95007704Y-79005295D01*
X94141679Y-78505295D02*
X94641679Y-77639270D01*
X95306742Y-81487346D02*
X91842641Y-79487346D01*
X97056742Y-78456257D02*
X93592641Y-76456257D01*
X94239006Y-80018719D02*
X93926065Y-79544749D01*
X93926065Y-79544749D02*
X94493006Y-79578778D01*
X94493006Y-79578778D02*
X94302506Y-79908734D01*
X94302506Y-79908734D02*
X94146036Y-79671749D01*
X94146036Y-79671749D02*
X94319521Y-79625264D01*
X94937506Y-78808882D02*
X95255006Y-78258956D01*
X95255006Y-78258956D02*
X94688065Y-78224926D01*
X94688065Y-78224926D02*
X94891021Y-78635397D01*
X94891021Y-78635397D02*
X95018021Y-78415426D01*
X95018021Y-78415426D02*
X94908036Y-78351926D01*
X136000000Y-97790000D02*
G75*
G03X136000000Y-97790000I-9000000J0D01*
G01*
X133600000Y-97790000D02*
G75*
G03X133600000Y-97790000I-6600000J0D01*
G01*
D13*
X128000000Y-116840000D02*
G75*
G03X128000000Y-116840000I-1000000J0D01*
G01*
X128250000Y-119590000D02*
X125750000Y-119590000D01*
X129750000Y-117840000D02*
X129750000Y-115840000D01*
X128250000Y-114090000D02*
X125750000Y-114090000D01*
X124250000Y-117840000D02*
X124250000Y-115840000D01*
X129000000Y-115840000D02*
X129000000Y-117840000D01*
X128000000Y-114840000D02*
X129000000Y-115840000D01*
X126000000Y-114840000D02*
X128000000Y-114840000D01*
X125000000Y-115840000D02*
X126000000Y-114840000D01*
X125000000Y-117840000D02*
X125000000Y-115840000D01*
X126000000Y-118840000D02*
X125000000Y-117840000D01*
X128000000Y-118840000D02*
X126000000Y-118840000D01*
X129000000Y-117840000D02*
X128000000Y-118840000D01*
X128700000Y-119140000D02*
X128250000Y-119590000D01*
X125300000Y-119140000D02*
X125750000Y-119590000D01*
X125300000Y-114540000D02*
X125750000Y-114090000D01*
X128700000Y-114540000D02*
X128250000Y-114090000D01*
X125738095Y-98194761D02*
X125880952Y-98242380D01*
X126119047Y-98242380D01*
X126214285Y-98194761D01*
X126261904Y-98147142D01*
X126309523Y-98051904D01*
X126309523Y-97956666D01*
X126261904Y-97861428D01*
X126214285Y-97813809D01*
X126119047Y-97766190D01*
X125928571Y-97718571D01*
X125833333Y-97670952D01*
X125785714Y-97623333D01*
X125738095Y-97528095D01*
X125738095Y-97432857D01*
X125785714Y-97337619D01*
X125833333Y-97290000D01*
X125928571Y-97242380D01*
X126166666Y-97242380D01*
X126309523Y-97290000D01*
X126738095Y-98242380D02*
X126738095Y-97242380D01*
X127119047Y-97242380D01*
X127214285Y-97290000D01*
X127261904Y-97337619D01*
X127309523Y-97432857D01*
X127309523Y-97575714D01*
X127261904Y-97670952D01*
X127214285Y-97718571D01*
X127119047Y-97766190D01*
X126738095Y-97766190D01*
X128261904Y-98242380D02*
X127690476Y-98242380D01*
X127976190Y-98242380D02*
X127976190Y-97242380D01*
X127880952Y-97385238D01*
X127785714Y-97480476D01*
X127690476Y-97528095D01*
X119071428Y-98170952D02*
X119071428Y-97409047D01*
X119452380Y-97790000D02*
X118690476Y-97790000D01*
X125666666Y-117244761D02*
X125809523Y-117292380D01*
X126047619Y-117292380D01*
X126142857Y-117244761D01*
X126190476Y-117197142D01*
X126238095Y-117101904D01*
X126238095Y-117006666D01*
X126190476Y-116911428D01*
X126142857Y-116863809D01*
X126047619Y-116816190D01*
X125857142Y-116768571D01*
X125761904Y-116720952D01*
X125714285Y-116673333D01*
X125666666Y-116578095D01*
X125666666Y-116482857D01*
X125714285Y-116387619D01*
X125761904Y-116340000D01*
X125857142Y-116292380D01*
X126095238Y-116292380D01*
X126238095Y-116340000D01*
X126571428Y-116292380D02*
X126809523Y-117292380D01*
X127000000Y-116578095D01*
X127190476Y-117292380D01*
X127428571Y-116292380D01*
X127761904Y-116387619D02*
X127809523Y-116340000D01*
X127904761Y-116292380D01*
X128142857Y-116292380D01*
X128238095Y-116340000D01*
X128285714Y-116387619D01*
X128333333Y-116482857D01*
X128333333Y-116578095D01*
X128285714Y-116720952D01*
X127714285Y-117292380D01*
X128333333Y-117292380D01*
M02*
