G04 #@! TF.FileFunction,Copper,L1,Top,Signal*
%FSLAX46Y46*%
G04 Gerber Fmt 4.6, Leading zero omitted, Abs format (unit mm)*
G04 Created by KiCad (PCBNEW (2016-11-12 revision b9c62b6)-makepkg) date 12/04/16 22:26:22*
%MOMM*%
%LPD*%
G01*
G04 APERTURE LIST*
%ADD10C,0.100000*%
%ADD11C,4.500000*%
%ADD12R,0.850000X0.300000*%
%ADD13R,0.300000X0.850000*%
%ADD14R,1.837500X1.837500*%
G04 APERTURE END LIST*
D10*
D11*
X127000000Y-57150000D03*
D12*
X132291250Y-77881250D03*
X132291250Y-78381250D03*
X132291250Y-78881250D03*
X132291250Y-79381250D03*
X132291250Y-79881250D03*
X132291250Y-80381250D03*
X132291250Y-80881250D03*
X132291250Y-81381250D03*
X132291250Y-81881250D03*
X132291250Y-82381250D03*
X132291250Y-82881250D03*
X132291250Y-83381250D03*
X132291250Y-83881250D03*
X132291250Y-84381250D03*
X132291250Y-84881250D03*
X132291250Y-85381250D03*
D13*
X132991250Y-86081250D03*
X133491250Y-86081250D03*
X133991250Y-86081250D03*
X134491250Y-86081250D03*
X134991250Y-86081250D03*
X135491250Y-86081250D03*
X135991250Y-86081250D03*
X136491250Y-86081250D03*
X136991250Y-86081250D03*
X137491250Y-86081250D03*
X137991250Y-86081250D03*
X138491250Y-86081250D03*
X138991250Y-86081250D03*
X139491250Y-86081250D03*
X139991250Y-86081250D03*
X140491250Y-86081250D03*
D12*
X141191250Y-85381250D03*
X141191250Y-84881250D03*
X141191250Y-84381250D03*
X141191250Y-83881250D03*
X141191250Y-83381250D03*
X141191250Y-82881250D03*
X141191250Y-82381250D03*
X141191250Y-81881250D03*
X141191250Y-81381250D03*
X141191250Y-80881250D03*
X141191250Y-80381250D03*
X141191250Y-79881250D03*
X141191250Y-79381250D03*
X141191250Y-78881250D03*
X141191250Y-78381250D03*
X141191250Y-77881250D03*
D13*
X140491250Y-77181250D03*
X139991250Y-77181250D03*
X139491250Y-77181250D03*
X138991250Y-77181250D03*
X138491250Y-77181250D03*
X137991250Y-77181250D03*
X137491250Y-77181250D03*
X136991250Y-77181250D03*
X136491250Y-77181250D03*
X135991250Y-77181250D03*
X135491250Y-77181250D03*
X134991250Y-77181250D03*
X134491250Y-77181250D03*
X133991250Y-77181250D03*
X133491250Y-77181250D03*
X132991250Y-77181250D03*
D14*
X139497500Y-84387500D03*
X139497500Y-82550000D03*
X139497500Y-80712500D03*
X139497500Y-78875000D03*
X137660000Y-84387500D03*
X137660000Y-82550000D03*
X137660000Y-80712500D03*
X137660000Y-78875000D03*
X135822500Y-84387500D03*
X135822500Y-82550000D03*
X135822500Y-80712500D03*
X135822500Y-78875000D03*
X133985000Y-84387500D03*
X133985000Y-82550000D03*
X133985000Y-80712500D03*
X133985000Y-78875000D03*
M02*
