G04 #@! TF.GenerationSoftware,KiCad,Pcbnew,(2016-12-02 revision 54c5f6b)-makepkg*
G04 #@! TF.CreationDate,2016-12-08T23:13:55-06:00*
G04 #@! TF.ProjectId,Star,537461722E6B696361645F7063620000,rev?*
G04 #@! TF.FileFunction,Soldermask,Top*
G04 #@! TF.FilePolarity,Negative*
%FSLAX46Y46*%
G04 Gerber Fmt 4.6, Leading zero omitted, Abs format (unit mm)*
G04 Created by KiCad (PCBNEW (2016-12-02 revision 54c5f6b)-makepkg) date 12/08/16 23:13:55*
%MOMM*%
%LPD*%
G01*
G04 APERTURE LIST*
%ADD10C,0.100000*%
%ADD11C,2.352400*%
%ADD12C,2.133600*%
%ADD13R,1.202400X1.202400*%
%ADD14C,1.202400*%
%ADD15R,2.184400X1.879600*%
%ADD16O,2.184400X1.879600*%
%ADD17O,1.879600X1.879600*%
%ADD18R,1.879600X1.879600*%
%ADD19C,1.143000*%
%ADD20R,1.143000X1.651000*%
%ADD21R,5.232400X3.962400*%
%ADD22R,1.852400X1.152400*%
G04 APERTURE END LIST*
D10*
D11*
X127000000Y-54673500D03*
D12*
X117170200Y-73660000D03*
D13*
X150876000Y-84455000D03*
D14*
X150876000Y-83185000D03*
X150876000Y-81915000D03*
X150876000Y-80645000D03*
X150876000Y-79375000D03*
X152146000Y-83185000D03*
X152146000Y-81915000D03*
X152146000Y-80645000D03*
X152146000Y-79375000D03*
X152146000Y-84455000D03*
D15*
X153543000Y-89789000D03*
D16*
X153543000Y-92329000D03*
X153543000Y-94869000D03*
X153543000Y-97409000D03*
D17*
X148590000Y-110490000D03*
X151130000Y-110490000D03*
X148590000Y-107950000D03*
X151130000Y-107950000D03*
X148590000Y-105410000D03*
X151130000Y-105410000D03*
X148590000Y-102870000D03*
D18*
X151130000Y-102870000D03*
D19*
X95491592Y-115214400D03*
D10*
G36*
X95920746Y-114306716D02*
X96492246Y-115296584D01*
X95062438Y-116122084D01*
X94490938Y-115132216D01*
X95920746Y-114306716D01*
X95920746Y-114306716D01*
G37*
D19*
X92456000Y-116967000D03*
D10*
G36*
X92885154Y-116059316D02*
X93456654Y-117049184D01*
X92026846Y-117874684D01*
X91455346Y-116884816D01*
X92885154Y-116059316D01*
X92885154Y-116059316D01*
G37*
D19*
X96190092Y-116424237D03*
D10*
G36*
X96619246Y-115516553D02*
X97190746Y-116506421D01*
X95760938Y-117331921D01*
X95189438Y-116342053D01*
X96619246Y-115516553D01*
X96619246Y-115516553D01*
G37*
D19*
X93154500Y-118176837D03*
D10*
G36*
X93583654Y-117269153D02*
X94155154Y-118259021D01*
X92725346Y-119084521D01*
X92153846Y-118094653D01*
X93583654Y-117269153D01*
X93583654Y-117269153D01*
G37*
D20*
X127762000Y-138176000D03*
X127762000Y-134670800D03*
X126365000Y-138176000D03*
X126365000Y-134670800D03*
D19*
X161493200Y-116992400D03*
D10*
G36*
X160492546Y-117074584D02*
X161064046Y-116084716D01*
X162493854Y-116910216D01*
X161922354Y-117900084D01*
X160492546Y-117074584D01*
X160492546Y-117074584D01*
G37*
D19*
X158457608Y-115239800D03*
D10*
G36*
X157456954Y-115321984D02*
X158028454Y-114332116D01*
X159458262Y-115157616D01*
X158886762Y-116147484D01*
X157456954Y-115321984D01*
X157456954Y-115321984D01*
G37*
D19*
X160794700Y-118202237D03*
D10*
G36*
X159794046Y-118284421D02*
X160365546Y-117294553D01*
X161795354Y-118120053D01*
X161223854Y-119109921D01*
X159794046Y-118284421D01*
X159794046Y-118284421D01*
G37*
D19*
X157759108Y-116449637D03*
D10*
G36*
X156758454Y-116531821D02*
X157329954Y-115541953D01*
X158759762Y-116367453D01*
X158188262Y-117357321D01*
X156758454Y-116531821D01*
X156758454Y-116531821D01*
G37*
D19*
X160960092Y-77428563D03*
D10*
G36*
X160530938Y-78336247D02*
X159959438Y-77346379D01*
X161389246Y-76520879D01*
X161960746Y-77510747D01*
X160530938Y-78336247D01*
X160530938Y-78336247D01*
G37*
D19*
X157924500Y-79181163D03*
D10*
G36*
X157495346Y-80088847D02*
X156923846Y-79098979D01*
X158353654Y-78273479D01*
X158925154Y-79263347D01*
X157495346Y-80088847D01*
X157495346Y-80088847D01*
G37*
D19*
X161658592Y-78638400D03*
D10*
G36*
X161229438Y-79546084D02*
X160657938Y-78556216D01*
X162087746Y-77730716D01*
X162659246Y-78720584D01*
X161229438Y-79546084D01*
X161229438Y-79546084D01*
G37*
D19*
X158623000Y-80391000D03*
D10*
G36*
X158193846Y-81298684D02*
X157622346Y-80308816D01*
X159052154Y-79483316D01*
X159623654Y-80473184D01*
X158193846Y-81298684D01*
X158193846Y-81298684D01*
G37*
D20*
X126301500Y-57454800D03*
X126301500Y-60960000D03*
X127698500Y-57454800D03*
X127698500Y-60960000D03*
D19*
X92557600Y-78740000D03*
D10*
G36*
X93558254Y-78657816D02*
X92986754Y-79647684D01*
X91556946Y-78822184D01*
X92128446Y-77832316D01*
X93558254Y-78657816D01*
X93558254Y-78657816D01*
G37*
D19*
X95593192Y-80492600D03*
D10*
G36*
X96593846Y-80410416D02*
X96022346Y-81400284D01*
X94592538Y-80574784D01*
X95164038Y-79584916D01*
X96593846Y-80410416D01*
X96593846Y-80410416D01*
G37*
D19*
X93256100Y-77530163D03*
D10*
G36*
X94256754Y-77447979D02*
X93685254Y-78437847D01*
X92255446Y-77612347D01*
X92826946Y-76622479D01*
X94256754Y-77447979D01*
X94256754Y-77447979D01*
G37*
D19*
X96291692Y-79282763D03*
D10*
G36*
X97292346Y-79200579D02*
X96720846Y-80190447D01*
X95291038Y-79364947D01*
X95862538Y-78375079D01*
X97292346Y-79200579D01*
X97292346Y-79200579D01*
G37*
D21*
X114000000Y-97790000D03*
X140000000Y-97790000D03*
D22*
X123850000Y-114940000D03*
X130150000Y-114940000D03*
X123850000Y-118740000D03*
X130150000Y-118740000D03*
M02*
