M48
;DRILL file {KiCad (2016-12-02 revision 54c5f6b)-makepkg} date 12/08/16 22:01:34
;FORMAT={2:4/ absolute / inch / suppress trailing zeros}
FMAT,2
INCH,LZ
T1C0.013
T2C0.016
T3C0.023
T4C0.026
T5C0.040
%
G90
G05
M72
T1
X03419Y-04556
X03432Y-045295
X03451Y-045027
X034735Y-044897
X03525Y-047525
X035425Y-04585
X03575Y-034325
X035875Y-0437
X03621Y-04191
X036539Y-041831
X036778Y-041727
X03707Y-04172
X0371Y-043925
X037175Y-046925
X03735Y-04275
X0378Y-0415
X03817Y-03643
X038175Y-04425
X038198Y-044961
X038275Y-045541
X038275Y-04605
X0383Y-03171
X03841Y-03659
X03841Y-04278
X038525Y-044445
X038525Y-044825
X03855Y-045825
X038559Y-045434
X038725Y-04825
X038765Y-033099
X039025Y-0331
X039025Y-05005
X03921Y-03207
X0394Y-0287
X0395Y-0469
X039525Y-048475
X039527Y-047325
X03953Y-03639
X039625Y-04665
X03966Y-03616
X03973Y-04126
X03975Y-04189
X039925Y-049265
X040025Y-0467
X0401Y-04095
X0402Y-046925
X040275Y-048175
X040325Y-0494
X040546Y-047729
X040632Y-047013
X04076Y-037495
X0409Y-039925
X04131Y-03617
X04131Y-03643
X041549Y-046721
X04204Y-03616
X04204Y-03644
X042122Y-042462
X042225Y-04665
X042503Y-04656
X042875Y-044075
X042899Y-044687
X0429Y-0397
X042925Y-04365
X042925Y-045067
X042925Y-045447
X042925Y-045827
X043035Y-042717
X04315Y-029775
X043155Y-046093
X043195Y-04528
X0432Y-0373
X043202Y-0449
X043294Y-04566
X043313Y-04644
X043325Y-0402
X043675Y-045022
X04381Y-042301
X044Y-043329
X044064Y-043581
X044169Y-04644
X04426Y-03555
X0443Y-04875
X0445Y-0443
X0445Y-045022
X04455Y-0471
X044584Y-047446
X044616Y-042661
X04466Y-03543
X04477Y-04078
X044825Y-045325
X0449Y-0439
X04495Y-044925
X045063Y-044327
X045272Y-046803
X045297Y-044445
X045595Y-046815
X045758Y-046612
X04582Y-04395
X04583Y-03538
X04585Y-0436
X04585Y-0448
X045875Y-039675
X04589Y-03564
X045965Y-046444
X046163Y-046276
X0462Y-0537
X046275Y-0236
X046397Y-046086
X0465Y-05
X0467Y-05195
X046813Y-046019
X04698Y-04358
X04698Y-04395
X047006Y-041348
X04701Y-04056
X04702Y-04206
X04707Y-0416
X047075Y-0387
X047075Y-03965
X0471Y-04505
X0472Y-037575
X0472Y-04795
X04725Y-0362
X04745Y-043
X047575Y-04575
X04763Y-04232
X04775Y-044425
X04775Y-053409
X0479Y-045825
X0481Y-040775
X04818Y-04355
X04825Y-045225
X048475Y-05165
X04848Y-04381
X04858Y-03736
X04862Y-03972
X0487Y-04311
X048734Y-051624
X04896Y-04332
X048991Y-051663
X049175Y-041775
X04925Y-051646
X049295Y-031451
X0493Y-02635
X0493Y-02895
X04955Y-0314
X0496Y-02635
X0496Y-02845
X04962Y-03978
X04973Y-04009
X04975Y-02555
X0499Y-044525
X050029Y-046802
X05005Y-02555
X0501Y-0323
X0501Y-0346
X0502Y-0369
X05035Y-048425
X05065Y-042925
X050685Y-045196
X05086Y-04109
X051Y-05175
X05115Y-04133
X05132Y-04414
X05141Y-03833
X05155Y-04392
X05159Y-03855
X051875Y-02585
X0523Y-04795
X052525Y-0467
X05257Y-03953
X0527Y-044225
X052732Y-043907
X052775Y-043275
X052792Y-045606
X05288Y-03967
X053Y-04545
X05305Y-04325
X05317Y-03811
X05317Y-03876
X053172Y-044128
X0532Y-05135
X0533Y-0347
X0535Y-03879
X0535Y-044075
X05355Y-05335
X0536Y-0381
X053625Y-02385
X053775Y-0441
X053802Y-044388
X0543Y-0471
X0543Y-04805
X0545Y-04885
X054614Y-04786
X054625Y-047075
X054675Y-03335
X054825Y-028675
X0551Y-032875
X055318Y-04501
X0557Y-040575
X05575Y-040925
X05665Y-03765
X05675Y-0343
X056925Y-042025
X05695Y-030652
X05705Y-043325
X057125Y-044536
X05715Y-044825
X057175Y-042425
X057249Y-043545
X05725Y-04775
X05805Y-04601
X05805Y-04661
X05815Y-03505
X05855Y-03347
X05872Y-03404
X05894Y-03366
X059025Y-045925
X05915Y-038975
X05931Y-03392
X05985Y-0485
X06026Y-03314
X06036Y-03256
X060555Y-033074
X0606Y-0282
X060625Y-043975
X06075Y-043025
X0608Y-030475
X061Y-0448
X0612Y-033225
X06125Y-03245
X0613Y-043975
X06155Y-04945
X06175Y-046675
X06184Y-047881
X0628Y-043
X0642Y-0422
X064475Y-0446
T2
X037804Y-032461
X049025Y-0233
X04915Y-02265
X050725Y-02265
X0508Y-02355
X059126Y-04427
X061376Y-042585
X061775Y-042025
X062265Y-042585
X0628Y-03235
X063025Y-04385
X063075Y-0458
X0631Y-029175
X06325Y-031475
X064025Y-04315
X064125Y-0301
X06445Y-042825
T3
X0357Y-03085
X03586Y-04586
X036525Y-031725
X0368Y-0326
X036998Y-04239
X03765Y-029684
X038017Y-04794
X03834Y-04372
X0388Y-0324
X03885Y-0346
X0392Y-03675
X039459Y-04225
X0395Y-0351
X039975Y-031675
X04Y-0328
X040123Y-038103
X04014Y-03948
X042125Y-0354
X0422Y-033
X042579Y-042683
X043263Y-04421
X043299Y-04369
X0437Y-033891
X0454Y-03
X0454Y-032
X0454Y-0326
X0457Y-048525
X045875Y-028125
X046Y-03
X046325Y-0485
X046425Y-027775
X0466Y-0455
X04725Y-029375
X04765Y-026
X047725Y-029325
X047725Y-031975
X047725Y-03265
X04775Y-03926
X048Y-0258
X048038Y-05263
X04815Y-05395
X04817Y-03926
X0488Y-0236
X0488Y-05405
X049225Y-05045
X049325Y-0548
X04935Y-048075
X04955Y-050875
X049725Y-04875
X050175Y-05135
X0502Y-028
X0502Y-028578
X050425Y-0509
X050799Y-024
X0508Y-054763
X051234Y-053317
X0513Y-03035
X05165Y-0307
X0517Y-0512
X05509Y-03964
X05509Y-04006
X05555Y-04428
X05698Y-04384
X061Y-031
X0624Y-0294
X063Y-048076
X063Y-0487
X06345Y-04755
X06355Y-04805
X064Y-04795
T4
X0594Y-03125
X0594Y-03175
X0594Y-03225
X0594Y-03275
X0594Y-03325
X0599Y-03125
X0599Y-03175
X0599Y-03225
X0599Y-03275
X0599Y-03325
T5
X0585Y-0405
X0585Y-0415
X0585Y-0425
X0585Y-0435
X0595Y-0405
X0595Y-0415
X0595Y-0425
X0595Y-0435
X06045Y-03535
X06045Y-03635
X06045Y-03735
X06045Y-03835
T0
M30
