G04 #@! TF.GenerationSoftware,KiCad,Pcbnew,(2016-12-02 revision 54c5f6b)-makepkg*
G04 #@! TF.CreationDate,2016-12-15T21:43:30-06:00*
G04 #@! TF.ProjectId,Star,537461722E6B696361645F7063620000,rev?*
G04 #@! TF.FileFunction,Paste,Top*
G04 #@! TF.FilePolarity,Positive*
%FSLAX46Y46*%
G04 Gerber Fmt 4.6, Leading zero omitted, Abs format (unit mm)*
G04 Created by KiCad (PCBNEW (2016-12-02 revision 54c5f6b)-makepkg) date 12/15/16 21:43:30*
%MOMM*%
%LPD*%
G01*
G04 APERTURE LIST*
%ADD10C,0.100000*%
%ADD11C,0.838200*%
%ADD12R,0.838200X1.346200*%
%ADD13R,1.547600X0.847600*%
G04 APERTURE END LIST*
D10*
D11*
X95491592Y-115214400D03*
D10*
G36*
X95864964Y-114514899D02*
X96284064Y-115240801D01*
X95118220Y-115913901D01*
X94699120Y-115187999D01*
X95864964Y-114514899D01*
X95864964Y-114514899D01*
G37*
D11*
X92456000Y-116967000D03*
D10*
G36*
X92829372Y-116267499D02*
X93248472Y-116993401D01*
X92082628Y-117666501D01*
X91663528Y-116940599D01*
X92829372Y-116267499D01*
X92829372Y-116267499D01*
G37*
D11*
X96190092Y-116424237D03*
D10*
G36*
X96563464Y-115724736D02*
X96982564Y-116450638D01*
X95816720Y-117123738D01*
X95397620Y-116397836D01*
X96563464Y-115724736D01*
X96563464Y-115724736D01*
G37*
D11*
X93154500Y-118176837D03*
D10*
G36*
X93527872Y-117477336D02*
X93946972Y-118203238D01*
X92781128Y-118876338D01*
X92362028Y-118150436D01*
X93527872Y-117477336D01*
X93527872Y-117477336D01*
G37*
D12*
X127762000Y-138176000D03*
X127762000Y-134670800D03*
X126365000Y-138176000D03*
X126365000Y-134670800D03*
D11*
X161493200Y-116992400D03*
D10*
G36*
X160700728Y-117018801D02*
X161119828Y-116292899D01*
X162285672Y-116965999D01*
X161866572Y-117691901D01*
X160700728Y-117018801D01*
X160700728Y-117018801D01*
G37*
D11*
X158457608Y-115239800D03*
D10*
G36*
X157665136Y-115266201D02*
X158084236Y-114540299D01*
X159250080Y-115213399D01*
X158830980Y-115939301D01*
X157665136Y-115266201D01*
X157665136Y-115266201D01*
G37*
D11*
X160794700Y-118202237D03*
D10*
G36*
X160002228Y-118228638D02*
X160421328Y-117502736D01*
X161587172Y-118175836D01*
X161168072Y-118901738D01*
X160002228Y-118228638D01*
X160002228Y-118228638D01*
G37*
D11*
X157759108Y-116449637D03*
D10*
G36*
X156966636Y-116476038D02*
X157385736Y-115750136D01*
X158551580Y-116423236D01*
X158132480Y-117149138D01*
X156966636Y-116476038D01*
X156966636Y-116476038D01*
G37*
D11*
X160960092Y-77428563D03*
D10*
G36*
X160586720Y-78128064D02*
X160167620Y-77402162D01*
X161333464Y-76729062D01*
X161752564Y-77454964D01*
X160586720Y-78128064D01*
X160586720Y-78128064D01*
G37*
D11*
X157924500Y-79181163D03*
D10*
G36*
X157551128Y-79880664D02*
X157132028Y-79154762D01*
X158297872Y-78481662D01*
X158716972Y-79207564D01*
X157551128Y-79880664D01*
X157551128Y-79880664D01*
G37*
D11*
X161658592Y-78638400D03*
D10*
G36*
X161285220Y-79337901D02*
X160866120Y-78611999D01*
X162031964Y-77938899D01*
X162451064Y-78664801D01*
X161285220Y-79337901D01*
X161285220Y-79337901D01*
G37*
D11*
X158623000Y-80391000D03*
D10*
G36*
X158249628Y-81090501D02*
X157830528Y-80364599D01*
X158996372Y-79691499D01*
X159415472Y-80417401D01*
X158249628Y-81090501D01*
X158249628Y-81090501D01*
G37*
D12*
X126301500Y-57454800D03*
X126301500Y-60960000D03*
X127698500Y-57454800D03*
X127698500Y-60960000D03*
D11*
X92557600Y-78740000D03*
D10*
G36*
X93350072Y-78713599D02*
X92930972Y-79439501D01*
X91765128Y-78766401D01*
X92184228Y-78040499D01*
X93350072Y-78713599D01*
X93350072Y-78713599D01*
G37*
D11*
X95593192Y-80492600D03*
D10*
G36*
X96385664Y-80466199D02*
X95966564Y-81192101D01*
X94800720Y-80519001D01*
X95219820Y-79793099D01*
X96385664Y-80466199D01*
X96385664Y-80466199D01*
G37*
D11*
X93256100Y-77530163D03*
D10*
G36*
X94048572Y-77503762D02*
X93629472Y-78229664D01*
X92463628Y-77556564D01*
X92882728Y-76830662D01*
X94048572Y-77503762D01*
X94048572Y-77503762D01*
G37*
D11*
X96291692Y-79282763D03*
D10*
G36*
X97084164Y-79256362D02*
X96665064Y-79982264D01*
X95499220Y-79309164D01*
X95918320Y-78583262D01*
X97084164Y-79256362D01*
X97084164Y-79256362D01*
G37*
D13*
X123850000Y-114940000D03*
X130150000Y-114940000D03*
X123850000Y-118740000D03*
X130150000Y-118740000D03*
M02*
