G04 #@! TF.GenerationSoftware,KiCad,Pcbnew,(2016-12-02 revision 54c5f6b)-makepkg*
G04 #@! TF.CreationDate,2016-12-08T22:01:39-06:00*
G04 #@! TF.ProjectId,Star,537461722E6B696361645F7063620000,rev?*
G04 #@! TF.FileFunction,Legend,Top*
G04 #@! TF.FilePolarity,Positive*
%FSLAX46Y46*%
G04 Gerber Fmt 4.6, Leading zero omitted, Abs format (unit mm)*
G04 Created by KiCad (PCBNEW (2016-12-02 revision 54c5f6b)-makepkg) date 12/08/16 22:01:39*
%MOMM*%
%LPD*%
G01*
G04 APERTURE LIST*
%ADD10C,0.100000*%
%ADD11C,0.203200*%
%ADD12C,0.150000*%
%ADD13C,0.254000*%
G04 APERTURE END LIST*
D10*
D11*
X94103621Y-115883763D02*
X93993636Y-115947263D01*
X94230621Y-116103734D02*
X94103621Y-115883763D01*
X93773665Y-116074263D02*
X94230621Y-116103734D01*
X94086606Y-115600293D02*
X93773665Y-116074263D01*
X94404106Y-116150219D02*
X94086606Y-115600293D01*
X94755636Y-117267086D02*
X94802121Y-117093601D01*
X95039106Y-117250071D02*
X94755636Y-117267086D01*
X94848606Y-116920115D02*
X95039106Y-117250071D01*
X94535665Y-117394086D02*
X94848606Y-116920115D01*
X95102606Y-117360056D02*
X94535665Y-117394086D01*
X95158342Y-114138594D02*
X91694241Y-116138594D01*
X96908342Y-117169683D02*
X93444241Y-119169683D01*
X93743279Y-116687632D02*
X93243279Y-115821607D01*
X93493279Y-116254620D02*
X94609304Y-116187632D01*
X94109304Y-115321607D02*
X93493279Y-116254620D01*
X94609304Y-116187632D02*
X94109304Y-115321607D01*
X94493279Y-117986670D02*
X93993279Y-117120645D01*
X94243279Y-117553658D02*
X95359304Y-117486670D01*
X94859304Y-116620645D02*
X94243279Y-117553658D01*
X95359304Y-117486670D02*
X94859304Y-116620645D01*
X127876300Y-136639300D02*
X127876300Y-136512300D01*
X127622300Y-136639300D02*
X127876300Y-136639300D01*
X127876300Y-136258300D02*
X127622300Y-136639300D01*
X128130300Y-136766300D02*
X127876300Y-136258300D01*
X127495300Y-136766300D02*
X128130300Y-136766300D01*
X126352300Y-136512300D02*
X126479300Y-136639300D01*
X126225300Y-136766300D02*
X126352300Y-136512300D01*
X126606300Y-136766300D02*
X126225300Y-136766300D01*
X126352300Y-136258300D02*
X126606300Y-136766300D01*
X126098300Y-136766300D02*
X126352300Y-136258300D01*
X128860300Y-138425300D02*
X128860300Y-134425300D01*
X125360300Y-138425300D02*
X125360300Y-134425300D01*
X127360300Y-135925300D02*
X128360300Y-135925300D01*
X127860300Y-135925300D02*
X127360300Y-136925300D01*
X128360300Y-136925300D02*
X127860300Y-135925300D01*
X127360300Y-136925300D02*
X128360300Y-136925300D01*
X125860300Y-135925300D02*
X126860300Y-135925300D01*
X126360300Y-135925300D02*
X125860300Y-136925300D01*
X126860300Y-136925300D02*
X126360300Y-135925300D01*
X125860300Y-136925300D02*
X126860300Y-136925300D01*
X159793096Y-115428067D02*
X159293096Y-116294092D01*
X159293096Y-116294092D02*
X160409121Y-116361079D01*
X160409121Y-116361079D02*
X159793096Y-115428067D01*
X160659121Y-115928067D02*
X160159121Y-116794092D01*
X159043096Y-116727105D02*
X158543096Y-117593130D01*
X158543096Y-117593130D02*
X159659121Y-117660117D01*
X159659121Y-117660117D02*
X159043096Y-116727105D01*
X159909121Y-117227105D02*
X159409121Y-118093130D01*
X158744058Y-114245054D02*
X162208159Y-116245054D01*
X156994058Y-117276143D02*
X160458159Y-119276143D01*
X159811794Y-115713681D02*
X160124735Y-116187651D01*
X160124735Y-116187651D02*
X159557794Y-116153622D01*
X159557794Y-116153622D02*
X159748294Y-115823666D01*
X159748294Y-115823666D02*
X159904764Y-116060651D01*
X159904764Y-116060651D02*
X159731279Y-116107136D01*
X159113294Y-116923518D02*
X158795794Y-117473444D01*
X158795794Y-117473444D02*
X159362735Y-117507474D01*
X159362735Y-117507474D02*
X159159779Y-117097003D01*
X159159779Y-117097003D02*
X159032779Y-117316974D01*
X159032779Y-117316974D02*
X159142764Y-117380474D01*
X158755288Y-78118730D02*
X159255288Y-78984755D01*
X159255288Y-78984755D02*
X159871313Y-78051742D01*
X159871313Y-78051742D02*
X158755288Y-78118730D01*
X159621313Y-77618730D02*
X160121313Y-78484755D01*
X159505288Y-79417768D02*
X160005288Y-80283793D01*
X160005288Y-80283793D02*
X160621313Y-79350780D01*
X160621313Y-79350780D02*
X159505288Y-79417768D01*
X160371313Y-78917768D02*
X160871313Y-79783793D01*
X157206250Y-78435717D02*
X160670351Y-76435717D01*
X158956250Y-81466806D02*
X162420351Y-79466806D01*
X159011986Y-78245344D02*
X159578927Y-78211314D01*
X159578927Y-78211314D02*
X159265986Y-78685285D01*
X159265986Y-78685285D02*
X159075486Y-78355329D01*
X159075486Y-78355329D02*
X159358956Y-78338314D01*
X159358956Y-78338314D02*
X159312471Y-78511799D01*
X159710486Y-79455181D02*
X160027986Y-80005107D01*
X160027986Y-80005107D02*
X160340927Y-79531137D01*
X160340927Y-79531137D02*
X159883971Y-79501666D01*
X159883971Y-79501666D02*
X160010971Y-79721637D01*
X160010971Y-79721637D02*
X160120956Y-79658137D01*
X126187200Y-58991500D02*
X126187200Y-59118500D01*
X126441200Y-58991500D02*
X126187200Y-58991500D01*
X126187200Y-59372500D02*
X126441200Y-58991500D01*
X125933200Y-58864500D02*
X126187200Y-59372500D01*
X126568200Y-58864500D02*
X125933200Y-58864500D01*
X127711200Y-59118500D02*
X127584200Y-58991500D01*
X127838200Y-58864500D02*
X127711200Y-59118500D01*
X127457200Y-58864500D02*
X127838200Y-58864500D01*
X127711200Y-59372500D02*
X127457200Y-58864500D01*
X127965200Y-58864500D02*
X127711200Y-59372500D01*
X125203200Y-57205500D02*
X125203200Y-61205500D01*
X128703200Y-57205500D02*
X128703200Y-61205500D01*
X126703200Y-59705500D02*
X125703200Y-59705500D01*
X126203200Y-59705500D02*
X126703200Y-58705500D01*
X125703200Y-58705500D02*
X126203200Y-59705500D01*
X126703200Y-58705500D02*
X125703200Y-58705500D01*
X128203200Y-59705500D02*
X127203200Y-59705500D01*
X127703200Y-59705500D02*
X128203200Y-58705500D01*
X127203200Y-58705500D02*
X127703200Y-59705500D01*
X128203200Y-58705500D02*
X127203200Y-58705500D01*
X94257704Y-80304333D02*
X94757704Y-79438308D01*
X94757704Y-79438308D02*
X93641679Y-79371321D01*
X93641679Y-79371321D02*
X94257704Y-80304333D01*
X93391679Y-79804333D02*
X93891679Y-78938308D01*
X95007704Y-79005295D02*
X95507704Y-78139270D01*
X95507704Y-78139270D02*
X94391679Y-78072283D01*
X94391679Y-78072283D02*
X95007704Y-79005295D01*
X94141679Y-78505295D02*
X94641679Y-77639270D01*
X95306742Y-81487346D02*
X91842641Y-79487346D01*
X97056742Y-78456257D02*
X93592641Y-76456257D01*
X94239006Y-80018719D02*
X93926065Y-79544749D01*
X93926065Y-79544749D02*
X94493006Y-79578778D01*
X94493006Y-79578778D02*
X94302506Y-79908734D01*
X94302506Y-79908734D02*
X94146036Y-79671749D01*
X94146036Y-79671749D02*
X94319521Y-79625264D01*
X94937506Y-78808882D02*
X95255006Y-78258956D01*
X95255006Y-78258956D02*
X94688065Y-78224926D01*
X94688065Y-78224926D02*
X94891021Y-78635397D01*
X94891021Y-78635397D02*
X95018021Y-78415426D01*
X95018021Y-78415426D02*
X94908036Y-78351926D01*
X136000000Y-97790000D02*
G75*
G03X136000000Y-97790000I-9000000J0D01*
G01*
X133600000Y-97790000D02*
G75*
G03X133600000Y-97790000I-6600000J0D01*
G01*
D12*
X128000000Y-116840000D02*
G75*
G03X128000000Y-116840000I-1000000J0D01*
G01*
X128250000Y-119590000D02*
X125750000Y-119590000D01*
X129750000Y-117840000D02*
X129750000Y-115840000D01*
X128250000Y-114090000D02*
X125750000Y-114090000D01*
X124250000Y-117840000D02*
X124250000Y-115840000D01*
X129000000Y-115840000D02*
X129000000Y-117840000D01*
X128000000Y-114840000D02*
X129000000Y-115840000D01*
X126000000Y-114840000D02*
X128000000Y-114840000D01*
X125000000Y-115840000D02*
X126000000Y-114840000D01*
X125000000Y-117840000D02*
X125000000Y-115840000D01*
X126000000Y-118840000D02*
X125000000Y-117840000D01*
X128000000Y-118840000D02*
X126000000Y-118840000D01*
X129000000Y-117840000D02*
X128000000Y-118840000D01*
X128700000Y-119140000D02*
X128250000Y-119590000D01*
X125300000Y-119140000D02*
X125750000Y-119590000D01*
X125300000Y-114540000D02*
X125750000Y-114090000D01*
X128700000Y-114540000D02*
X128250000Y-114090000D01*
X125738095Y-98194761D02*
X125880952Y-98242380D01*
X126119047Y-98242380D01*
X126214285Y-98194761D01*
X126261904Y-98147142D01*
X126309523Y-98051904D01*
X126309523Y-97956666D01*
X126261904Y-97861428D01*
X126214285Y-97813809D01*
X126119047Y-97766190D01*
X125928571Y-97718571D01*
X125833333Y-97670952D01*
X125785714Y-97623333D01*
X125738095Y-97528095D01*
X125738095Y-97432857D01*
X125785714Y-97337619D01*
X125833333Y-97290000D01*
X125928571Y-97242380D01*
X126166666Y-97242380D01*
X126309523Y-97290000D01*
X126738095Y-98242380D02*
X126738095Y-97242380D01*
X127119047Y-97242380D01*
X127214285Y-97290000D01*
X127261904Y-97337619D01*
X127309523Y-97432857D01*
X127309523Y-97575714D01*
X127261904Y-97670952D01*
X127214285Y-97718571D01*
X127119047Y-97766190D01*
X126738095Y-97766190D01*
X128261904Y-98242380D02*
X127690476Y-98242380D01*
X127976190Y-98242380D02*
X127976190Y-97242380D01*
X127880952Y-97385238D01*
X127785714Y-97480476D01*
X127690476Y-97528095D01*
X119071428Y-98170952D02*
X119071428Y-97409047D01*
X119452380Y-97790000D02*
X118690476Y-97790000D01*
X125666666Y-117244761D02*
X125809523Y-117292380D01*
X126047619Y-117292380D01*
X126142857Y-117244761D01*
X126190476Y-117197142D01*
X126238095Y-117101904D01*
X126238095Y-117006666D01*
X126190476Y-116911428D01*
X126142857Y-116863809D01*
X126047619Y-116816190D01*
X125857142Y-116768571D01*
X125761904Y-116720952D01*
X125714285Y-116673333D01*
X125666666Y-116578095D01*
X125666666Y-116482857D01*
X125714285Y-116387619D01*
X125761904Y-116340000D01*
X125857142Y-116292380D01*
X126095238Y-116292380D01*
X126238095Y-116340000D01*
X126571428Y-116292380D02*
X126809523Y-117292380D01*
X127000000Y-116578095D01*
X127190476Y-117292380D01*
X127428571Y-116292380D01*
X127761904Y-116387619D02*
X127809523Y-116340000D01*
X127904761Y-116292380D01*
X128142857Y-116292380D01*
X128238095Y-116340000D01*
X128285714Y-116387619D01*
X128333333Y-116482857D01*
X128333333Y-116578095D01*
X128285714Y-116720952D01*
X127714285Y-117292380D01*
X128333333Y-117292380D01*
D13*
G36*
X172593000Y-147193000D02*
X81407000Y-147193000D01*
X81407000Y-48387000D01*
X172593000Y-48387000D01*
X172593000Y-147193000D01*
X172593000Y-147193000D01*
G37*
X172593000Y-147193000D02*
X81407000Y-147193000D01*
X81407000Y-48387000D01*
X172593000Y-48387000D01*
X172593000Y-147193000D01*
M02*
