G04 #@! TF.GenerationSoftware,KiCad,Pcbnew,(2016-12-02 revision 54c5f6b)-makepkg*
G04 #@! TF.CreationDate,2016-12-08T23:13:55-06:00*
G04 #@! TF.ProjectId,Star,537461722E6B696361645F7063620000,rev?*
G04 #@! TF.FileFunction,Legend,Bot*
G04 #@! TF.FilePolarity,Positive*
%FSLAX46Y46*%
G04 Gerber Fmt 4.6, Leading zero omitted, Abs format (unit mm)*
G04 Created by KiCad (PCBNEW (2016-12-02 revision 54c5f6b)-makepkg) date 12/08/16 23:13:55*
%MOMM*%
%LPD*%
G01*
G04 APERTURE LIST*
%ADD10C,0.100000*%
%ADD11C,0.150000*%
%ADD12C,0.254000*%
%ADD13C,0.200660*%
%ADD14C,0.203200*%
%ADD15C,0.099060*%
G04 APERTURE END LIST*
D10*
D11*
X113547000Y-82058000D02*
X113547000Y-84058000D01*
X111497000Y-84058000D02*
X111497000Y-82058000D01*
X100619000Y-122586000D02*
X100619000Y-123286000D01*
X101819000Y-123286000D02*
X101819000Y-122586000D01*
D12*
X138366500Y-70878700D02*
X138366500Y-125234700D01*
X116141500Y-70878700D02*
X138366500Y-70878700D01*
X116141500Y-125234700D02*
X138366500Y-125234700D01*
X116141500Y-70878700D02*
X116141500Y-125234700D01*
D11*
X108175250Y-108427250D02*
X108175250Y-109002250D01*
X98775250Y-108427250D02*
X98775250Y-109002250D01*
X98775250Y-117827250D02*
X98775250Y-117252250D01*
X108175250Y-117827250D02*
X108175250Y-117252250D01*
X98775250Y-108427250D02*
X99350250Y-108427250D01*
X98775250Y-117827250D02*
X99350250Y-117827250D01*
X108175250Y-108427250D02*
X107600250Y-108427250D01*
X93488000Y-117339000D02*
X95488000Y-117339000D01*
X95488000Y-119389000D02*
X93488000Y-119389000D01*
X109490000Y-101083000D02*
X111490000Y-101083000D01*
X111490000Y-103133000D02*
X109490000Y-103133000D01*
X113522000Y-118373000D02*
X111522000Y-118373000D01*
X111522000Y-116323000D02*
X113522000Y-116323000D01*
X111598000Y-114650000D02*
X111598000Y-113950000D01*
X110398000Y-113950000D02*
X110398000Y-114650000D01*
X103394000Y-88891000D02*
X105394000Y-88891000D01*
X105394000Y-90941000D02*
X103394000Y-90941000D01*
X99664000Y-105826000D02*
X98964000Y-105826000D01*
X98964000Y-107026000D02*
X99664000Y-107026000D01*
X145257000Y-85633000D02*
X144557000Y-85633000D01*
X144557000Y-86833000D02*
X145257000Y-86833000D01*
X102204000Y-119542000D02*
X101504000Y-119542000D01*
X101504000Y-120742000D02*
X102204000Y-120742000D01*
X99305000Y-87360000D02*
X99305000Y-85360000D01*
X101355000Y-85360000D02*
X101355000Y-87360000D01*
X107350000Y-105568000D02*
X107350000Y-106268000D01*
X108550000Y-106268000D02*
X108550000Y-105568000D01*
X112514000Y-112356000D02*
X111514000Y-112356000D01*
X111514000Y-110656000D02*
X112514000Y-110656000D01*
X107100000Y-86844000D02*
X107100000Y-85844000D01*
X108800000Y-85844000D02*
X108800000Y-86844000D01*
X96612000Y-115412000D02*
X96612000Y-114712000D01*
X95412000Y-114712000D02*
X95412000Y-115412000D01*
X112110000Y-108874000D02*
X111410000Y-108874000D01*
X111410000Y-110074000D02*
X112110000Y-110074000D01*
X104414021Y-83403361D02*
X103414021Y-83403361D01*
X103414021Y-81703361D02*
X104414021Y-81703361D01*
X104414021Y-81371361D02*
X103414021Y-81371361D01*
X103414021Y-79671361D02*
X104414021Y-79671361D01*
X112430000Y-113950000D02*
X112430000Y-114650000D01*
X113630000Y-114650000D02*
X113630000Y-113950000D01*
X156302000Y-110320000D02*
X156302000Y-109620000D01*
X155102000Y-109620000D02*
X155102000Y-110320000D01*
X95412000Y-110648001D02*
X95412000Y-111347999D01*
X96612000Y-111347999D02*
X96612000Y-110648001D01*
X111156000Y-120488000D02*
X111856000Y-120488000D01*
X111856000Y-119288000D02*
X111156000Y-119288000D01*
X141701000Y-119669000D02*
X141001000Y-119669000D01*
X141001000Y-120869000D02*
X141701000Y-120869000D01*
X141701000Y-114335000D02*
X141001000Y-114335000D01*
X141001000Y-115535000D02*
X141701000Y-115535000D01*
X95412000Y-107600001D02*
X95412000Y-108299999D01*
X96612000Y-108299999D02*
X96612000Y-107600001D01*
X95115000Y-121627000D02*
X94115000Y-121627000D01*
X94115000Y-119927000D02*
X95115000Y-119927000D01*
X149567000Y-117102000D02*
X149567000Y-118102000D01*
X147867000Y-118102000D02*
X147867000Y-117102000D01*
X103216000Y-94838000D02*
X103216000Y-94138000D01*
X102016000Y-94138000D02*
X102016000Y-94838000D01*
X149823832Y-88427000D02*
X149123832Y-88427000D01*
X149123832Y-89627000D02*
X149823832Y-89627000D01*
X149823832Y-97411792D02*
X149123832Y-97411792D01*
X149123832Y-98611792D02*
X149823832Y-98611792D01*
X152976000Y-85255000D02*
X152176000Y-85255000D01*
X152976000Y-78605000D02*
X152976000Y-85255000D01*
X152976000Y-78605000D02*
X150026000Y-78605000D01*
X150026000Y-78605000D02*
X150026000Y-83155000D01*
X151376000Y-85255000D02*
X150026000Y-85255000D01*
X150026000Y-85255000D02*
X150026000Y-83955000D01*
X154813000Y-91059000D02*
X154813000Y-98679000D01*
X152273000Y-91059000D02*
X152273000Y-98679000D01*
X151993000Y-88239000D02*
X151993000Y-89789000D01*
X154813000Y-98679000D02*
X152273000Y-98679000D01*
X152273000Y-91059000D02*
X154813000Y-91059000D01*
X155093000Y-89789000D02*
X155093000Y-88239000D01*
X155093000Y-88239000D02*
X151993000Y-88239000D01*
D13*
X95791020Y-102168960D02*
X95791020Y-93766640D01*
X95689420Y-102168960D02*
X95689420Y-93766640D01*
X95689420Y-93766640D02*
X95890080Y-93766640D01*
X95890080Y-93766640D02*
X95890080Y-102168960D01*
X95890080Y-102168960D02*
X95689420Y-102168960D01*
X95689420Y-101866700D02*
X100690680Y-101866700D01*
X100690680Y-101866700D02*
X100690680Y-94068900D01*
X100690680Y-94068900D02*
X95689420Y-94068900D01*
D11*
X152680000Y-101320000D02*
X152680000Y-102870000D01*
X149860000Y-104140000D02*
X152400000Y-104140000D01*
X149860000Y-101600000D02*
X149860000Y-104140000D01*
X151130000Y-101320000D02*
X152680000Y-101320000D01*
X147320000Y-101600000D02*
X149860000Y-101600000D01*
X147320000Y-111760000D02*
X147320000Y-101600000D01*
X152400000Y-111760000D02*
X147320000Y-111760000D01*
X152400000Y-104140000D02*
X152400000Y-111760000D01*
X132603240Y-136000528D02*
X132603240Y-136048788D01*
X131902200Y-138799508D02*
X132603240Y-138799508D01*
X132603240Y-138799508D02*
X132603240Y-138550588D01*
X132603240Y-136000528D02*
X132603240Y-135799868D01*
X132603240Y-135799868D02*
X131902200Y-135799868D01*
X132603240Y-132444528D02*
X132603240Y-132492788D01*
X131902200Y-135243508D02*
X132603240Y-135243508D01*
X132603240Y-135243508D02*
X132603240Y-134994588D01*
X132603240Y-132444528D02*
X132603240Y-132243868D01*
X132603240Y-132243868D02*
X131902200Y-132243868D01*
X121523760Y-135243508D02*
X122224800Y-135243508D01*
X121523760Y-135042848D02*
X121523760Y-135243508D01*
X121523760Y-132243868D02*
X121523760Y-132492788D01*
X122224800Y-132243868D02*
X121523760Y-132243868D01*
X121523760Y-135042848D02*
X121523760Y-134994588D01*
X121523760Y-138598848D02*
X121523760Y-138550588D01*
X122224800Y-135799868D02*
X121523760Y-135799868D01*
X121523760Y-135799868D02*
X121523760Y-136048788D01*
X121523760Y-138598848D02*
X121523760Y-138799508D01*
X121523760Y-138799508D02*
X122224800Y-138799508D01*
X156599196Y-122443240D02*
X156550936Y-122443240D01*
X153800216Y-121742200D02*
X153800216Y-122443240D01*
X153800216Y-122443240D02*
X154049136Y-122443240D01*
X156599196Y-122443240D02*
X156799856Y-122443240D01*
X156799856Y-122443240D02*
X156799856Y-121742200D01*
X160355856Y-122461020D02*
X160355856Y-121759980D01*
X160155196Y-122461020D02*
X160355856Y-122461020D01*
X157356216Y-122461020D02*
X157605136Y-122461020D01*
X157356216Y-121759980D02*
X157356216Y-122461020D01*
X160155196Y-122461020D02*
X160106936Y-122461020D01*
X161305240Y-75027840D02*
X161305240Y-75076100D01*
X160604200Y-77826820D02*
X161305240Y-77826820D01*
X161305240Y-77826820D02*
X161305240Y-77577900D01*
X161305240Y-75027840D02*
X161305240Y-74827180D01*
X161305240Y-74827180D02*
X160604200Y-74827180D01*
X161305240Y-78383180D02*
X160604200Y-78383180D01*
X161305240Y-78583840D02*
X161305240Y-78383180D01*
X161305240Y-81382820D02*
X161305240Y-81133900D01*
X160604200Y-81382820D02*
X161305240Y-81382820D01*
X161305240Y-78583840D02*
X161305240Y-78632100D01*
X123957918Y-59166760D02*
X123957918Y-59867800D01*
X124158578Y-59166760D02*
X123957918Y-59166760D01*
X126957558Y-59166760D02*
X126708638Y-59166760D01*
X126957558Y-59867800D02*
X126957558Y-59166760D01*
X124158578Y-59166760D02*
X124206838Y-59166760D01*
X127714578Y-59166760D02*
X127762838Y-59166760D01*
X130513558Y-59867800D02*
X130513558Y-59166760D01*
X130513558Y-59166760D02*
X130264638Y-59166760D01*
X127714578Y-59166760D02*
X127513918Y-59166760D01*
X127513918Y-59166760D02*
X127513918Y-59867800D01*
X92059760Y-82250674D02*
X92760800Y-82250674D01*
X92059760Y-82050014D02*
X92059760Y-82250674D01*
X92059760Y-79251034D02*
X92059760Y-79499954D01*
X92760800Y-79251034D02*
X92059760Y-79251034D01*
X92059760Y-82050014D02*
X92059760Y-82001754D01*
X92059760Y-78494014D02*
X92059760Y-78445754D01*
X92760800Y-75695034D02*
X92059760Y-75695034D01*
X92059760Y-75695034D02*
X92059760Y-75943954D01*
X92059760Y-78494014D02*
X92059760Y-78694674D01*
X92059760Y-78694674D02*
X92760800Y-78694674D01*
X97647760Y-124943820D02*
X98348800Y-124943820D01*
X97647760Y-124743160D02*
X97647760Y-124943820D01*
X97647760Y-121944180D02*
X97647760Y-122193100D01*
X98348800Y-121944180D02*
X97647760Y-121944180D01*
X97647760Y-124743160D02*
X97647760Y-124694900D01*
X129001000Y-137588688D02*
X128301000Y-137588688D01*
X128301000Y-138788688D02*
X129001000Y-138788688D01*
X128301000Y-137010688D02*
X129001000Y-137010688D01*
X129001000Y-135810688D02*
X128301000Y-135810688D01*
X91659000Y-119095000D02*
X91659000Y-118395000D01*
X90459000Y-118395000D02*
X90459000Y-119095000D01*
X141509000Y-86833000D02*
X142209000Y-86833000D01*
X142209000Y-85633000D02*
X141509000Y-85633000D01*
X95028500Y-122145500D02*
X94328500Y-122145500D01*
X94328500Y-123345500D02*
X95028500Y-123345500D01*
X129001000Y-132254688D02*
X128301000Y-132254688D01*
X128301000Y-133454688D02*
X129001000Y-133454688D01*
X129001000Y-134032688D02*
X128301000Y-134032688D01*
X128301000Y-135232688D02*
X129001000Y-135232688D01*
X148047000Y-85694000D02*
X148047000Y-84994000D01*
X146847000Y-84994000D02*
X146847000Y-85694000D01*
X142209000Y-83855000D02*
X141509000Y-83855000D01*
X141509000Y-85055000D02*
X142209000Y-85055000D01*
X125126000Y-133454688D02*
X125826000Y-133454688D01*
X125826000Y-132254688D02*
X125126000Y-132254688D01*
X125826000Y-134032688D02*
X125126000Y-134032688D01*
X125126000Y-135232688D02*
X125826000Y-135232688D01*
X128301000Y-140617500D02*
X129001000Y-140617500D01*
X129001000Y-139417500D02*
X128301000Y-139417500D01*
X125126000Y-140617500D02*
X125826000Y-140617500D01*
X125826000Y-139417500D02*
X125126000Y-139417500D01*
X125126000Y-138788688D02*
X125826000Y-138788688D01*
X125826000Y-137588688D02*
X125126000Y-137588688D01*
X125126000Y-137010688D02*
X125826000Y-137010688D01*
X125826000Y-135810688D02*
X125126000Y-135810688D01*
X155011036Y-118841000D02*
X155011036Y-118141000D01*
X153811036Y-118141000D02*
X153811036Y-118841000D01*
X155589036Y-118141000D02*
X155589036Y-118841000D01*
X156789036Y-118841000D02*
X156789036Y-118141000D01*
X162656000Y-118907000D02*
X161956000Y-118907000D01*
X161956000Y-120107000D02*
X162656000Y-120107000D01*
X161968000Y-118392500D02*
X162668000Y-118392500D01*
X162668000Y-117192500D02*
X161968000Y-117192500D01*
X159145036Y-118141000D02*
X159145036Y-118841000D01*
X160345036Y-118841000D02*
X160345036Y-118141000D01*
X158567036Y-118841000D02*
X158567036Y-118141000D01*
X157367036Y-118141000D02*
X157367036Y-118841000D01*
X157003000Y-77816000D02*
X157703000Y-77816000D01*
X157703000Y-76616000D02*
X157003000Y-76616000D01*
X157703000Y-74838000D02*
X157003000Y-74838000D01*
X157003000Y-76038000D02*
X157703000Y-76038000D01*
X157703000Y-81950000D02*
X157003000Y-81950000D01*
X157003000Y-83150000D02*
X157703000Y-83150000D01*
X157003000Y-74260000D02*
X157703000Y-74260000D01*
X157703000Y-73060000D02*
X157003000Y-73060000D01*
X157703000Y-78394000D02*
X157003000Y-78394000D01*
X157003000Y-79594000D02*
X157703000Y-79594000D01*
X157003000Y-81372000D02*
X157703000Y-81372000D01*
X157703000Y-80172000D02*
X157003000Y-80172000D01*
X144557000Y-85055000D02*
X145257000Y-85055000D01*
X145257000Y-83855000D02*
X144557000Y-83855000D01*
X125746738Y-62769000D02*
X125746738Y-63469000D01*
X126946738Y-63469000D02*
X126946738Y-62769000D01*
X125168738Y-63469000D02*
X125168738Y-62769000D01*
X123968738Y-62769000D02*
X123968738Y-63469000D01*
X123409000Y-63469000D02*
X123409000Y-62769000D01*
X122209000Y-62769000D02*
X122209000Y-63469000D01*
X131035500Y-62769000D02*
X131035500Y-63469000D01*
X132235500Y-63469000D02*
X132235500Y-62769000D01*
X127524738Y-62769000D02*
X127524738Y-63469000D01*
X128724738Y-63469000D02*
X128724738Y-62769000D01*
X165196000Y-106715000D02*
X164496000Y-106715000D01*
X164496000Y-107915000D02*
X165196000Y-107915000D01*
X141701000Y-117891000D02*
X141001000Y-117891000D01*
X141001000Y-119091000D02*
X141701000Y-119091000D01*
X141701000Y-116113000D02*
X141001000Y-116113000D01*
X141001000Y-117313000D02*
X141701000Y-117313000D01*
X129302738Y-62769000D02*
X129302738Y-63469000D01*
X130502738Y-63469000D02*
X130502738Y-62769000D01*
X103794000Y-94138000D02*
X103794000Y-94838000D01*
X104994000Y-94838000D02*
X104994000Y-94138000D01*
X95662000Y-80461854D02*
X96362000Y-80461854D01*
X96362000Y-79261854D02*
X95662000Y-79261854D01*
X96362000Y-81039854D02*
X95662000Y-81039854D01*
X95662000Y-82239854D02*
X96362000Y-82239854D01*
X95662000Y-75212500D02*
X96362000Y-75212500D01*
X96362000Y-74012500D02*
X95662000Y-74012500D01*
X95662000Y-83975500D02*
X96362000Y-83975500D01*
X96362000Y-82775500D02*
X95662000Y-82775500D01*
X95662000Y-78683854D02*
X96362000Y-78683854D01*
X96362000Y-77483854D02*
X95662000Y-77483854D01*
X95662000Y-76905854D02*
X96362000Y-76905854D01*
X96362000Y-75705854D02*
X95662000Y-75705854D01*
X114646000Y-121000000D02*
X114646000Y-120300000D01*
X113446000Y-120300000D02*
X113446000Y-121000000D01*
X98533000Y-119923000D02*
X97833000Y-119923000D01*
X97833000Y-121123000D02*
X98533000Y-121123000D01*
X98964000Y-105502000D02*
X99664000Y-105502000D01*
X99664000Y-104302000D02*
X98964000Y-104302000D01*
X102454000Y-106014000D02*
X102454000Y-105314000D01*
X101254000Y-105314000D02*
X101254000Y-106014000D01*
X92402000Y-108652000D02*
X92002000Y-108652000D01*
X92402000Y-113852000D02*
X92002000Y-113852000D01*
X90502000Y-110550960D02*
X90502000Y-111953040D01*
X93902000Y-111954080D02*
X93902000Y-110552000D01*
X93902000Y-110552000D02*
X94402000Y-110552000D01*
X92402000Y-108652000D02*
X92402000Y-107952000D01*
X106194000Y-86660000D02*
G75*
G03X106194000Y-86660000I-100000J0D01*
G01*
X105844000Y-86110000D02*
X105844000Y-86610000D01*
X102944000Y-86110000D02*
X105844000Y-86110000D01*
X102944000Y-86610000D02*
X102944000Y-86110000D01*
X105844000Y-86610000D02*
X102944000Y-86610000D01*
X107140521Y-79745361D02*
X109590521Y-79745361D01*
X106415521Y-83045361D02*
X109590521Y-83045361D01*
X164294000Y-108624000D02*
X164294000Y-108924000D01*
X158794000Y-108624000D02*
X158794000Y-108924000D01*
X158794000Y-114134000D02*
X158794000Y-113834000D01*
X164294000Y-114134000D02*
X164294000Y-113834000D01*
X164294000Y-108624000D02*
X158794000Y-108624000D01*
X164294000Y-114134000D02*
X158794000Y-114134000D01*
X164294000Y-108924000D02*
X166044000Y-108924000D01*
X144204000Y-116017000D02*
X146304000Y-116017000D01*
X143429000Y-119267000D02*
X146304000Y-119267000D01*
X151021832Y-95241792D02*
X150771832Y-95241792D01*
X151021832Y-91891792D02*
X150771832Y-91891792D01*
X147671832Y-91891792D02*
X147921832Y-91891792D01*
X147671832Y-95241792D02*
X147921832Y-95241792D01*
X151021832Y-95241792D02*
X151021832Y-91891792D01*
X147671832Y-95241792D02*
X147671832Y-91891792D01*
X150771832Y-95241792D02*
X150771832Y-96491792D01*
D14*
X101935000Y-97142100D02*
X101935000Y-96380100D01*
X101935000Y-96380100D02*
X102697000Y-96380100D01*
D11*
X110027720Y-108204000D02*
X113030000Y-108204000D01*
X110027720Y-103632000D02*
X113030000Y-103632000D01*
X146353000Y-82056000D02*
X145903000Y-82506000D01*
X142953000Y-82056000D02*
X143403000Y-82506000D01*
X142953000Y-77456000D02*
X143403000Y-77006000D01*
X146353000Y-77456000D02*
X145903000Y-77006000D01*
X146653000Y-78756000D02*
X145653000Y-77756000D01*
X145653000Y-77756000D02*
X143653000Y-77756000D01*
X143653000Y-77756000D02*
X142653000Y-78756000D01*
X142653000Y-78756000D02*
X142653000Y-80756000D01*
X142653000Y-80756000D02*
X143653000Y-81756000D01*
X143653000Y-81756000D02*
X145653000Y-81756000D01*
X145653000Y-81756000D02*
X146653000Y-80756000D01*
X146653000Y-80756000D02*
X146653000Y-78756000D01*
X141903000Y-78756000D02*
X141903000Y-80756000D01*
X145903000Y-82506000D02*
X143403000Y-82506000D01*
X147403000Y-78756000D02*
X147403000Y-80756000D01*
X145903000Y-77006000D02*
X143403000Y-77006000D01*
X145653000Y-79756000D02*
G75*
G03X145653000Y-79756000I-1000000J0D01*
G01*
X114911142Y-82415142D02*
X114958761Y-82367523D01*
X115006380Y-82224666D01*
X115006380Y-82129428D01*
X114958761Y-81986571D01*
X114863523Y-81891333D01*
X114768285Y-81843714D01*
X114577809Y-81796095D01*
X114434952Y-81796095D01*
X114244476Y-81843714D01*
X114149238Y-81891333D01*
X114054000Y-81986571D01*
X114006380Y-82129428D01*
X114006380Y-82224666D01*
X114054000Y-82367523D01*
X114101619Y-82415142D01*
X115006380Y-83367523D02*
X115006380Y-82796095D01*
X115006380Y-83081809D02*
X114006380Y-83081809D01*
X114149238Y-82986571D01*
X114244476Y-82891333D01*
X114292095Y-82796095D01*
X114006380Y-83700857D02*
X114006380Y-84367523D01*
X115006380Y-83938952D01*
X103068380Y-122293142D02*
X102592190Y-121959809D01*
X103068380Y-121721714D02*
X102068380Y-121721714D01*
X102068380Y-122102666D01*
X102116000Y-122197904D01*
X102163619Y-122245523D01*
X102258857Y-122293142D01*
X102401714Y-122293142D01*
X102496952Y-122245523D01*
X102544571Y-122197904D01*
X102592190Y-122102666D01*
X102592190Y-121721714D01*
X102401714Y-123150285D02*
X103068380Y-123150285D01*
X102020761Y-122912190D02*
X102735047Y-122674095D01*
X102735047Y-123293142D01*
X102068380Y-124102666D02*
X102068380Y-123912190D01*
X102116000Y-123816952D01*
X102163619Y-123769333D01*
X102306476Y-123674095D01*
X102496952Y-123626476D01*
X102877904Y-123626476D01*
X102973142Y-123674095D01*
X103020761Y-123721714D01*
X103068380Y-123816952D01*
X103068380Y-124007428D01*
X103020761Y-124102666D01*
X102973142Y-124150285D01*
X102877904Y-124197904D01*
X102639809Y-124197904D01*
X102544571Y-124150285D01*
X102496952Y-124102666D01*
X102449333Y-124007428D01*
X102449333Y-123816952D01*
X102496952Y-123721714D01*
X102544571Y-123674095D01*
X102639809Y-123626476D01*
X114682571Y-72024285D02*
X114730190Y-72167142D01*
X114777809Y-72214761D01*
X114873047Y-72262380D01*
X115015904Y-72262380D01*
X115111142Y-72214761D01*
X115158761Y-72167142D01*
X115206380Y-72071904D01*
X115206380Y-71690952D01*
X114206380Y-71690952D01*
X114206380Y-72024285D01*
X114254000Y-72119523D01*
X114301619Y-72167142D01*
X114396857Y-72214761D01*
X114492095Y-72214761D01*
X114587333Y-72167142D01*
X114634952Y-72119523D01*
X114682571Y-72024285D01*
X114682571Y-71690952D01*
X114206380Y-72548095D02*
X114206380Y-73119523D01*
X115206380Y-72833809D02*
X114206380Y-72833809D01*
X115206380Y-73976666D02*
X115206380Y-73405238D01*
X115206380Y-73690952D02*
X114206380Y-73690952D01*
X114349238Y-73595714D01*
X114444476Y-73500476D01*
X114492095Y-73405238D01*
D12*
X121935428Y-76342380D02*
X121935428Y-78277619D01*
X132935428Y-76342380D02*
X132935428Y-78277619D01*
X133903047Y-77310000D02*
X131967809Y-77310000D01*
X121935428Y-117842380D02*
X121935428Y-119777619D01*
X122903047Y-118810000D02*
X120967809Y-118810000D01*
X132935428Y-117842380D02*
X132935428Y-119777619D01*
D11*
X107529380Y-118618095D02*
X108338904Y-118618095D01*
X108434142Y-118665714D01*
X108481761Y-118713333D01*
X108529380Y-118808571D01*
X108529380Y-118999047D01*
X108481761Y-119094285D01*
X108434142Y-119141904D01*
X108338904Y-119189523D01*
X107529380Y-119189523D01*
X107529380Y-119570476D02*
X107529380Y-120189523D01*
X107910333Y-119856190D01*
X107910333Y-119999047D01*
X107957952Y-120094285D01*
X108005571Y-120141904D01*
X108100809Y-120189523D01*
X108338904Y-120189523D01*
X108434142Y-120141904D01*
X108481761Y-120094285D01*
X108529380Y-119999047D01*
X108529380Y-119713333D01*
X108481761Y-119618095D01*
X108434142Y-119570476D01*
X93765666Y-116689142D02*
X93813285Y-116736761D01*
X93956142Y-116784380D01*
X94051380Y-116784380D01*
X94194238Y-116736761D01*
X94289476Y-116641523D01*
X94337095Y-116546285D01*
X94384714Y-116355809D01*
X94384714Y-116212952D01*
X94337095Y-116022476D01*
X94289476Y-115927238D01*
X94194238Y-115832000D01*
X94051380Y-115784380D01*
X93956142Y-115784380D01*
X93813285Y-115832000D01*
X93765666Y-115879619D01*
X92813285Y-116784380D02*
X93384714Y-116784380D01*
X93099000Y-116784380D02*
X93099000Y-115784380D01*
X93194238Y-115927238D01*
X93289476Y-116022476D01*
X93384714Y-116070095D01*
X110656666Y-100165142D02*
X110704285Y-100212761D01*
X110847142Y-100260380D01*
X110942380Y-100260380D01*
X111085238Y-100212761D01*
X111180476Y-100117523D01*
X111228095Y-100022285D01*
X111275714Y-99831809D01*
X111275714Y-99688952D01*
X111228095Y-99498476D01*
X111180476Y-99403238D01*
X111085238Y-99308000D01*
X110942380Y-99260380D01*
X110847142Y-99260380D01*
X110704285Y-99308000D01*
X110656666Y-99355619D01*
X110275714Y-99355619D02*
X110228095Y-99308000D01*
X110132857Y-99260380D01*
X109894761Y-99260380D01*
X109799523Y-99308000D01*
X109751904Y-99355619D01*
X109704285Y-99450857D01*
X109704285Y-99546095D01*
X109751904Y-99688952D01*
X110323333Y-100260380D01*
X109704285Y-100260380D01*
X109958142Y-117181333D02*
X110005761Y-117133714D01*
X110053380Y-116990857D01*
X110053380Y-116895619D01*
X110005761Y-116752761D01*
X109910523Y-116657523D01*
X109815285Y-116609904D01*
X109624809Y-116562285D01*
X109481952Y-116562285D01*
X109291476Y-116609904D01*
X109196238Y-116657523D01*
X109101000Y-116752761D01*
X109053380Y-116895619D01*
X109053380Y-116990857D01*
X109101000Y-117133714D01*
X109148619Y-117181333D01*
X109053380Y-117514666D02*
X109053380Y-118133714D01*
X109434333Y-117800380D01*
X109434333Y-117943238D01*
X109481952Y-118038476D01*
X109529571Y-118086095D01*
X109624809Y-118133714D01*
X109862904Y-118133714D01*
X109958142Y-118086095D01*
X110005761Y-118038476D01*
X110053380Y-117943238D01*
X110053380Y-117657523D01*
X110005761Y-117562285D01*
X109958142Y-117514666D01*
X109958142Y-114133333D02*
X110005761Y-114085714D01*
X110053380Y-113942857D01*
X110053380Y-113847619D01*
X110005761Y-113704761D01*
X109910523Y-113609523D01*
X109815285Y-113561904D01*
X109624809Y-113514285D01*
X109481952Y-113514285D01*
X109291476Y-113561904D01*
X109196238Y-113609523D01*
X109101000Y-113704761D01*
X109053380Y-113847619D01*
X109053380Y-113942857D01*
X109101000Y-114085714D01*
X109148619Y-114133333D01*
X109386714Y-114990476D02*
X110053380Y-114990476D01*
X109005761Y-114752380D02*
X109720047Y-114514285D01*
X109720047Y-115133333D01*
X107862666Y-90273142D02*
X107910285Y-90320761D01*
X108053142Y-90368380D01*
X108148380Y-90368380D01*
X108291238Y-90320761D01*
X108386476Y-90225523D01*
X108434095Y-90130285D01*
X108481714Y-89939809D01*
X108481714Y-89796952D01*
X108434095Y-89606476D01*
X108386476Y-89511238D01*
X108291238Y-89416000D01*
X108148380Y-89368380D01*
X108053142Y-89368380D01*
X107910285Y-89416000D01*
X107862666Y-89463619D01*
X106957904Y-89368380D02*
X107434095Y-89368380D01*
X107481714Y-89844571D01*
X107434095Y-89796952D01*
X107338857Y-89749333D01*
X107100761Y-89749333D01*
X107005523Y-89796952D01*
X106957904Y-89844571D01*
X106910285Y-89939809D01*
X106910285Y-90177904D01*
X106957904Y-90273142D01*
X107005523Y-90320761D01*
X107100761Y-90368380D01*
X107338857Y-90368380D01*
X107434095Y-90320761D01*
X107481714Y-90273142D01*
X96813666Y-105894142D02*
X96861285Y-105941761D01*
X97004142Y-105989380D01*
X97099380Y-105989380D01*
X97242238Y-105941761D01*
X97337476Y-105846523D01*
X97385095Y-105751285D01*
X97432714Y-105560809D01*
X97432714Y-105417952D01*
X97385095Y-105227476D01*
X97337476Y-105132238D01*
X97242238Y-105037000D01*
X97099380Y-104989380D01*
X97004142Y-104989380D01*
X96861285Y-105037000D01*
X96813666Y-105084619D01*
X95956523Y-104989380D02*
X96147000Y-104989380D01*
X96242238Y-105037000D01*
X96289857Y-105084619D01*
X96385095Y-105227476D01*
X96432714Y-105417952D01*
X96432714Y-105798904D01*
X96385095Y-105894142D01*
X96337476Y-105941761D01*
X96242238Y-105989380D01*
X96051761Y-105989380D01*
X95956523Y-105941761D01*
X95908904Y-105894142D01*
X95861285Y-105798904D01*
X95861285Y-105560809D01*
X95908904Y-105465571D01*
X95956523Y-105417952D01*
X96051761Y-105370333D01*
X96242238Y-105370333D01*
X96337476Y-105417952D01*
X96385095Y-105465571D01*
X96432714Y-105560809D01*
X143549666Y-88368142D02*
X143597285Y-88415761D01*
X143740142Y-88463380D01*
X143835380Y-88463380D01*
X143978238Y-88415761D01*
X144073476Y-88320523D01*
X144121095Y-88225285D01*
X144168714Y-88034809D01*
X144168714Y-87891952D01*
X144121095Y-87701476D01*
X144073476Y-87606238D01*
X143978238Y-87511000D01*
X143835380Y-87463380D01*
X143740142Y-87463380D01*
X143597285Y-87511000D01*
X143549666Y-87558619D01*
X143216333Y-87463380D02*
X142549666Y-87463380D01*
X142978238Y-88463380D01*
X104560666Y-120499142D02*
X104608285Y-120546761D01*
X104751142Y-120594380D01*
X104846380Y-120594380D01*
X104989238Y-120546761D01*
X105084476Y-120451523D01*
X105132095Y-120356285D01*
X105179714Y-120165809D01*
X105179714Y-120022952D01*
X105132095Y-119832476D01*
X105084476Y-119737238D01*
X104989238Y-119642000D01*
X104846380Y-119594380D01*
X104751142Y-119594380D01*
X104608285Y-119642000D01*
X104560666Y-119689619D01*
X103989238Y-120022952D02*
X104084476Y-119975333D01*
X104132095Y-119927714D01*
X104179714Y-119832476D01*
X104179714Y-119784857D01*
X104132095Y-119689619D01*
X104084476Y-119642000D01*
X103989238Y-119594380D01*
X103798761Y-119594380D01*
X103703523Y-119642000D01*
X103655904Y-119689619D01*
X103608285Y-119784857D01*
X103608285Y-119832476D01*
X103655904Y-119927714D01*
X103703523Y-119975333D01*
X103798761Y-120022952D01*
X103989238Y-120022952D01*
X104084476Y-120070571D01*
X104132095Y-120118190D01*
X104179714Y-120213428D01*
X104179714Y-120403904D01*
X104132095Y-120499142D01*
X104084476Y-120546761D01*
X103989238Y-120594380D01*
X103798761Y-120594380D01*
X103703523Y-120546761D01*
X103655904Y-120499142D01*
X103608285Y-120403904D01*
X103608285Y-120213428D01*
X103655904Y-120118190D01*
X103703523Y-120070571D01*
X103798761Y-120022952D01*
X98782142Y-86193333D02*
X98829761Y-86145714D01*
X98877380Y-86002857D01*
X98877380Y-85907619D01*
X98829761Y-85764761D01*
X98734523Y-85669523D01*
X98639285Y-85621904D01*
X98448809Y-85574285D01*
X98305952Y-85574285D01*
X98115476Y-85621904D01*
X98020238Y-85669523D01*
X97925000Y-85764761D01*
X97877380Y-85907619D01*
X97877380Y-86002857D01*
X97925000Y-86145714D01*
X97972619Y-86193333D01*
X98877380Y-86669523D02*
X98877380Y-86860000D01*
X98829761Y-86955238D01*
X98782142Y-87002857D01*
X98639285Y-87098095D01*
X98448809Y-87145714D01*
X98067857Y-87145714D01*
X97972619Y-87098095D01*
X97925000Y-87050476D01*
X97877380Y-86955238D01*
X97877380Y-86764761D01*
X97925000Y-86669523D01*
X97972619Y-86621904D01*
X98067857Y-86574285D01*
X98305952Y-86574285D01*
X98401190Y-86621904D01*
X98448809Y-86669523D01*
X98496428Y-86764761D01*
X98496428Y-86955238D01*
X98448809Y-87050476D01*
X98401190Y-87098095D01*
X98305952Y-87145714D01*
X107672142Y-102100142D02*
X107719761Y-102052523D01*
X107767380Y-101909666D01*
X107767380Y-101814428D01*
X107719761Y-101671571D01*
X107624523Y-101576333D01*
X107529285Y-101528714D01*
X107338809Y-101481095D01*
X107195952Y-101481095D01*
X107005476Y-101528714D01*
X106910238Y-101576333D01*
X106815000Y-101671571D01*
X106767380Y-101814428D01*
X106767380Y-101909666D01*
X106815000Y-102052523D01*
X106862619Y-102100142D01*
X107767380Y-103052523D02*
X107767380Y-102481095D01*
X107767380Y-102766809D02*
X106767380Y-102766809D01*
X106910238Y-102671571D01*
X107005476Y-102576333D01*
X107053095Y-102481095D01*
X106767380Y-103671571D02*
X106767380Y-103766809D01*
X106815000Y-103862047D01*
X106862619Y-103909666D01*
X106957857Y-103957285D01*
X107148333Y-104004904D01*
X107386428Y-104004904D01*
X107576904Y-103957285D01*
X107672142Y-103909666D01*
X107719761Y-103862047D01*
X107767380Y-103766809D01*
X107767380Y-103671571D01*
X107719761Y-103576333D01*
X107672142Y-103528714D01*
X107576904Y-103481095D01*
X107386428Y-103433476D01*
X107148333Y-103433476D01*
X106957857Y-103481095D01*
X106862619Y-103528714D01*
X106815000Y-103576333D01*
X106767380Y-103671571D01*
X115419142Y-110863142D02*
X115466761Y-110815523D01*
X115514380Y-110672666D01*
X115514380Y-110577428D01*
X115466761Y-110434571D01*
X115371523Y-110339333D01*
X115276285Y-110291714D01*
X115085809Y-110244095D01*
X114942952Y-110244095D01*
X114752476Y-110291714D01*
X114657238Y-110339333D01*
X114562000Y-110434571D01*
X114514380Y-110577428D01*
X114514380Y-110672666D01*
X114562000Y-110815523D01*
X114609619Y-110863142D01*
X115514380Y-111815523D02*
X115514380Y-111244095D01*
X115514380Y-111529809D02*
X114514380Y-111529809D01*
X114657238Y-111434571D01*
X114752476Y-111339333D01*
X114800095Y-111244095D01*
X115514380Y-112767904D02*
X115514380Y-112196476D01*
X115514380Y-112482190D02*
X114514380Y-112482190D01*
X114657238Y-112386952D01*
X114752476Y-112291714D01*
X114800095Y-112196476D01*
X110212142Y-85717142D02*
X110259761Y-85669523D01*
X110307380Y-85526666D01*
X110307380Y-85431428D01*
X110259761Y-85288571D01*
X110164523Y-85193333D01*
X110069285Y-85145714D01*
X109878809Y-85098095D01*
X109735952Y-85098095D01*
X109545476Y-85145714D01*
X109450238Y-85193333D01*
X109355000Y-85288571D01*
X109307380Y-85431428D01*
X109307380Y-85526666D01*
X109355000Y-85669523D01*
X109402619Y-85717142D01*
X110307380Y-86669523D02*
X110307380Y-86098095D01*
X110307380Y-86383809D02*
X109307380Y-86383809D01*
X109450238Y-86288571D01*
X109545476Y-86193333D01*
X109593095Y-86098095D01*
X109402619Y-87050476D02*
X109355000Y-87098095D01*
X109307380Y-87193333D01*
X109307380Y-87431428D01*
X109355000Y-87526666D01*
X109402619Y-87574285D01*
X109497857Y-87621904D01*
X109593095Y-87621904D01*
X109735952Y-87574285D01*
X110307380Y-87002857D01*
X110307380Y-87621904D01*
X98020142Y-114673142D02*
X98067761Y-114625523D01*
X98115380Y-114482666D01*
X98115380Y-114387428D01*
X98067761Y-114244571D01*
X97972523Y-114149333D01*
X97877285Y-114101714D01*
X97686809Y-114054095D01*
X97543952Y-114054095D01*
X97353476Y-114101714D01*
X97258238Y-114149333D01*
X97163000Y-114244571D01*
X97115380Y-114387428D01*
X97115380Y-114482666D01*
X97163000Y-114625523D01*
X97210619Y-114673142D01*
X98115380Y-115625523D02*
X98115380Y-115054095D01*
X98115380Y-115339809D02*
X97115380Y-115339809D01*
X97258238Y-115244571D01*
X97353476Y-115149333D01*
X97401095Y-115054095D01*
X97115380Y-115958857D02*
X97115380Y-116577904D01*
X97496333Y-116244571D01*
X97496333Y-116387428D01*
X97543952Y-116482666D01*
X97591571Y-116530285D01*
X97686809Y-116577904D01*
X97924904Y-116577904D01*
X98020142Y-116530285D01*
X98067761Y-116482666D01*
X98115380Y-116387428D01*
X98115380Y-116101714D01*
X98067761Y-116006476D01*
X98020142Y-115958857D01*
X114784142Y-107942142D02*
X114831761Y-107894523D01*
X114879380Y-107751666D01*
X114879380Y-107656428D01*
X114831761Y-107513571D01*
X114736523Y-107418333D01*
X114641285Y-107370714D01*
X114450809Y-107323095D01*
X114307952Y-107323095D01*
X114117476Y-107370714D01*
X114022238Y-107418333D01*
X113927000Y-107513571D01*
X113879380Y-107656428D01*
X113879380Y-107751666D01*
X113927000Y-107894523D01*
X113974619Y-107942142D01*
X114879380Y-108894523D02*
X114879380Y-108323095D01*
X114879380Y-108608809D02*
X113879380Y-108608809D01*
X114022238Y-108513571D01*
X114117476Y-108418333D01*
X114165095Y-108323095D01*
X114212714Y-109751666D02*
X114879380Y-109751666D01*
X113831761Y-109513571D02*
X114546047Y-109275476D01*
X114546047Y-109894523D01*
X104556878Y-80810503D02*
X104604497Y-80858122D01*
X104747354Y-80905741D01*
X104842592Y-80905741D01*
X104985449Y-80858122D01*
X105080687Y-80762884D01*
X105128306Y-80667646D01*
X105175925Y-80477170D01*
X105175925Y-80334313D01*
X105128306Y-80143837D01*
X105080687Y-80048599D01*
X104985449Y-79953361D01*
X104842592Y-79905741D01*
X104747354Y-79905741D01*
X104604497Y-79953361D01*
X104556878Y-80000980D01*
X103604497Y-80905741D02*
X104175925Y-80905741D01*
X103890211Y-80905741D02*
X103890211Y-79905741D01*
X103985449Y-80048599D01*
X104080687Y-80143837D01*
X104175925Y-80191456D01*
X102699735Y-79905741D02*
X103175925Y-79905741D01*
X103223544Y-80381932D01*
X103175925Y-80334313D01*
X103080687Y-80286694D01*
X102842592Y-80286694D01*
X102747354Y-80334313D01*
X102699735Y-80381932D01*
X102652116Y-80477170D01*
X102652116Y-80715265D01*
X102699735Y-80810503D01*
X102747354Y-80858122D01*
X102842592Y-80905741D01*
X103080687Y-80905741D01*
X103175925Y-80858122D01*
X103223544Y-80810503D01*
X104556878Y-78778503D02*
X104604497Y-78826122D01*
X104747354Y-78873741D01*
X104842592Y-78873741D01*
X104985449Y-78826122D01*
X105080687Y-78730884D01*
X105128306Y-78635646D01*
X105175925Y-78445170D01*
X105175925Y-78302313D01*
X105128306Y-78111837D01*
X105080687Y-78016599D01*
X104985449Y-77921361D01*
X104842592Y-77873741D01*
X104747354Y-77873741D01*
X104604497Y-77921361D01*
X104556878Y-77968980D01*
X103604497Y-78873741D02*
X104175925Y-78873741D01*
X103890211Y-78873741D02*
X103890211Y-77873741D01*
X103985449Y-78016599D01*
X104080687Y-78111837D01*
X104175925Y-78159456D01*
X102747354Y-77873741D02*
X102937830Y-77873741D01*
X103033068Y-77921361D01*
X103080687Y-77968980D01*
X103175925Y-78111837D01*
X103223544Y-78302313D01*
X103223544Y-78683265D01*
X103175925Y-78778503D01*
X103128306Y-78826122D01*
X103033068Y-78873741D01*
X102842592Y-78873741D01*
X102747354Y-78826122D01*
X102699735Y-78778503D01*
X102652116Y-78683265D01*
X102652116Y-78445170D01*
X102699735Y-78349932D01*
X102747354Y-78302313D01*
X102842592Y-78254694D01*
X103033068Y-78254694D01*
X103128306Y-78302313D01*
X103175925Y-78349932D01*
X103223544Y-78445170D01*
X114911142Y-113657142D02*
X114958761Y-113609523D01*
X115006380Y-113466666D01*
X115006380Y-113371428D01*
X114958761Y-113228571D01*
X114863523Y-113133333D01*
X114768285Y-113085714D01*
X114577809Y-113038095D01*
X114434952Y-113038095D01*
X114244476Y-113085714D01*
X114149238Y-113133333D01*
X114054000Y-113228571D01*
X114006380Y-113371428D01*
X114006380Y-113466666D01*
X114054000Y-113609523D01*
X114101619Y-113657142D01*
X115006380Y-114609523D02*
X115006380Y-114038095D01*
X115006380Y-114323809D02*
X114006380Y-114323809D01*
X114149238Y-114228571D01*
X114244476Y-114133333D01*
X114292095Y-114038095D01*
X114434952Y-115180952D02*
X114387333Y-115085714D01*
X114339714Y-115038095D01*
X114244476Y-114990476D01*
X114196857Y-114990476D01*
X114101619Y-115038095D01*
X114054000Y-115085714D01*
X114006380Y-115180952D01*
X114006380Y-115371428D01*
X114054000Y-115466666D01*
X114101619Y-115514285D01*
X114196857Y-115561904D01*
X114244476Y-115561904D01*
X114339714Y-115514285D01*
X114387333Y-115466666D01*
X114434952Y-115371428D01*
X114434952Y-115180952D01*
X114482571Y-115085714D01*
X114530190Y-115038095D01*
X114625428Y-114990476D01*
X114815904Y-114990476D01*
X114911142Y-115038095D01*
X114958761Y-115085714D01*
X115006380Y-115180952D01*
X115006380Y-115371428D01*
X114958761Y-115466666D01*
X114911142Y-115514285D01*
X114815904Y-115561904D01*
X114625428Y-115561904D01*
X114530190Y-115514285D01*
X114482571Y-115466666D01*
X114434952Y-115371428D01*
X154159142Y-109327142D02*
X154206761Y-109279523D01*
X154254380Y-109136666D01*
X154254380Y-109041428D01*
X154206761Y-108898571D01*
X154111523Y-108803333D01*
X154016285Y-108755714D01*
X153825809Y-108708095D01*
X153682952Y-108708095D01*
X153492476Y-108755714D01*
X153397238Y-108803333D01*
X153302000Y-108898571D01*
X153254380Y-109041428D01*
X153254380Y-109136666D01*
X153302000Y-109279523D01*
X153349619Y-109327142D01*
X154254380Y-110279523D02*
X154254380Y-109708095D01*
X154254380Y-109993809D02*
X153254380Y-109993809D01*
X153397238Y-109898571D01*
X153492476Y-109803333D01*
X153540095Y-109708095D01*
X154254380Y-110755714D02*
X154254380Y-110946190D01*
X154206761Y-111041428D01*
X154159142Y-111089047D01*
X154016285Y-111184285D01*
X153825809Y-111231904D01*
X153444857Y-111231904D01*
X153349619Y-111184285D01*
X153302000Y-111136666D01*
X153254380Y-111041428D01*
X153254380Y-110850952D01*
X153302000Y-110755714D01*
X153349619Y-110708095D01*
X153444857Y-110660476D01*
X153682952Y-110660476D01*
X153778190Y-110708095D01*
X153825809Y-110755714D01*
X153873428Y-110850952D01*
X153873428Y-111041428D01*
X153825809Y-111136666D01*
X153778190Y-111184285D01*
X153682952Y-111231904D01*
X98020142Y-111244142D02*
X98067761Y-111196523D01*
X98115380Y-111053666D01*
X98115380Y-110958428D01*
X98067761Y-110815571D01*
X97972523Y-110720333D01*
X97877285Y-110672714D01*
X97686809Y-110625095D01*
X97543952Y-110625095D01*
X97353476Y-110672714D01*
X97258238Y-110720333D01*
X97163000Y-110815571D01*
X97115380Y-110958428D01*
X97115380Y-111053666D01*
X97163000Y-111196523D01*
X97210619Y-111244142D01*
X97210619Y-111625095D02*
X97163000Y-111672714D01*
X97115380Y-111767952D01*
X97115380Y-112006047D01*
X97163000Y-112101285D01*
X97210619Y-112148904D01*
X97305857Y-112196523D01*
X97401095Y-112196523D01*
X97543952Y-112148904D01*
X98115380Y-111577476D01*
X98115380Y-112196523D01*
X97115380Y-112815571D02*
X97115380Y-112910809D01*
X97163000Y-113006047D01*
X97210619Y-113053666D01*
X97305857Y-113101285D01*
X97496333Y-113148904D01*
X97734428Y-113148904D01*
X97924904Y-113101285D01*
X98020142Y-113053666D01*
X98067761Y-113006047D01*
X98115380Y-112910809D01*
X98115380Y-112815571D01*
X98067761Y-112720333D01*
X98020142Y-112672714D01*
X97924904Y-112625095D01*
X97734428Y-112577476D01*
X97496333Y-112577476D01*
X97305857Y-112625095D01*
X97210619Y-112672714D01*
X97163000Y-112720333D01*
X97115380Y-112815571D01*
X112148857Y-121769142D02*
X112196476Y-121816761D01*
X112339333Y-121864380D01*
X112434571Y-121864380D01*
X112577428Y-121816761D01*
X112672666Y-121721523D01*
X112720285Y-121626285D01*
X112767904Y-121435809D01*
X112767904Y-121292952D01*
X112720285Y-121102476D01*
X112672666Y-121007238D01*
X112577428Y-120912000D01*
X112434571Y-120864380D01*
X112339333Y-120864380D01*
X112196476Y-120912000D01*
X112148857Y-120959619D01*
X111767904Y-120959619D02*
X111720285Y-120912000D01*
X111625047Y-120864380D01*
X111386952Y-120864380D01*
X111291714Y-120912000D01*
X111244095Y-120959619D01*
X111196476Y-121054857D01*
X111196476Y-121150095D01*
X111244095Y-121292952D01*
X111815523Y-121864380D01*
X111196476Y-121864380D01*
X110244095Y-121864380D02*
X110815523Y-121864380D01*
X110529809Y-121864380D02*
X110529809Y-120864380D01*
X110625047Y-121007238D01*
X110720285Y-121102476D01*
X110815523Y-121150095D01*
X141993857Y-113509142D02*
X142041476Y-113556761D01*
X142184333Y-113604380D01*
X142279571Y-113604380D01*
X142422428Y-113556761D01*
X142517666Y-113461523D01*
X142565285Y-113366285D01*
X142612904Y-113175809D01*
X142612904Y-113032952D01*
X142565285Y-112842476D01*
X142517666Y-112747238D01*
X142422428Y-112652000D01*
X142279571Y-112604380D01*
X142184333Y-112604380D01*
X142041476Y-112652000D01*
X141993857Y-112699619D01*
X141612904Y-112699619D02*
X141565285Y-112652000D01*
X141470047Y-112604380D01*
X141231952Y-112604380D01*
X141136714Y-112652000D01*
X141089095Y-112699619D01*
X141041476Y-112794857D01*
X141041476Y-112890095D01*
X141089095Y-113032952D01*
X141660523Y-113604380D01*
X141041476Y-113604380D01*
X140660523Y-112699619D02*
X140612904Y-112652000D01*
X140517666Y-112604380D01*
X140279571Y-112604380D01*
X140184333Y-112652000D01*
X140136714Y-112699619D01*
X140089095Y-112794857D01*
X140089095Y-112890095D01*
X140136714Y-113032952D01*
X140708142Y-113604380D01*
X140089095Y-113604380D01*
X141993857Y-108175142D02*
X142041476Y-108222761D01*
X142184333Y-108270380D01*
X142279571Y-108270380D01*
X142422428Y-108222761D01*
X142517666Y-108127523D01*
X142565285Y-108032285D01*
X142612904Y-107841809D01*
X142612904Y-107698952D01*
X142565285Y-107508476D01*
X142517666Y-107413238D01*
X142422428Y-107318000D01*
X142279571Y-107270380D01*
X142184333Y-107270380D01*
X142041476Y-107318000D01*
X141993857Y-107365619D01*
X141612904Y-107365619D02*
X141565285Y-107318000D01*
X141470047Y-107270380D01*
X141231952Y-107270380D01*
X141136714Y-107318000D01*
X141089095Y-107365619D01*
X141041476Y-107460857D01*
X141041476Y-107556095D01*
X141089095Y-107698952D01*
X141660523Y-108270380D01*
X141041476Y-108270380D01*
X140708142Y-107270380D02*
X140089095Y-107270380D01*
X140422428Y-107651333D01*
X140279571Y-107651333D01*
X140184333Y-107698952D01*
X140136714Y-107746571D01*
X140089095Y-107841809D01*
X140089095Y-108079904D01*
X140136714Y-108175142D01*
X140184333Y-108222761D01*
X140279571Y-108270380D01*
X140565285Y-108270380D01*
X140660523Y-108222761D01*
X140708142Y-108175142D01*
X98020142Y-107815142D02*
X98067761Y-107767523D01*
X98115380Y-107624666D01*
X98115380Y-107529428D01*
X98067761Y-107386571D01*
X97972523Y-107291333D01*
X97877285Y-107243714D01*
X97686809Y-107196095D01*
X97543952Y-107196095D01*
X97353476Y-107243714D01*
X97258238Y-107291333D01*
X97163000Y-107386571D01*
X97115380Y-107529428D01*
X97115380Y-107624666D01*
X97163000Y-107767523D01*
X97210619Y-107815142D01*
X97210619Y-108196095D02*
X97163000Y-108243714D01*
X97115380Y-108338952D01*
X97115380Y-108577047D01*
X97163000Y-108672285D01*
X97210619Y-108719904D01*
X97305857Y-108767523D01*
X97401095Y-108767523D01*
X97543952Y-108719904D01*
X98115380Y-108148476D01*
X98115380Y-108767523D01*
X97448714Y-109624666D02*
X98115380Y-109624666D01*
X97067761Y-109386571D02*
X97782047Y-109148476D01*
X97782047Y-109767523D01*
X92432142Y-120896142D02*
X92479761Y-120848523D01*
X92527380Y-120705666D01*
X92527380Y-120610428D01*
X92479761Y-120467571D01*
X92384523Y-120372333D01*
X92289285Y-120324714D01*
X92098809Y-120277095D01*
X91955952Y-120277095D01*
X91765476Y-120324714D01*
X91670238Y-120372333D01*
X91575000Y-120467571D01*
X91527380Y-120610428D01*
X91527380Y-120705666D01*
X91575000Y-120848523D01*
X91622619Y-120896142D01*
X91622619Y-121277095D02*
X91575000Y-121324714D01*
X91527380Y-121419952D01*
X91527380Y-121658047D01*
X91575000Y-121753285D01*
X91622619Y-121800904D01*
X91717857Y-121848523D01*
X91813095Y-121848523D01*
X91955952Y-121800904D01*
X92527380Y-121229476D01*
X92527380Y-121848523D01*
X91527380Y-122753285D02*
X91527380Y-122277095D01*
X92003571Y-122229476D01*
X91955952Y-122277095D01*
X91908333Y-122372333D01*
X91908333Y-122610428D01*
X91955952Y-122705666D01*
X92003571Y-122753285D01*
X92098809Y-122800904D01*
X92336904Y-122800904D01*
X92432142Y-122753285D01*
X92479761Y-122705666D01*
X92527380Y-122610428D01*
X92527380Y-122372333D01*
X92479761Y-122277095D01*
X92432142Y-122229476D01*
X151174142Y-116959142D02*
X151221761Y-116911523D01*
X151269380Y-116768666D01*
X151269380Y-116673428D01*
X151221761Y-116530571D01*
X151126523Y-116435333D01*
X151031285Y-116387714D01*
X150840809Y-116340095D01*
X150697952Y-116340095D01*
X150507476Y-116387714D01*
X150412238Y-116435333D01*
X150317000Y-116530571D01*
X150269380Y-116673428D01*
X150269380Y-116768666D01*
X150317000Y-116911523D01*
X150364619Y-116959142D01*
X150364619Y-117340095D02*
X150317000Y-117387714D01*
X150269380Y-117482952D01*
X150269380Y-117721047D01*
X150317000Y-117816285D01*
X150364619Y-117863904D01*
X150459857Y-117911523D01*
X150555095Y-117911523D01*
X150697952Y-117863904D01*
X151269380Y-117292476D01*
X151269380Y-117911523D01*
X150269380Y-118768666D02*
X150269380Y-118578190D01*
X150317000Y-118482952D01*
X150364619Y-118435333D01*
X150507476Y-118340095D01*
X150697952Y-118292476D01*
X151078904Y-118292476D01*
X151174142Y-118340095D01*
X151221761Y-118387714D01*
X151269380Y-118482952D01*
X151269380Y-118673428D01*
X151221761Y-118768666D01*
X151174142Y-118816285D01*
X151078904Y-118863904D01*
X150840809Y-118863904D01*
X150745571Y-118816285D01*
X150697952Y-118768666D01*
X150650333Y-118673428D01*
X150650333Y-118482952D01*
X150697952Y-118387714D01*
X150745571Y-118340095D01*
X150840809Y-118292476D01*
X103258857Y-92686142D02*
X103306476Y-92733761D01*
X103449333Y-92781380D01*
X103544571Y-92781380D01*
X103687428Y-92733761D01*
X103782666Y-92638523D01*
X103830285Y-92543285D01*
X103877904Y-92352809D01*
X103877904Y-92209952D01*
X103830285Y-92019476D01*
X103782666Y-91924238D01*
X103687428Y-91829000D01*
X103544571Y-91781380D01*
X103449333Y-91781380D01*
X103306476Y-91829000D01*
X103258857Y-91876619D01*
X102877904Y-91876619D02*
X102830285Y-91829000D01*
X102735047Y-91781380D01*
X102496952Y-91781380D01*
X102401714Y-91829000D01*
X102354095Y-91876619D01*
X102306476Y-91971857D01*
X102306476Y-92067095D01*
X102354095Y-92209952D01*
X102925523Y-92781380D01*
X102306476Y-92781380D01*
X101973142Y-91781380D02*
X101306476Y-91781380D01*
X101735047Y-92781380D01*
X147423142Y-88257142D02*
X147470761Y-88209523D01*
X147518380Y-88066666D01*
X147518380Y-87971428D01*
X147470761Y-87828571D01*
X147375523Y-87733333D01*
X147280285Y-87685714D01*
X147089809Y-87638095D01*
X146946952Y-87638095D01*
X146756476Y-87685714D01*
X146661238Y-87733333D01*
X146566000Y-87828571D01*
X146518380Y-87971428D01*
X146518380Y-88066666D01*
X146566000Y-88209523D01*
X146613619Y-88257142D01*
X146613619Y-88638095D02*
X146566000Y-88685714D01*
X146518380Y-88780952D01*
X146518380Y-89019047D01*
X146566000Y-89114285D01*
X146613619Y-89161904D01*
X146708857Y-89209523D01*
X146804095Y-89209523D01*
X146946952Y-89161904D01*
X147518380Y-88590476D01*
X147518380Y-89209523D01*
X146946952Y-89780952D02*
X146899333Y-89685714D01*
X146851714Y-89638095D01*
X146756476Y-89590476D01*
X146708857Y-89590476D01*
X146613619Y-89638095D01*
X146566000Y-89685714D01*
X146518380Y-89780952D01*
X146518380Y-89971428D01*
X146566000Y-90066666D01*
X146613619Y-90114285D01*
X146708857Y-90161904D01*
X146756476Y-90161904D01*
X146851714Y-90114285D01*
X146899333Y-90066666D01*
X146946952Y-89971428D01*
X146946952Y-89780952D01*
X146994571Y-89685714D01*
X147042190Y-89638095D01*
X147137428Y-89590476D01*
X147327904Y-89590476D01*
X147423142Y-89638095D01*
X147470761Y-89685714D01*
X147518380Y-89780952D01*
X147518380Y-89971428D01*
X147470761Y-90066666D01*
X147423142Y-90114285D01*
X147327904Y-90161904D01*
X147137428Y-90161904D01*
X147042190Y-90114285D01*
X146994571Y-90066666D01*
X146946952Y-89971428D01*
X146946857Y-98401142D02*
X146994476Y-98448761D01*
X147137333Y-98496380D01*
X147232571Y-98496380D01*
X147375428Y-98448761D01*
X147470666Y-98353523D01*
X147518285Y-98258285D01*
X147565904Y-98067809D01*
X147565904Y-97924952D01*
X147518285Y-97734476D01*
X147470666Y-97639238D01*
X147375428Y-97544000D01*
X147232571Y-97496380D01*
X147137333Y-97496380D01*
X146994476Y-97544000D01*
X146946857Y-97591619D01*
X146565904Y-97591619D02*
X146518285Y-97544000D01*
X146423047Y-97496380D01*
X146184952Y-97496380D01*
X146089714Y-97544000D01*
X146042095Y-97591619D01*
X145994476Y-97686857D01*
X145994476Y-97782095D01*
X146042095Y-97924952D01*
X146613523Y-98496380D01*
X145994476Y-98496380D01*
X145518285Y-98496380D02*
X145327809Y-98496380D01*
X145232571Y-98448761D01*
X145184952Y-98401142D01*
X145089714Y-98258285D01*
X145042095Y-98067809D01*
X145042095Y-97686857D01*
X145089714Y-97591619D01*
X145137333Y-97544000D01*
X145232571Y-97496380D01*
X145423047Y-97496380D01*
X145518285Y-97544000D01*
X145565904Y-97591619D01*
X145613523Y-97686857D01*
X145613523Y-97924952D01*
X145565904Y-98020190D01*
X145518285Y-98067809D01*
X145423047Y-98115428D01*
X145232571Y-98115428D01*
X145137333Y-98067809D01*
X145089714Y-98020190D01*
X145042095Y-97924952D01*
X150598095Y-86812380D02*
X150598095Y-85812380D01*
X150217142Y-85812380D01*
X150121904Y-85860000D01*
X150074285Y-85907619D01*
X150026666Y-86002857D01*
X150026666Y-86145714D01*
X150074285Y-86240952D01*
X150121904Y-86288571D01*
X150217142Y-86336190D01*
X150598095Y-86336190D01*
X149074285Y-86812380D02*
X149645714Y-86812380D01*
X149360000Y-86812380D02*
X149360000Y-85812380D01*
X149455238Y-85955238D01*
X149550476Y-86050476D01*
X149645714Y-86098095D01*
X157456095Y-89733380D02*
X157456095Y-88733380D01*
X157075142Y-88733380D01*
X156979904Y-88781000D01*
X156932285Y-88828619D01*
X156884666Y-88923857D01*
X156884666Y-89066714D01*
X156932285Y-89161952D01*
X156979904Y-89209571D01*
X157075142Y-89257190D01*
X157456095Y-89257190D01*
X156503714Y-88828619D02*
X156456095Y-88781000D01*
X156360857Y-88733380D01*
X156122761Y-88733380D01*
X156027523Y-88781000D01*
X155979904Y-88828619D01*
X155932285Y-88923857D01*
X155932285Y-89019095D01*
X155979904Y-89161952D01*
X156551333Y-89733380D01*
X155932285Y-89733380D01*
D15*
X101842328Y-102080362D02*
X101842328Y-101579982D01*
X101651707Y-101579982D01*
X101604051Y-101603810D01*
X101580224Y-101627637D01*
X101556396Y-101675292D01*
X101556396Y-101746775D01*
X101580224Y-101794430D01*
X101604051Y-101818258D01*
X101651707Y-101842086D01*
X101842328Y-101842086D01*
X101389603Y-101579982D02*
X101079844Y-101579982D01*
X101246637Y-101770603D01*
X101175154Y-101770603D01*
X101127499Y-101794430D01*
X101103671Y-101818258D01*
X101079844Y-101865913D01*
X101079844Y-101985051D01*
X101103671Y-102032707D01*
X101127499Y-102056534D01*
X101175154Y-102080362D01*
X101318120Y-102080362D01*
X101365775Y-102056534D01*
X101389603Y-102032707D01*
D11*
X154916095Y-103068380D02*
X154916095Y-102068380D01*
X154535142Y-102068380D01*
X154439904Y-102116000D01*
X154392285Y-102163619D01*
X154344666Y-102258857D01*
X154344666Y-102401714D01*
X154392285Y-102496952D01*
X154439904Y-102544571D01*
X154535142Y-102592190D01*
X154916095Y-102592190D01*
X153487523Y-102401714D02*
X153487523Y-103068380D01*
X153725619Y-102020761D02*
X153963714Y-102735047D01*
X153344666Y-102735047D01*
X134750619Y-137204449D02*
X134703000Y-137109211D01*
X134607761Y-137013973D01*
X134464904Y-136871116D01*
X134417285Y-136775878D01*
X134417285Y-136680640D01*
X134655380Y-136728259D02*
X134607761Y-136633021D01*
X134512523Y-136537783D01*
X134322047Y-136490164D01*
X133988714Y-136490164D01*
X133798238Y-136537783D01*
X133703000Y-136633021D01*
X133655380Y-136728259D01*
X133655380Y-136918735D01*
X133703000Y-137013973D01*
X133798238Y-137109211D01*
X133988714Y-137156830D01*
X134322047Y-137156830D01*
X134512523Y-137109211D01*
X134607761Y-137013973D01*
X134655380Y-136918735D01*
X134655380Y-136728259D01*
X134655380Y-138109211D02*
X134655380Y-137537783D01*
X134655380Y-137823497D02*
X133655380Y-137823497D01*
X133798238Y-137728259D01*
X133893476Y-137633021D01*
X133941095Y-137537783D01*
X134750619Y-133648449D02*
X134703000Y-133553211D01*
X134607761Y-133457973D01*
X134464904Y-133315116D01*
X134417285Y-133219878D01*
X134417285Y-133124640D01*
X134655380Y-133172259D02*
X134607761Y-133077021D01*
X134512523Y-132981783D01*
X134322047Y-132934164D01*
X133988714Y-132934164D01*
X133798238Y-132981783D01*
X133703000Y-133077021D01*
X133655380Y-133172259D01*
X133655380Y-133362735D01*
X133703000Y-133457973D01*
X133798238Y-133553211D01*
X133988714Y-133600830D01*
X134322047Y-133600830D01*
X134512523Y-133553211D01*
X134607761Y-133457973D01*
X134655380Y-133362735D01*
X134655380Y-133172259D01*
X133750619Y-133981783D02*
X133703000Y-134029402D01*
X133655380Y-134124640D01*
X133655380Y-134362735D01*
X133703000Y-134457973D01*
X133750619Y-134505592D01*
X133845857Y-134553211D01*
X133941095Y-134553211D01*
X134083952Y-134505592D01*
X134655380Y-133934164D01*
X134655380Y-134553211D01*
X120471619Y-133648449D02*
X120424000Y-133553211D01*
X120328761Y-133457973D01*
X120185904Y-133315116D01*
X120138285Y-133219878D01*
X120138285Y-133124640D01*
X120376380Y-133172259D02*
X120328761Y-133077021D01*
X120233523Y-132981783D01*
X120043047Y-132934164D01*
X119709714Y-132934164D01*
X119519238Y-132981783D01*
X119424000Y-133077021D01*
X119376380Y-133172259D01*
X119376380Y-133362735D01*
X119424000Y-133457973D01*
X119519238Y-133553211D01*
X119709714Y-133600830D01*
X120043047Y-133600830D01*
X120233523Y-133553211D01*
X120328761Y-133457973D01*
X120376380Y-133362735D01*
X120376380Y-133172259D01*
X119376380Y-133934164D02*
X119376380Y-134553211D01*
X119757333Y-134219878D01*
X119757333Y-134362735D01*
X119804952Y-134457973D01*
X119852571Y-134505592D01*
X119947809Y-134553211D01*
X120185904Y-134553211D01*
X120281142Y-134505592D01*
X120328761Y-134457973D01*
X120376380Y-134362735D01*
X120376380Y-134077021D01*
X120328761Y-133981783D01*
X120281142Y-133934164D01*
X120471619Y-137204449D02*
X120424000Y-137109211D01*
X120328761Y-137013973D01*
X120185904Y-136871116D01*
X120138285Y-136775878D01*
X120138285Y-136680640D01*
X120376380Y-136728259D02*
X120328761Y-136633021D01*
X120233523Y-136537783D01*
X120043047Y-136490164D01*
X119709714Y-136490164D01*
X119519238Y-136537783D01*
X119424000Y-136633021D01*
X119376380Y-136728259D01*
X119376380Y-136918735D01*
X119424000Y-137013973D01*
X119519238Y-137109211D01*
X119709714Y-137156830D01*
X120043047Y-137156830D01*
X120233523Y-137109211D01*
X120328761Y-137013973D01*
X120376380Y-136918735D01*
X120376380Y-136728259D01*
X119709714Y-138013973D02*
X120376380Y-138013973D01*
X119328761Y-137775878D02*
X120043047Y-137537783D01*
X120043047Y-138156830D01*
X155395274Y-124590619D02*
X155490512Y-124543000D01*
X155585750Y-124447761D01*
X155728607Y-124304904D01*
X155823845Y-124257285D01*
X155919083Y-124257285D01*
X155871464Y-124495380D02*
X155966702Y-124447761D01*
X156061940Y-124352523D01*
X156109559Y-124162047D01*
X156109559Y-123828714D01*
X156061940Y-123638238D01*
X155966702Y-123543000D01*
X155871464Y-123495380D01*
X155680988Y-123495380D01*
X155585750Y-123543000D01*
X155490512Y-123638238D01*
X155442893Y-123828714D01*
X155442893Y-124162047D01*
X155490512Y-124352523D01*
X155585750Y-124447761D01*
X155680988Y-124495380D01*
X155871464Y-124495380D01*
X154538131Y-123495380D02*
X155014321Y-123495380D01*
X155061940Y-123971571D01*
X155014321Y-123923952D01*
X154919083Y-123876333D01*
X154680988Y-123876333D01*
X154585750Y-123923952D01*
X154538131Y-123971571D01*
X154490512Y-124066809D01*
X154490512Y-124304904D01*
X154538131Y-124400142D01*
X154585750Y-124447761D01*
X154680988Y-124495380D01*
X154919083Y-124495380D01*
X155014321Y-124447761D01*
X155061940Y-124400142D01*
X158951274Y-124608399D02*
X159046512Y-124560780D01*
X159141750Y-124465541D01*
X159284607Y-124322684D01*
X159379845Y-124275065D01*
X159475083Y-124275065D01*
X159427464Y-124513160D02*
X159522702Y-124465541D01*
X159617940Y-124370303D01*
X159665559Y-124179827D01*
X159665559Y-123846494D01*
X159617940Y-123656018D01*
X159522702Y-123560780D01*
X159427464Y-123513160D01*
X159236988Y-123513160D01*
X159141750Y-123560780D01*
X159046512Y-123656018D01*
X158998893Y-123846494D01*
X158998893Y-124179827D01*
X159046512Y-124370303D01*
X159141750Y-124465541D01*
X159236988Y-124513160D01*
X159427464Y-124513160D01*
X158141750Y-123513160D02*
X158332226Y-123513160D01*
X158427464Y-123560780D01*
X158475083Y-123608399D01*
X158570321Y-123751256D01*
X158617940Y-123941732D01*
X158617940Y-124322684D01*
X158570321Y-124417922D01*
X158522702Y-124465541D01*
X158427464Y-124513160D01*
X158236988Y-124513160D01*
X158141750Y-124465541D01*
X158094131Y-124417922D01*
X158046512Y-124322684D01*
X158046512Y-124084589D01*
X158094131Y-123989351D01*
X158141750Y-123941732D01*
X158236988Y-123894113D01*
X158427464Y-123894113D01*
X158522702Y-123941732D01*
X158570321Y-123989351D01*
X158617940Y-124084589D01*
X163452619Y-76231761D02*
X163405000Y-76136523D01*
X163309761Y-76041285D01*
X163166904Y-75898428D01*
X163119285Y-75803190D01*
X163119285Y-75707952D01*
X163357380Y-75755571D02*
X163309761Y-75660333D01*
X163214523Y-75565095D01*
X163024047Y-75517476D01*
X162690714Y-75517476D01*
X162500238Y-75565095D01*
X162405000Y-75660333D01*
X162357380Y-75755571D01*
X162357380Y-75946047D01*
X162405000Y-76041285D01*
X162500238Y-76136523D01*
X162690714Y-76184142D01*
X163024047Y-76184142D01*
X163214523Y-76136523D01*
X163309761Y-76041285D01*
X163357380Y-75946047D01*
X163357380Y-75755571D01*
X162357380Y-76517476D02*
X162357380Y-77184142D01*
X163357380Y-76755571D01*
X163452619Y-79787761D02*
X163405000Y-79692523D01*
X163309761Y-79597285D01*
X163166904Y-79454428D01*
X163119285Y-79359190D01*
X163119285Y-79263952D01*
X163357380Y-79311571D02*
X163309761Y-79216333D01*
X163214523Y-79121095D01*
X163024047Y-79073476D01*
X162690714Y-79073476D01*
X162500238Y-79121095D01*
X162405000Y-79216333D01*
X162357380Y-79311571D01*
X162357380Y-79502047D01*
X162405000Y-79597285D01*
X162500238Y-79692523D01*
X162690714Y-79740142D01*
X163024047Y-79740142D01*
X163214523Y-79692523D01*
X163309761Y-79597285D01*
X163357380Y-79502047D01*
X163357380Y-79311571D01*
X162785952Y-80311571D02*
X162738333Y-80216333D01*
X162690714Y-80168714D01*
X162595476Y-80121095D01*
X162547857Y-80121095D01*
X162452619Y-80168714D01*
X162405000Y-80216333D01*
X162357380Y-80311571D01*
X162357380Y-80502047D01*
X162405000Y-80597285D01*
X162452619Y-80644904D01*
X162547857Y-80692523D01*
X162595476Y-80692523D01*
X162690714Y-80644904D01*
X162738333Y-80597285D01*
X162785952Y-80502047D01*
X162785952Y-80311571D01*
X162833571Y-80216333D01*
X162881190Y-80168714D01*
X162976428Y-80121095D01*
X163166904Y-80121095D01*
X163262142Y-80168714D01*
X163309761Y-80216333D01*
X163357380Y-80311571D01*
X163357380Y-80502047D01*
X163309761Y-80597285D01*
X163262142Y-80644904D01*
X163166904Y-80692523D01*
X162976428Y-80692523D01*
X162881190Y-80644904D01*
X162833571Y-80597285D01*
X162785952Y-80502047D01*
X125552976Y-58114619D02*
X125648214Y-58067000D01*
X125743452Y-57971761D01*
X125886309Y-57828904D01*
X125981547Y-57781285D01*
X126076785Y-57781285D01*
X126029166Y-58019380D02*
X126124404Y-57971761D01*
X126219642Y-57876523D01*
X126267261Y-57686047D01*
X126267261Y-57352714D01*
X126219642Y-57162238D01*
X126124404Y-57067000D01*
X126029166Y-57019380D01*
X125838690Y-57019380D01*
X125743452Y-57067000D01*
X125648214Y-57162238D01*
X125600595Y-57352714D01*
X125600595Y-57686047D01*
X125648214Y-57876523D01*
X125743452Y-57971761D01*
X125838690Y-58019380D01*
X126029166Y-58019380D01*
X125124404Y-58019380D02*
X124933928Y-58019380D01*
X124838690Y-57971761D01*
X124791071Y-57924142D01*
X124695833Y-57781285D01*
X124648214Y-57590809D01*
X124648214Y-57209857D01*
X124695833Y-57114619D01*
X124743452Y-57067000D01*
X124838690Y-57019380D01*
X125029166Y-57019380D01*
X125124404Y-57067000D01*
X125172023Y-57114619D01*
X125219642Y-57209857D01*
X125219642Y-57447952D01*
X125172023Y-57543190D01*
X125124404Y-57590809D01*
X125029166Y-57638428D01*
X124838690Y-57638428D01*
X124743452Y-57590809D01*
X124695833Y-57543190D01*
X124648214Y-57447952D01*
X129585166Y-58114619D02*
X129680404Y-58067000D01*
X129775642Y-57971761D01*
X129918499Y-57828904D01*
X130013738Y-57781285D01*
X130108976Y-57781285D01*
X130061357Y-58019380D02*
X130156595Y-57971761D01*
X130251833Y-57876523D01*
X130299452Y-57686047D01*
X130299452Y-57352714D01*
X130251833Y-57162238D01*
X130156595Y-57067000D01*
X130061357Y-57019380D01*
X129870880Y-57019380D01*
X129775642Y-57067000D01*
X129680404Y-57162238D01*
X129632785Y-57352714D01*
X129632785Y-57686047D01*
X129680404Y-57876523D01*
X129775642Y-57971761D01*
X129870880Y-58019380D01*
X130061357Y-58019380D01*
X128680404Y-58019380D02*
X129251833Y-58019380D01*
X128966118Y-58019380D02*
X128966118Y-57019380D01*
X129061357Y-57162238D01*
X129156595Y-57257476D01*
X129251833Y-57305095D01*
X128061357Y-57019380D02*
X127966118Y-57019380D01*
X127870880Y-57067000D01*
X127823261Y-57114619D01*
X127775642Y-57209857D01*
X127728023Y-57400333D01*
X127728023Y-57638428D01*
X127775642Y-57828904D01*
X127823261Y-57924142D01*
X127870880Y-57971761D01*
X127966118Y-58019380D01*
X128061357Y-58019380D01*
X128156595Y-57971761D01*
X128204214Y-57924142D01*
X128251833Y-57828904D01*
X128299452Y-57638428D01*
X128299452Y-57400333D01*
X128251833Y-57209857D01*
X128204214Y-57114619D01*
X128156595Y-57067000D01*
X128061357Y-57019380D01*
X91007619Y-80179425D02*
X90960000Y-80084187D01*
X90864761Y-79988949D01*
X90721904Y-79846092D01*
X90674285Y-79750854D01*
X90674285Y-79655615D01*
X90912380Y-79703234D02*
X90864761Y-79607996D01*
X90769523Y-79512758D01*
X90579047Y-79465139D01*
X90245714Y-79465139D01*
X90055238Y-79512758D01*
X89960000Y-79607996D01*
X89912380Y-79703234D01*
X89912380Y-79893711D01*
X89960000Y-79988949D01*
X90055238Y-80084187D01*
X90245714Y-80131806D01*
X90579047Y-80131806D01*
X90769523Y-80084187D01*
X90864761Y-79988949D01*
X90912380Y-79893711D01*
X90912380Y-79703234D01*
X90912380Y-81084187D02*
X90912380Y-80512758D01*
X90912380Y-80798473D02*
X89912380Y-80798473D01*
X90055238Y-80703234D01*
X90150476Y-80607996D01*
X90198095Y-80512758D01*
X90912380Y-82036568D02*
X90912380Y-81465139D01*
X90912380Y-81750854D02*
X89912380Y-81750854D01*
X90055238Y-81655615D01*
X90150476Y-81560377D01*
X90198095Y-81465139D01*
X91007619Y-76623425D02*
X90960000Y-76528187D01*
X90864761Y-76432949D01*
X90721904Y-76290092D01*
X90674285Y-76194854D01*
X90674285Y-76099615D01*
X90912380Y-76147234D02*
X90864761Y-76051996D01*
X90769523Y-75956758D01*
X90579047Y-75909139D01*
X90245714Y-75909139D01*
X90055238Y-75956758D01*
X89960000Y-76051996D01*
X89912380Y-76147234D01*
X89912380Y-76337711D01*
X89960000Y-76432949D01*
X90055238Y-76528187D01*
X90245714Y-76575806D01*
X90579047Y-76575806D01*
X90769523Y-76528187D01*
X90864761Y-76432949D01*
X90912380Y-76337711D01*
X90912380Y-76147234D01*
X90912380Y-77528187D02*
X90912380Y-76956758D01*
X90912380Y-77242473D02*
X89912380Y-77242473D01*
X90055238Y-77147234D01*
X90150476Y-77051996D01*
X90198095Y-76956758D01*
X90007619Y-77909139D02*
X89960000Y-77956758D01*
X89912380Y-78051996D01*
X89912380Y-78290092D01*
X89960000Y-78385330D01*
X90007619Y-78432949D01*
X90102857Y-78480568D01*
X90198095Y-78480568D01*
X90340952Y-78432949D01*
X90912380Y-77861520D01*
X90912380Y-78480568D01*
X98742428Y-126531619D02*
X98837666Y-126484000D01*
X98932904Y-126388761D01*
X99075761Y-126245904D01*
X99171000Y-126198285D01*
X99266238Y-126198285D01*
X99218619Y-126436380D02*
X99313857Y-126388761D01*
X99409095Y-126293523D01*
X99456714Y-126103047D01*
X99456714Y-125769714D01*
X99409095Y-125579238D01*
X99313857Y-125484000D01*
X99218619Y-125436380D01*
X99028142Y-125436380D01*
X98932904Y-125484000D01*
X98837666Y-125579238D01*
X98790047Y-125769714D01*
X98790047Y-126103047D01*
X98837666Y-126293523D01*
X98932904Y-126388761D01*
X99028142Y-126436380D01*
X99218619Y-126436380D01*
X97837666Y-126436380D02*
X98409095Y-126436380D01*
X98123380Y-126436380D02*
X98123380Y-125436380D01*
X98218619Y-125579238D01*
X98313857Y-125674476D01*
X98409095Y-125722095D01*
X97504333Y-125436380D02*
X96885285Y-125436380D01*
X97218619Y-125817333D01*
X97075761Y-125817333D01*
X96980523Y-125864952D01*
X96932904Y-125912571D01*
X96885285Y-126007809D01*
X96885285Y-126245904D01*
X96932904Y-126341142D01*
X96980523Y-126388761D01*
X97075761Y-126436380D01*
X97361476Y-126436380D01*
X97456714Y-126388761D01*
X97504333Y-126341142D01*
X129071666Y-131770380D02*
X129405000Y-131294190D01*
X129643095Y-131770380D02*
X129643095Y-130770380D01*
X129262142Y-130770380D01*
X129166904Y-130818000D01*
X129119285Y-130865619D01*
X129071666Y-130960857D01*
X129071666Y-131103714D01*
X129119285Y-131198952D01*
X129166904Y-131246571D01*
X129262142Y-131294190D01*
X129643095Y-131294190D01*
X128119285Y-131770380D02*
X128690714Y-131770380D01*
X128405000Y-131770380D02*
X128405000Y-130770380D01*
X128500238Y-130913238D01*
X128595476Y-131008476D01*
X128690714Y-131056095D01*
X129071666Y-130373380D02*
X129405000Y-129897190D01*
X129643095Y-130373380D02*
X129643095Y-129373380D01*
X129262142Y-129373380D01*
X129166904Y-129421000D01*
X129119285Y-129468619D01*
X129071666Y-129563857D01*
X129071666Y-129706714D01*
X129119285Y-129801952D01*
X129166904Y-129849571D01*
X129262142Y-129897190D01*
X129643095Y-129897190D01*
X128690714Y-129468619D02*
X128643095Y-129421000D01*
X128547857Y-129373380D01*
X128309761Y-129373380D01*
X128214523Y-129421000D01*
X128166904Y-129468619D01*
X128119285Y-129563857D01*
X128119285Y-129659095D01*
X128166904Y-129801952D01*
X128738333Y-130373380D01*
X128119285Y-130373380D01*
X90114380Y-118578333D02*
X89638190Y-118245000D01*
X90114380Y-118006904D02*
X89114380Y-118006904D01*
X89114380Y-118387857D01*
X89162000Y-118483095D01*
X89209619Y-118530714D01*
X89304857Y-118578333D01*
X89447714Y-118578333D01*
X89542952Y-118530714D01*
X89590571Y-118483095D01*
X89638190Y-118387857D01*
X89638190Y-118006904D01*
X89114380Y-118911666D02*
X89114380Y-119530714D01*
X89495333Y-119197380D01*
X89495333Y-119340238D01*
X89542952Y-119435476D01*
X89590571Y-119483095D01*
X89685809Y-119530714D01*
X89923904Y-119530714D01*
X90019142Y-119483095D01*
X90066761Y-119435476D01*
X90114380Y-119340238D01*
X90114380Y-119054523D01*
X90066761Y-118959285D01*
X90019142Y-118911666D01*
X140628666Y-90114380D02*
X140962000Y-89638190D01*
X141200095Y-90114380D02*
X141200095Y-89114380D01*
X140819142Y-89114380D01*
X140723904Y-89162000D01*
X140676285Y-89209619D01*
X140628666Y-89304857D01*
X140628666Y-89447714D01*
X140676285Y-89542952D01*
X140723904Y-89590571D01*
X140819142Y-89638190D01*
X141200095Y-89638190D01*
X139771523Y-89447714D02*
X139771523Y-90114380D01*
X140009619Y-89066761D02*
X140247714Y-89781047D01*
X139628666Y-89781047D01*
X94845166Y-125097880D02*
X95178500Y-124621690D01*
X95416595Y-125097880D02*
X95416595Y-124097880D01*
X95035642Y-124097880D01*
X94940404Y-124145500D01*
X94892785Y-124193119D01*
X94845166Y-124288357D01*
X94845166Y-124431214D01*
X94892785Y-124526452D01*
X94940404Y-124574071D01*
X95035642Y-124621690D01*
X95416595Y-124621690D01*
X93940404Y-124097880D02*
X94416595Y-124097880D01*
X94464214Y-124574071D01*
X94416595Y-124526452D01*
X94321357Y-124478833D01*
X94083261Y-124478833D01*
X93988023Y-124526452D01*
X93940404Y-124574071D01*
X93892785Y-124669309D01*
X93892785Y-124907404D01*
X93940404Y-125002642D01*
X93988023Y-125050261D01*
X94083261Y-125097880D01*
X94321357Y-125097880D01*
X94416595Y-125050261D01*
X94464214Y-125002642D01*
X129071666Y-127579380D02*
X129405000Y-127103190D01*
X129643095Y-127579380D02*
X129643095Y-126579380D01*
X129262142Y-126579380D01*
X129166904Y-126627000D01*
X129119285Y-126674619D01*
X129071666Y-126769857D01*
X129071666Y-126912714D01*
X129119285Y-127007952D01*
X129166904Y-127055571D01*
X129262142Y-127103190D01*
X129643095Y-127103190D01*
X128214523Y-126579380D02*
X128405000Y-126579380D01*
X128500238Y-126627000D01*
X128547857Y-126674619D01*
X128643095Y-126817476D01*
X128690714Y-127007952D01*
X128690714Y-127388904D01*
X128643095Y-127484142D01*
X128595476Y-127531761D01*
X128500238Y-127579380D01*
X128309761Y-127579380D01*
X128214523Y-127531761D01*
X128166904Y-127484142D01*
X128119285Y-127388904D01*
X128119285Y-127150809D01*
X128166904Y-127055571D01*
X128214523Y-127007952D01*
X128309761Y-126960333D01*
X128500238Y-126960333D01*
X128595476Y-127007952D01*
X128643095Y-127055571D01*
X128690714Y-127150809D01*
X129071666Y-128976380D02*
X129405000Y-128500190D01*
X129643095Y-128976380D02*
X129643095Y-127976380D01*
X129262142Y-127976380D01*
X129166904Y-128024000D01*
X129119285Y-128071619D01*
X129071666Y-128166857D01*
X129071666Y-128309714D01*
X129119285Y-128404952D01*
X129166904Y-128452571D01*
X129262142Y-128500190D01*
X129643095Y-128500190D01*
X128738333Y-127976380D02*
X128071666Y-127976380D01*
X128500238Y-128976380D01*
X147867666Y-83637380D02*
X148201000Y-83161190D01*
X148439095Y-83637380D02*
X148439095Y-82637380D01*
X148058142Y-82637380D01*
X147962904Y-82685000D01*
X147915285Y-82732619D01*
X147867666Y-82827857D01*
X147867666Y-82970714D01*
X147915285Y-83065952D01*
X147962904Y-83113571D01*
X148058142Y-83161190D01*
X148439095Y-83161190D01*
X147296238Y-83065952D02*
X147391476Y-83018333D01*
X147439095Y-82970714D01*
X147486714Y-82875476D01*
X147486714Y-82827857D01*
X147439095Y-82732619D01*
X147391476Y-82685000D01*
X147296238Y-82637380D01*
X147105761Y-82637380D01*
X147010523Y-82685000D01*
X146962904Y-82732619D01*
X146915285Y-82827857D01*
X146915285Y-82875476D01*
X146962904Y-82970714D01*
X147010523Y-83018333D01*
X147105761Y-83065952D01*
X147296238Y-83065952D01*
X147391476Y-83113571D01*
X147439095Y-83161190D01*
X147486714Y-83256428D01*
X147486714Y-83446904D01*
X147439095Y-83542142D01*
X147391476Y-83589761D01*
X147296238Y-83637380D01*
X147105761Y-83637380D01*
X147010523Y-83589761D01*
X146962904Y-83542142D01*
X146915285Y-83446904D01*
X146915285Y-83256428D01*
X146962904Y-83161190D01*
X147010523Y-83113571D01*
X147105761Y-83065952D01*
X140755666Y-88463380D02*
X141089000Y-87987190D01*
X141327095Y-88463380D02*
X141327095Y-87463380D01*
X140946142Y-87463380D01*
X140850904Y-87511000D01*
X140803285Y-87558619D01*
X140755666Y-87653857D01*
X140755666Y-87796714D01*
X140803285Y-87891952D01*
X140850904Y-87939571D01*
X140946142Y-87987190D01*
X141327095Y-87987190D01*
X140279476Y-88463380D02*
X140089000Y-88463380D01*
X139993761Y-88415761D01*
X139946142Y-88368142D01*
X139850904Y-88225285D01*
X139803285Y-88034809D01*
X139803285Y-87653857D01*
X139850904Y-87558619D01*
X139898523Y-87511000D01*
X139993761Y-87463380D01*
X140184238Y-87463380D01*
X140279476Y-87511000D01*
X140327095Y-87558619D01*
X140374714Y-87653857D01*
X140374714Y-87891952D01*
X140327095Y-87987190D01*
X140279476Y-88034809D01*
X140184238Y-88082428D01*
X139993761Y-88082428D01*
X139898523Y-88034809D01*
X139850904Y-87987190D01*
X139803285Y-87891952D01*
X126626857Y-127579380D02*
X126960190Y-127103190D01*
X127198285Y-127579380D02*
X127198285Y-126579380D01*
X126817333Y-126579380D01*
X126722095Y-126627000D01*
X126674476Y-126674619D01*
X126626857Y-126769857D01*
X126626857Y-126912714D01*
X126674476Y-127007952D01*
X126722095Y-127055571D01*
X126817333Y-127103190D01*
X127198285Y-127103190D01*
X125674476Y-127579380D02*
X126245904Y-127579380D01*
X125960190Y-127579380D02*
X125960190Y-126579380D01*
X126055428Y-126722238D01*
X126150666Y-126817476D01*
X126245904Y-126865095D01*
X125055428Y-126579380D02*
X124960190Y-126579380D01*
X124864952Y-126627000D01*
X124817333Y-126674619D01*
X124769714Y-126769857D01*
X124722095Y-126960333D01*
X124722095Y-127198428D01*
X124769714Y-127388904D01*
X124817333Y-127484142D01*
X124864952Y-127531761D01*
X124960190Y-127579380D01*
X125055428Y-127579380D01*
X125150666Y-127531761D01*
X125198285Y-127484142D01*
X125245904Y-127388904D01*
X125293523Y-127198428D01*
X125293523Y-126960333D01*
X125245904Y-126769857D01*
X125198285Y-126674619D01*
X125150666Y-126627000D01*
X125055428Y-126579380D01*
X126626857Y-128976380D02*
X126960190Y-128500190D01*
X127198285Y-128976380D02*
X127198285Y-127976380D01*
X126817333Y-127976380D01*
X126722095Y-128024000D01*
X126674476Y-128071619D01*
X126626857Y-128166857D01*
X126626857Y-128309714D01*
X126674476Y-128404952D01*
X126722095Y-128452571D01*
X126817333Y-128500190D01*
X127198285Y-128500190D01*
X125674476Y-128976380D02*
X126245904Y-128976380D01*
X125960190Y-128976380D02*
X125960190Y-127976380D01*
X126055428Y-128119238D01*
X126150666Y-128214476D01*
X126245904Y-128262095D01*
X124722095Y-128976380D02*
X125293523Y-128976380D01*
X125007809Y-128976380D02*
X125007809Y-127976380D01*
X125103047Y-128119238D01*
X125198285Y-128214476D01*
X125293523Y-128262095D01*
X129293857Y-142057380D02*
X129627190Y-141581190D01*
X129865285Y-142057380D02*
X129865285Y-141057380D01*
X129484333Y-141057380D01*
X129389095Y-141105000D01*
X129341476Y-141152619D01*
X129293857Y-141247857D01*
X129293857Y-141390714D01*
X129341476Y-141485952D01*
X129389095Y-141533571D01*
X129484333Y-141581190D01*
X129865285Y-141581190D01*
X128341476Y-142057380D02*
X128912904Y-142057380D01*
X128627190Y-142057380D02*
X128627190Y-141057380D01*
X128722428Y-141200238D01*
X128817666Y-141295476D01*
X128912904Y-141343095D01*
X127960523Y-141152619D02*
X127912904Y-141105000D01*
X127817666Y-141057380D01*
X127579571Y-141057380D01*
X127484333Y-141105000D01*
X127436714Y-141152619D01*
X127389095Y-141247857D01*
X127389095Y-141343095D01*
X127436714Y-141485952D01*
X128008142Y-142057380D01*
X127389095Y-142057380D01*
X126118857Y-142057380D02*
X126452190Y-141581190D01*
X126690285Y-142057380D02*
X126690285Y-141057380D01*
X126309333Y-141057380D01*
X126214095Y-141105000D01*
X126166476Y-141152619D01*
X126118857Y-141247857D01*
X126118857Y-141390714D01*
X126166476Y-141485952D01*
X126214095Y-141533571D01*
X126309333Y-141581190D01*
X126690285Y-141581190D01*
X125166476Y-142057380D02*
X125737904Y-142057380D01*
X125452190Y-142057380D02*
X125452190Y-141057380D01*
X125547428Y-141200238D01*
X125642666Y-141295476D01*
X125737904Y-141343095D01*
X124833142Y-141057380D02*
X124214095Y-141057380D01*
X124547428Y-141438333D01*
X124404571Y-141438333D01*
X124309333Y-141485952D01*
X124261714Y-141533571D01*
X124214095Y-141628809D01*
X124214095Y-141866904D01*
X124261714Y-141962142D01*
X124309333Y-142009761D01*
X124404571Y-142057380D01*
X124690285Y-142057380D01*
X124785523Y-142009761D01*
X124833142Y-141962142D01*
X126626857Y-131770380D02*
X126960190Y-131294190D01*
X127198285Y-131770380D02*
X127198285Y-130770380D01*
X126817333Y-130770380D01*
X126722095Y-130818000D01*
X126674476Y-130865619D01*
X126626857Y-130960857D01*
X126626857Y-131103714D01*
X126674476Y-131198952D01*
X126722095Y-131246571D01*
X126817333Y-131294190D01*
X127198285Y-131294190D01*
X125674476Y-131770380D02*
X126245904Y-131770380D01*
X125960190Y-131770380D02*
X125960190Y-130770380D01*
X126055428Y-130913238D01*
X126150666Y-131008476D01*
X126245904Y-131056095D01*
X124817333Y-131103714D02*
X124817333Y-131770380D01*
X125055428Y-130722761D02*
X125293523Y-131437047D01*
X124674476Y-131437047D01*
X126626857Y-130373380D02*
X126960190Y-129897190D01*
X127198285Y-130373380D02*
X127198285Y-129373380D01*
X126817333Y-129373380D01*
X126722095Y-129421000D01*
X126674476Y-129468619D01*
X126626857Y-129563857D01*
X126626857Y-129706714D01*
X126674476Y-129801952D01*
X126722095Y-129849571D01*
X126817333Y-129897190D01*
X127198285Y-129897190D01*
X125674476Y-130373380D02*
X126245904Y-130373380D01*
X125960190Y-130373380D02*
X125960190Y-129373380D01*
X126055428Y-129516238D01*
X126150666Y-129611476D01*
X126245904Y-129659095D01*
X124769714Y-129373380D02*
X125245904Y-129373380D01*
X125293523Y-129849571D01*
X125245904Y-129801952D01*
X125150666Y-129754333D01*
X124912571Y-129754333D01*
X124817333Y-129801952D01*
X124769714Y-129849571D01*
X124722095Y-129944809D01*
X124722095Y-130182904D01*
X124769714Y-130278142D01*
X124817333Y-130325761D01*
X124912571Y-130373380D01*
X125150666Y-130373380D01*
X125245904Y-130325761D01*
X125293523Y-130278142D01*
X154884380Y-115054142D02*
X154408190Y-114720809D01*
X154884380Y-114482714D02*
X153884380Y-114482714D01*
X153884380Y-114863666D01*
X153932000Y-114958904D01*
X153979619Y-115006523D01*
X154074857Y-115054142D01*
X154217714Y-115054142D01*
X154312952Y-115006523D01*
X154360571Y-114958904D01*
X154408190Y-114863666D01*
X154408190Y-114482714D01*
X154884380Y-116006523D02*
X154884380Y-115435095D01*
X154884380Y-115720809D02*
X153884380Y-115720809D01*
X154027238Y-115625571D01*
X154122476Y-115530333D01*
X154170095Y-115435095D01*
X153884380Y-116863666D02*
X153884380Y-116673190D01*
X153932000Y-116577952D01*
X153979619Y-116530333D01*
X154122476Y-116435095D01*
X154312952Y-116387476D01*
X154693904Y-116387476D01*
X154789142Y-116435095D01*
X154836761Y-116482714D01*
X154884380Y-116577952D01*
X154884380Y-116768428D01*
X154836761Y-116863666D01*
X154789142Y-116911285D01*
X154693904Y-116958904D01*
X154455809Y-116958904D01*
X154360571Y-116911285D01*
X154312952Y-116863666D01*
X154265333Y-116768428D01*
X154265333Y-116577952D01*
X154312952Y-116482714D01*
X154360571Y-116435095D01*
X154455809Y-116387476D01*
X156789380Y-115054142D02*
X156313190Y-114720809D01*
X156789380Y-114482714D02*
X155789380Y-114482714D01*
X155789380Y-114863666D01*
X155837000Y-114958904D01*
X155884619Y-115006523D01*
X155979857Y-115054142D01*
X156122714Y-115054142D01*
X156217952Y-115006523D01*
X156265571Y-114958904D01*
X156313190Y-114863666D01*
X156313190Y-114482714D01*
X156789380Y-116006523D02*
X156789380Y-115435095D01*
X156789380Y-115720809D02*
X155789380Y-115720809D01*
X155932238Y-115625571D01*
X156027476Y-115530333D01*
X156075095Y-115435095D01*
X155789380Y-116339857D02*
X155789380Y-117006523D01*
X156789380Y-116577952D01*
X165869857Y-119959380D02*
X166203190Y-119483190D01*
X166441285Y-119959380D02*
X166441285Y-118959380D01*
X166060333Y-118959380D01*
X165965095Y-119007000D01*
X165917476Y-119054619D01*
X165869857Y-119149857D01*
X165869857Y-119292714D01*
X165917476Y-119387952D01*
X165965095Y-119435571D01*
X166060333Y-119483190D01*
X166441285Y-119483190D01*
X164917476Y-119959380D02*
X165488904Y-119959380D01*
X165203190Y-119959380D02*
X165203190Y-118959380D01*
X165298428Y-119102238D01*
X165393666Y-119197476D01*
X165488904Y-119245095D01*
X164346047Y-119387952D02*
X164441285Y-119340333D01*
X164488904Y-119292714D01*
X164536523Y-119197476D01*
X164536523Y-119149857D01*
X164488904Y-119054619D01*
X164441285Y-119007000D01*
X164346047Y-118959380D01*
X164155571Y-118959380D01*
X164060333Y-119007000D01*
X164012714Y-119054619D01*
X163965095Y-119149857D01*
X163965095Y-119197476D01*
X164012714Y-119292714D01*
X164060333Y-119340333D01*
X164155571Y-119387952D01*
X164346047Y-119387952D01*
X164441285Y-119435571D01*
X164488904Y-119483190D01*
X164536523Y-119578428D01*
X164536523Y-119768904D01*
X164488904Y-119864142D01*
X164441285Y-119911761D01*
X164346047Y-119959380D01*
X164155571Y-119959380D01*
X164060333Y-119911761D01*
X164012714Y-119864142D01*
X163965095Y-119768904D01*
X163965095Y-119578428D01*
X164012714Y-119483190D01*
X164060333Y-119435571D01*
X164155571Y-119387952D01*
X165869857Y-118308380D02*
X166203190Y-117832190D01*
X166441285Y-118308380D02*
X166441285Y-117308380D01*
X166060333Y-117308380D01*
X165965095Y-117356000D01*
X165917476Y-117403619D01*
X165869857Y-117498857D01*
X165869857Y-117641714D01*
X165917476Y-117736952D01*
X165965095Y-117784571D01*
X166060333Y-117832190D01*
X166441285Y-117832190D01*
X164917476Y-118308380D02*
X165488904Y-118308380D01*
X165203190Y-118308380D02*
X165203190Y-117308380D01*
X165298428Y-117451238D01*
X165393666Y-117546476D01*
X165488904Y-117594095D01*
X164441285Y-118308380D02*
X164250809Y-118308380D01*
X164155571Y-118260761D01*
X164107952Y-118213142D01*
X164012714Y-118070285D01*
X163965095Y-117879809D01*
X163965095Y-117498857D01*
X164012714Y-117403619D01*
X164060333Y-117356000D01*
X164155571Y-117308380D01*
X164346047Y-117308380D01*
X164441285Y-117356000D01*
X164488904Y-117403619D01*
X164536523Y-117498857D01*
X164536523Y-117736952D01*
X164488904Y-117832190D01*
X164441285Y-117879809D01*
X164346047Y-117927428D01*
X164155571Y-117927428D01*
X164060333Y-117879809D01*
X164012714Y-117832190D01*
X163965095Y-117736952D01*
X160218380Y-115054142D02*
X159742190Y-114720809D01*
X160218380Y-114482714D02*
X159218380Y-114482714D01*
X159218380Y-114863666D01*
X159266000Y-114958904D01*
X159313619Y-115006523D01*
X159408857Y-115054142D01*
X159551714Y-115054142D01*
X159646952Y-115006523D01*
X159694571Y-114958904D01*
X159742190Y-114863666D01*
X159742190Y-114482714D01*
X159313619Y-115435095D02*
X159266000Y-115482714D01*
X159218380Y-115577952D01*
X159218380Y-115816047D01*
X159266000Y-115911285D01*
X159313619Y-115958904D01*
X159408857Y-116006523D01*
X159504095Y-116006523D01*
X159646952Y-115958904D01*
X160218380Y-115387476D01*
X160218380Y-116006523D01*
X159218380Y-116625571D02*
X159218380Y-116720809D01*
X159266000Y-116816047D01*
X159313619Y-116863666D01*
X159408857Y-116911285D01*
X159599333Y-116958904D01*
X159837428Y-116958904D01*
X160027904Y-116911285D01*
X160123142Y-116863666D01*
X160170761Y-116816047D01*
X160218380Y-116720809D01*
X160218380Y-116625571D01*
X160170761Y-116530333D01*
X160123142Y-116482714D01*
X160027904Y-116435095D01*
X159837428Y-116387476D01*
X159599333Y-116387476D01*
X159408857Y-116435095D01*
X159313619Y-116482714D01*
X159266000Y-116530333D01*
X159218380Y-116625571D01*
X158440380Y-115054142D02*
X157964190Y-114720809D01*
X158440380Y-114482714D02*
X157440380Y-114482714D01*
X157440380Y-114863666D01*
X157488000Y-114958904D01*
X157535619Y-115006523D01*
X157630857Y-115054142D01*
X157773714Y-115054142D01*
X157868952Y-115006523D01*
X157916571Y-114958904D01*
X157964190Y-114863666D01*
X157964190Y-114482714D01*
X157535619Y-115435095D02*
X157488000Y-115482714D01*
X157440380Y-115577952D01*
X157440380Y-115816047D01*
X157488000Y-115911285D01*
X157535619Y-115958904D01*
X157630857Y-116006523D01*
X157726095Y-116006523D01*
X157868952Y-115958904D01*
X158440380Y-115387476D01*
X158440380Y-116006523D01*
X158440380Y-116958904D02*
X158440380Y-116387476D01*
X158440380Y-116673190D02*
X157440380Y-116673190D01*
X157583238Y-116577952D01*
X157678476Y-116482714D01*
X157726095Y-116387476D01*
X155201857Y-77668380D02*
X155535190Y-77192190D01*
X155773285Y-77668380D02*
X155773285Y-76668380D01*
X155392333Y-76668380D01*
X155297095Y-76716000D01*
X155249476Y-76763619D01*
X155201857Y-76858857D01*
X155201857Y-77001714D01*
X155249476Y-77096952D01*
X155297095Y-77144571D01*
X155392333Y-77192190D01*
X155773285Y-77192190D01*
X154820904Y-76763619D02*
X154773285Y-76716000D01*
X154678047Y-76668380D01*
X154439952Y-76668380D01*
X154344714Y-76716000D01*
X154297095Y-76763619D01*
X154249476Y-76858857D01*
X154249476Y-76954095D01*
X154297095Y-77096952D01*
X154868523Y-77668380D01*
X154249476Y-77668380D01*
X153868523Y-76763619D02*
X153820904Y-76716000D01*
X153725666Y-76668380D01*
X153487571Y-76668380D01*
X153392333Y-76716000D01*
X153344714Y-76763619D01*
X153297095Y-76858857D01*
X153297095Y-76954095D01*
X153344714Y-77096952D01*
X153916142Y-77668380D01*
X153297095Y-77668380D01*
X155201857Y-75890380D02*
X155535190Y-75414190D01*
X155773285Y-75890380D02*
X155773285Y-74890380D01*
X155392333Y-74890380D01*
X155297095Y-74938000D01*
X155249476Y-74985619D01*
X155201857Y-75080857D01*
X155201857Y-75223714D01*
X155249476Y-75318952D01*
X155297095Y-75366571D01*
X155392333Y-75414190D01*
X155773285Y-75414190D01*
X154820904Y-74985619D02*
X154773285Y-74938000D01*
X154678047Y-74890380D01*
X154439952Y-74890380D01*
X154344714Y-74938000D01*
X154297095Y-74985619D01*
X154249476Y-75080857D01*
X154249476Y-75176095D01*
X154297095Y-75318952D01*
X154868523Y-75890380D01*
X154249476Y-75890380D01*
X153916142Y-74890380D02*
X153297095Y-74890380D01*
X153630428Y-75271333D01*
X153487571Y-75271333D01*
X153392333Y-75318952D01*
X153344714Y-75366571D01*
X153297095Y-75461809D01*
X153297095Y-75699904D01*
X153344714Y-75795142D01*
X153392333Y-75842761D01*
X153487571Y-75890380D01*
X153773285Y-75890380D01*
X153868523Y-75842761D01*
X153916142Y-75795142D01*
X155201857Y-83129380D02*
X155535190Y-82653190D01*
X155773285Y-83129380D02*
X155773285Y-82129380D01*
X155392333Y-82129380D01*
X155297095Y-82177000D01*
X155249476Y-82224619D01*
X155201857Y-82319857D01*
X155201857Y-82462714D01*
X155249476Y-82557952D01*
X155297095Y-82605571D01*
X155392333Y-82653190D01*
X155773285Y-82653190D01*
X154820904Y-82224619D02*
X154773285Y-82177000D01*
X154678047Y-82129380D01*
X154439952Y-82129380D01*
X154344714Y-82177000D01*
X154297095Y-82224619D01*
X154249476Y-82319857D01*
X154249476Y-82415095D01*
X154297095Y-82557952D01*
X154868523Y-83129380D01*
X154249476Y-83129380D01*
X153392333Y-82462714D02*
X153392333Y-83129380D01*
X153630428Y-82081761D02*
X153868523Y-82796047D01*
X153249476Y-82796047D01*
X155201857Y-74112380D02*
X155535190Y-73636190D01*
X155773285Y-74112380D02*
X155773285Y-73112380D01*
X155392333Y-73112380D01*
X155297095Y-73160000D01*
X155249476Y-73207619D01*
X155201857Y-73302857D01*
X155201857Y-73445714D01*
X155249476Y-73540952D01*
X155297095Y-73588571D01*
X155392333Y-73636190D01*
X155773285Y-73636190D01*
X154820904Y-73207619D02*
X154773285Y-73160000D01*
X154678047Y-73112380D01*
X154439952Y-73112380D01*
X154344714Y-73160000D01*
X154297095Y-73207619D01*
X154249476Y-73302857D01*
X154249476Y-73398095D01*
X154297095Y-73540952D01*
X154868523Y-74112380D01*
X154249476Y-74112380D01*
X153344714Y-73112380D02*
X153820904Y-73112380D01*
X153868523Y-73588571D01*
X153820904Y-73540952D01*
X153725666Y-73493333D01*
X153487571Y-73493333D01*
X153392333Y-73540952D01*
X153344714Y-73588571D01*
X153297095Y-73683809D01*
X153297095Y-73921904D01*
X153344714Y-74017142D01*
X153392333Y-74064761D01*
X153487571Y-74112380D01*
X153725666Y-74112380D01*
X153820904Y-74064761D01*
X153868523Y-74017142D01*
X155201857Y-79573380D02*
X155535190Y-79097190D01*
X155773285Y-79573380D02*
X155773285Y-78573380D01*
X155392333Y-78573380D01*
X155297095Y-78621000D01*
X155249476Y-78668619D01*
X155201857Y-78763857D01*
X155201857Y-78906714D01*
X155249476Y-79001952D01*
X155297095Y-79049571D01*
X155392333Y-79097190D01*
X155773285Y-79097190D01*
X154820904Y-78668619D02*
X154773285Y-78621000D01*
X154678047Y-78573380D01*
X154439952Y-78573380D01*
X154344714Y-78621000D01*
X154297095Y-78668619D01*
X154249476Y-78763857D01*
X154249476Y-78859095D01*
X154297095Y-79001952D01*
X154868523Y-79573380D01*
X154249476Y-79573380D01*
X153392333Y-78573380D02*
X153582809Y-78573380D01*
X153678047Y-78621000D01*
X153725666Y-78668619D01*
X153820904Y-78811476D01*
X153868523Y-79001952D01*
X153868523Y-79382904D01*
X153820904Y-79478142D01*
X153773285Y-79525761D01*
X153678047Y-79573380D01*
X153487571Y-79573380D01*
X153392333Y-79525761D01*
X153344714Y-79478142D01*
X153297095Y-79382904D01*
X153297095Y-79144809D01*
X153344714Y-79049571D01*
X153392333Y-79001952D01*
X153487571Y-78954333D01*
X153678047Y-78954333D01*
X153773285Y-79001952D01*
X153820904Y-79049571D01*
X153868523Y-79144809D01*
X155201857Y-81224380D02*
X155535190Y-80748190D01*
X155773285Y-81224380D02*
X155773285Y-80224380D01*
X155392333Y-80224380D01*
X155297095Y-80272000D01*
X155249476Y-80319619D01*
X155201857Y-80414857D01*
X155201857Y-80557714D01*
X155249476Y-80652952D01*
X155297095Y-80700571D01*
X155392333Y-80748190D01*
X155773285Y-80748190D01*
X154820904Y-80319619D02*
X154773285Y-80272000D01*
X154678047Y-80224380D01*
X154439952Y-80224380D01*
X154344714Y-80272000D01*
X154297095Y-80319619D01*
X154249476Y-80414857D01*
X154249476Y-80510095D01*
X154297095Y-80652952D01*
X154868523Y-81224380D01*
X154249476Y-81224380D01*
X153916142Y-80224380D02*
X153249476Y-80224380D01*
X153678047Y-81224380D01*
X144279857Y-90114380D02*
X144613190Y-89638190D01*
X144851285Y-90114380D02*
X144851285Y-89114380D01*
X144470333Y-89114380D01*
X144375095Y-89162000D01*
X144327476Y-89209619D01*
X144279857Y-89304857D01*
X144279857Y-89447714D01*
X144327476Y-89542952D01*
X144375095Y-89590571D01*
X144470333Y-89638190D01*
X144851285Y-89638190D01*
X143898904Y-89209619D02*
X143851285Y-89162000D01*
X143756047Y-89114380D01*
X143517952Y-89114380D01*
X143422714Y-89162000D01*
X143375095Y-89209619D01*
X143327476Y-89304857D01*
X143327476Y-89400095D01*
X143375095Y-89542952D01*
X143946523Y-90114380D01*
X143327476Y-90114380D01*
X142756047Y-89542952D02*
X142851285Y-89495333D01*
X142898904Y-89447714D01*
X142946523Y-89352476D01*
X142946523Y-89304857D01*
X142898904Y-89209619D01*
X142851285Y-89162000D01*
X142756047Y-89114380D01*
X142565571Y-89114380D01*
X142470333Y-89162000D01*
X142422714Y-89209619D01*
X142375095Y-89304857D01*
X142375095Y-89352476D01*
X142422714Y-89447714D01*
X142470333Y-89495333D01*
X142565571Y-89542952D01*
X142756047Y-89542952D01*
X142851285Y-89590571D01*
X142898904Y-89638190D01*
X142946523Y-89733428D01*
X142946523Y-89923904D01*
X142898904Y-90019142D01*
X142851285Y-90066761D01*
X142756047Y-90114380D01*
X142565571Y-90114380D01*
X142470333Y-90066761D01*
X142422714Y-90019142D01*
X142375095Y-89923904D01*
X142375095Y-89733428D01*
X142422714Y-89638190D01*
X142470333Y-89590571D01*
X142565571Y-89542952D01*
X126817380Y-65143142D02*
X126341190Y-64809809D01*
X126817380Y-64571714D02*
X125817380Y-64571714D01*
X125817380Y-64952666D01*
X125865000Y-65047904D01*
X125912619Y-65095523D01*
X126007857Y-65143142D01*
X126150714Y-65143142D01*
X126245952Y-65095523D01*
X126293571Y-65047904D01*
X126341190Y-64952666D01*
X126341190Y-64571714D01*
X125912619Y-65524095D02*
X125865000Y-65571714D01*
X125817380Y-65666952D01*
X125817380Y-65905047D01*
X125865000Y-66000285D01*
X125912619Y-66047904D01*
X126007857Y-66095523D01*
X126103095Y-66095523D01*
X126245952Y-66047904D01*
X126817380Y-65476476D01*
X126817380Y-66095523D01*
X126817380Y-66571714D02*
X126817380Y-66762190D01*
X126769761Y-66857428D01*
X126722142Y-66905047D01*
X126579285Y-67000285D01*
X126388809Y-67047904D01*
X126007857Y-67047904D01*
X125912619Y-67000285D01*
X125865000Y-66952666D01*
X125817380Y-66857428D01*
X125817380Y-66666952D01*
X125865000Y-66571714D01*
X125912619Y-66524095D01*
X126007857Y-66476476D01*
X126245952Y-66476476D01*
X126341190Y-66524095D01*
X126388809Y-66571714D01*
X126436428Y-66666952D01*
X126436428Y-66857428D01*
X126388809Y-66952666D01*
X126341190Y-67000285D01*
X126245952Y-67047904D01*
X125039380Y-65143142D02*
X124563190Y-64809809D01*
X125039380Y-64571714D02*
X124039380Y-64571714D01*
X124039380Y-64952666D01*
X124087000Y-65047904D01*
X124134619Y-65095523D01*
X124229857Y-65143142D01*
X124372714Y-65143142D01*
X124467952Y-65095523D01*
X124515571Y-65047904D01*
X124563190Y-64952666D01*
X124563190Y-64571714D01*
X124039380Y-65476476D02*
X124039380Y-66095523D01*
X124420333Y-65762190D01*
X124420333Y-65905047D01*
X124467952Y-66000285D01*
X124515571Y-66047904D01*
X124610809Y-66095523D01*
X124848904Y-66095523D01*
X124944142Y-66047904D01*
X124991761Y-66000285D01*
X125039380Y-65905047D01*
X125039380Y-65619333D01*
X124991761Y-65524095D01*
X124944142Y-65476476D01*
X124039380Y-66714571D02*
X124039380Y-66809809D01*
X124087000Y-66905047D01*
X124134619Y-66952666D01*
X124229857Y-67000285D01*
X124420333Y-67047904D01*
X124658428Y-67047904D01*
X124848904Y-67000285D01*
X124944142Y-66952666D01*
X124991761Y-66905047D01*
X125039380Y-66809809D01*
X125039380Y-66714571D01*
X124991761Y-66619333D01*
X124944142Y-66571714D01*
X124848904Y-66524095D01*
X124658428Y-66476476D01*
X124420333Y-66476476D01*
X124229857Y-66524095D01*
X124134619Y-66571714D01*
X124087000Y-66619333D01*
X124039380Y-66714571D01*
X123261380Y-65143142D02*
X122785190Y-64809809D01*
X123261380Y-64571714D02*
X122261380Y-64571714D01*
X122261380Y-64952666D01*
X122309000Y-65047904D01*
X122356619Y-65095523D01*
X122451857Y-65143142D01*
X122594714Y-65143142D01*
X122689952Y-65095523D01*
X122737571Y-65047904D01*
X122785190Y-64952666D01*
X122785190Y-64571714D01*
X122261380Y-65476476D02*
X122261380Y-66095523D01*
X122642333Y-65762190D01*
X122642333Y-65905047D01*
X122689952Y-66000285D01*
X122737571Y-66047904D01*
X122832809Y-66095523D01*
X123070904Y-66095523D01*
X123166142Y-66047904D01*
X123213761Y-66000285D01*
X123261380Y-65905047D01*
X123261380Y-65619333D01*
X123213761Y-65524095D01*
X123166142Y-65476476D01*
X123261380Y-67047904D02*
X123261380Y-66476476D01*
X123261380Y-66762190D02*
X122261380Y-66762190D01*
X122404238Y-66666952D01*
X122499476Y-66571714D01*
X122547095Y-66476476D01*
X132151380Y-65143142D02*
X131675190Y-64809809D01*
X132151380Y-64571714D02*
X131151380Y-64571714D01*
X131151380Y-64952666D01*
X131199000Y-65047904D01*
X131246619Y-65095523D01*
X131341857Y-65143142D01*
X131484714Y-65143142D01*
X131579952Y-65095523D01*
X131627571Y-65047904D01*
X131675190Y-64952666D01*
X131675190Y-64571714D01*
X131151380Y-65476476D02*
X131151380Y-66095523D01*
X131532333Y-65762190D01*
X131532333Y-65905047D01*
X131579952Y-66000285D01*
X131627571Y-66047904D01*
X131722809Y-66095523D01*
X131960904Y-66095523D01*
X132056142Y-66047904D01*
X132103761Y-66000285D01*
X132151380Y-65905047D01*
X132151380Y-65619333D01*
X132103761Y-65524095D01*
X132056142Y-65476476D01*
X131246619Y-66476476D02*
X131199000Y-66524095D01*
X131151380Y-66619333D01*
X131151380Y-66857428D01*
X131199000Y-66952666D01*
X131246619Y-67000285D01*
X131341857Y-67047904D01*
X131437095Y-67047904D01*
X131579952Y-67000285D01*
X132151380Y-66428857D01*
X132151380Y-67047904D01*
X128595380Y-65143142D02*
X128119190Y-64809809D01*
X128595380Y-64571714D02*
X127595380Y-64571714D01*
X127595380Y-64952666D01*
X127643000Y-65047904D01*
X127690619Y-65095523D01*
X127785857Y-65143142D01*
X127928714Y-65143142D01*
X128023952Y-65095523D01*
X128071571Y-65047904D01*
X128119190Y-64952666D01*
X128119190Y-64571714D01*
X127595380Y-65476476D02*
X127595380Y-66095523D01*
X127976333Y-65762190D01*
X127976333Y-65905047D01*
X128023952Y-66000285D01*
X128071571Y-66047904D01*
X128166809Y-66095523D01*
X128404904Y-66095523D01*
X128500142Y-66047904D01*
X128547761Y-66000285D01*
X128595380Y-65905047D01*
X128595380Y-65619333D01*
X128547761Y-65524095D01*
X128500142Y-65476476D01*
X127595380Y-66428857D02*
X127595380Y-67047904D01*
X127976333Y-66714571D01*
X127976333Y-66857428D01*
X128023952Y-66952666D01*
X128071571Y-67000285D01*
X128166809Y-67047904D01*
X128404904Y-67047904D01*
X128500142Y-67000285D01*
X128547761Y-66952666D01*
X128595380Y-66857428D01*
X128595380Y-66571714D01*
X128547761Y-66476476D01*
X128500142Y-66428857D01*
X165488857Y-109667380D02*
X165822190Y-109191190D01*
X166060285Y-109667380D02*
X166060285Y-108667380D01*
X165679333Y-108667380D01*
X165584095Y-108715000D01*
X165536476Y-108762619D01*
X165488857Y-108857857D01*
X165488857Y-109000714D01*
X165536476Y-109095952D01*
X165584095Y-109143571D01*
X165679333Y-109191190D01*
X166060285Y-109191190D01*
X165155523Y-108667380D02*
X164536476Y-108667380D01*
X164869809Y-109048333D01*
X164726952Y-109048333D01*
X164631714Y-109095952D01*
X164584095Y-109143571D01*
X164536476Y-109238809D01*
X164536476Y-109476904D01*
X164584095Y-109572142D01*
X164631714Y-109619761D01*
X164726952Y-109667380D01*
X165012666Y-109667380D01*
X165107904Y-109619761D01*
X165155523Y-109572142D01*
X163679333Y-109000714D02*
X163679333Y-109667380D01*
X163917428Y-108619761D02*
X164155523Y-109334047D01*
X163536476Y-109334047D01*
X141993857Y-111826380D02*
X142327190Y-111350190D01*
X142565285Y-111826380D02*
X142565285Y-110826380D01*
X142184333Y-110826380D01*
X142089095Y-110874000D01*
X142041476Y-110921619D01*
X141993857Y-111016857D01*
X141993857Y-111159714D01*
X142041476Y-111254952D01*
X142089095Y-111302571D01*
X142184333Y-111350190D01*
X142565285Y-111350190D01*
X141660523Y-110826380D02*
X141041476Y-110826380D01*
X141374809Y-111207333D01*
X141231952Y-111207333D01*
X141136714Y-111254952D01*
X141089095Y-111302571D01*
X141041476Y-111397809D01*
X141041476Y-111635904D01*
X141089095Y-111731142D01*
X141136714Y-111778761D01*
X141231952Y-111826380D01*
X141517666Y-111826380D01*
X141612904Y-111778761D01*
X141660523Y-111731142D01*
X140136714Y-110826380D02*
X140612904Y-110826380D01*
X140660523Y-111302571D01*
X140612904Y-111254952D01*
X140517666Y-111207333D01*
X140279571Y-111207333D01*
X140184333Y-111254952D01*
X140136714Y-111302571D01*
X140089095Y-111397809D01*
X140089095Y-111635904D01*
X140136714Y-111731142D01*
X140184333Y-111778761D01*
X140279571Y-111826380D01*
X140517666Y-111826380D01*
X140612904Y-111778761D01*
X140660523Y-111731142D01*
X141993857Y-110048380D02*
X142327190Y-109572190D01*
X142565285Y-110048380D02*
X142565285Y-109048380D01*
X142184333Y-109048380D01*
X142089095Y-109096000D01*
X142041476Y-109143619D01*
X141993857Y-109238857D01*
X141993857Y-109381714D01*
X142041476Y-109476952D01*
X142089095Y-109524571D01*
X142184333Y-109572190D01*
X142565285Y-109572190D01*
X141660523Y-109048380D02*
X141041476Y-109048380D01*
X141374809Y-109429333D01*
X141231952Y-109429333D01*
X141136714Y-109476952D01*
X141089095Y-109524571D01*
X141041476Y-109619809D01*
X141041476Y-109857904D01*
X141089095Y-109953142D01*
X141136714Y-110000761D01*
X141231952Y-110048380D01*
X141517666Y-110048380D01*
X141612904Y-110000761D01*
X141660523Y-109953142D01*
X140184333Y-109048380D02*
X140374809Y-109048380D01*
X140470047Y-109096000D01*
X140517666Y-109143619D01*
X140612904Y-109286476D01*
X140660523Y-109476952D01*
X140660523Y-109857904D01*
X140612904Y-109953142D01*
X140565285Y-110000761D01*
X140470047Y-110048380D01*
X140279571Y-110048380D01*
X140184333Y-110000761D01*
X140136714Y-109953142D01*
X140089095Y-109857904D01*
X140089095Y-109619809D01*
X140136714Y-109524571D01*
X140184333Y-109476952D01*
X140279571Y-109429333D01*
X140470047Y-109429333D01*
X140565285Y-109476952D01*
X140612904Y-109524571D01*
X140660523Y-109619809D01*
X130373380Y-65143142D02*
X129897190Y-64809809D01*
X130373380Y-64571714D02*
X129373380Y-64571714D01*
X129373380Y-64952666D01*
X129421000Y-65047904D01*
X129468619Y-65095523D01*
X129563857Y-65143142D01*
X129706714Y-65143142D01*
X129801952Y-65095523D01*
X129849571Y-65047904D01*
X129897190Y-64952666D01*
X129897190Y-64571714D01*
X129373380Y-65476476D02*
X129373380Y-66095523D01*
X129754333Y-65762190D01*
X129754333Y-65905047D01*
X129801952Y-66000285D01*
X129849571Y-66047904D01*
X129944809Y-66095523D01*
X130182904Y-66095523D01*
X130278142Y-66047904D01*
X130325761Y-66000285D01*
X130373380Y-65905047D01*
X130373380Y-65619333D01*
X130325761Y-65524095D01*
X130278142Y-65476476D01*
X129373380Y-66428857D02*
X129373380Y-67095523D01*
X130373380Y-66666952D01*
X106497380Y-93845142D02*
X106021190Y-93511809D01*
X106497380Y-93273714D02*
X105497380Y-93273714D01*
X105497380Y-93654666D01*
X105545000Y-93749904D01*
X105592619Y-93797523D01*
X105687857Y-93845142D01*
X105830714Y-93845142D01*
X105925952Y-93797523D01*
X105973571Y-93749904D01*
X106021190Y-93654666D01*
X106021190Y-93273714D01*
X105497380Y-94178476D02*
X105497380Y-94797523D01*
X105878333Y-94464190D01*
X105878333Y-94607047D01*
X105925952Y-94702285D01*
X105973571Y-94749904D01*
X106068809Y-94797523D01*
X106306904Y-94797523D01*
X106402142Y-94749904D01*
X106449761Y-94702285D01*
X106497380Y-94607047D01*
X106497380Y-94321333D01*
X106449761Y-94226095D01*
X106402142Y-94178476D01*
X105925952Y-95368952D02*
X105878333Y-95273714D01*
X105830714Y-95226095D01*
X105735476Y-95178476D01*
X105687857Y-95178476D01*
X105592619Y-95226095D01*
X105545000Y-95273714D01*
X105497380Y-95368952D01*
X105497380Y-95559428D01*
X105545000Y-95654666D01*
X105592619Y-95702285D01*
X105687857Y-95749904D01*
X105735476Y-95749904D01*
X105830714Y-95702285D01*
X105878333Y-95654666D01*
X105925952Y-95559428D01*
X105925952Y-95368952D01*
X105973571Y-95273714D01*
X106021190Y-95226095D01*
X106116428Y-95178476D01*
X106306904Y-95178476D01*
X106402142Y-95226095D01*
X106449761Y-95273714D01*
X106497380Y-95368952D01*
X106497380Y-95559428D01*
X106449761Y-95654666D01*
X106402142Y-95702285D01*
X106306904Y-95749904D01*
X106116428Y-95749904D01*
X106021190Y-95702285D01*
X105973571Y-95654666D01*
X105925952Y-95559428D01*
X100083857Y-80081380D02*
X100417190Y-79605190D01*
X100655285Y-80081380D02*
X100655285Y-79081380D01*
X100274333Y-79081380D01*
X100179095Y-79129000D01*
X100131476Y-79176619D01*
X100083857Y-79271857D01*
X100083857Y-79414714D01*
X100131476Y-79509952D01*
X100179095Y-79557571D01*
X100274333Y-79605190D01*
X100655285Y-79605190D01*
X99750523Y-79081380D02*
X99131476Y-79081380D01*
X99464809Y-79462333D01*
X99321952Y-79462333D01*
X99226714Y-79509952D01*
X99179095Y-79557571D01*
X99131476Y-79652809D01*
X99131476Y-79890904D01*
X99179095Y-79986142D01*
X99226714Y-80033761D01*
X99321952Y-80081380D01*
X99607666Y-80081380D01*
X99702904Y-80033761D01*
X99750523Y-79986142D01*
X98655285Y-80081380D02*
X98464809Y-80081380D01*
X98369571Y-80033761D01*
X98321952Y-79986142D01*
X98226714Y-79843285D01*
X98179095Y-79652809D01*
X98179095Y-79271857D01*
X98226714Y-79176619D01*
X98274333Y-79129000D01*
X98369571Y-79081380D01*
X98560047Y-79081380D01*
X98655285Y-79129000D01*
X98702904Y-79176619D01*
X98750523Y-79271857D01*
X98750523Y-79509952D01*
X98702904Y-79605190D01*
X98655285Y-79652809D01*
X98560047Y-79700428D01*
X98369571Y-79700428D01*
X98274333Y-79652809D01*
X98226714Y-79605190D01*
X98179095Y-79509952D01*
X100083857Y-81732380D02*
X100417190Y-81256190D01*
X100655285Y-81732380D02*
X100655285Y-80732380D01*
X100274333Y-80732380D01*
X100179095Y-80780000D01*
X100131476Y-80827619D01*
X100083857Y-80922857D01*
X100083857Y-81065714D01*
X100131476Y-81160952D01*
X100179095Y-81208571D01*
X100274333Y-81256190D01*
X100655285Y-81256190D01*
X99226714Y-81065714D02*
X99226714Y-81732380D01*
X99464809Y-80684761D02*
X99702904Y-81399047D01*
X99083857Y-81399047D01*
X98512428Y-80732380D02*
X98417190Y-80732380D01*
X98321952Y-80780000D01*
X98274333Y-80827619D01*
X98226714Y-80922857D01*
X98179095Y-81113333D01*
X98179095Y-81351428D01*
X98226714Y-81541904D01*
X98274333Y-81637142D01*
X98321952Y-81684761D01*
X98417190Y-81732380D01*
X98512428Y-81732380D01*
X98607666Y-81684761D01*
X98655285Y-81637142D01*
X98702904Y-81541904D01*
X98750523Y-81351428D01*
X98750523Y-81113333D01*
X98702904Y-80922857D01*
X98655285Y-80827619D01*
X98607666Y-80780000D01*
X98512428Y-80732380D01*
X100083857Y-75382380D02*
X100417190Y-74906190D01*
X100655285Y-75382380D02*
X100655285Y-74382380D01*
X100274333Y-74382380D01*
X100179095Y-74430000D01*
X100131476Y-74477619D01*
X100083857Y-74572857D01*
X100083857Y-74715714D01*
X100131476Y-74810952D01*
X100179095Y-74858571D01*
X100274333Y-74906190D01*
X100655285Y-74906190D01*
X99226714Y-74715714D02*
X99226714Y-75382380D01*
X99464809Y-74334761D02*
X99702904Y-75049047D01*
X99083857Y-75049047D01*
X98179095Y-75382380D02*
X98750523Y-75382380D01*
X98464809Y-75382380D02*
X98464809Y-74382380D01*
X98560047Y-74525238D01*
X98655285Y-74620476D01*
X98750523Y-74668095D01*
X100083857Y-83256380D02*
X100417190Y-82780190D01*
X100655285Y-83256380D02*
X100655285Y-82256380D01*
X100274333Y-82256380D01*
X100179095Y-82304000D01*
X100131476Y-82351619D01*
X100083857Y-82446857D01*
X100083857Y-82589714D01*
X100131476Y-82684952D01*
X100179095Y-82732571D01*
X100274333Y-82780190D01*
X100655285Y-82780190D01*
X99226714Y-82589714D02*
X99226714Y-83256380D01*
X99464809Y-82208761D02*
X99702904Y-82923047D01*
X99083857Y-82923047D01*
X98750523Y-82351619D02*
X98702904Y-82304000D01*
X98607666Y-82256380D01*
X98369571Y-82256380D01*
X98274333Y-82304000D01*
X98226714Y-82351619D01*
X98179095Y-82446857D01*
X98179095Y-82542095D01*
X98226714Y-82684952D01*
X98798142Y-83256380D01*
X98179095Y-83256380D01*
X100083857Y-78430380D02*
X100417190Y-77954190D01*
X100655285Y-78430380D02*
X100655285Y-77430380D01*
X100274333Y-77430380D01*
X100179095Y-77478000D01*
X100131476Y-77525619D01*
X100083857Y-77620857D01*
X100083857Y-77763714D01*
X100131476Y-77858952D01*
X100179095Y-77906571D01*
X100274333Y-77954190D01*
X100655285Y-77954190D01*
X99226714Y-77763714D02*
X99226714Y-78430380D01*
X99464809Y-77382761D02*
X99702904Y-78097047D01*
X99083857Y-78097047D01*
X98798142Y-77430380D02*
X98179095Y-77430380D01*
X98512428Y-77811333D01*
X98369571Y-77811333D01*
X98274333Y-77858952D01*
X98226714Y-77906571D01*
X98179095Y-78001809D01*
X98179095Y-78239904D01*
X98226714Y-78335142D01*
X98274333Y-78382761D01*
X98369571Y-78430380D01*
X98655285Y-78430380D01*
X98750523Y-78382761D01*
X98798142Y-78335142D01*
X100083857Y-76890234D02*
X100417190Y-76414044D01*
X100655285Y-76890234D02*
X100655285Y-75890234D01*
X100274333Y-75890234D01*
X100179095Y-75937854D01*
X100131476Y-75985473D01*
X100083857Y-76080711D01*
X100083857Y-76223568D01*
X100131476Y-76318806D01*
X100179095Y-76366425D01*
X100274333Y-76414044D01*
X100655285Y-76414044D01*
X99226714Y-76223568D02*
X99226714Y-76890234D01*
X99464809Y-75842615D02*
X99702904Y-76556901D01*
X99083857Y-76556901D01*
X98274333Y-76223568D02*
X98274333Y-76890234D01*
X98512428Y-75842615D02*
X98750523Y-76556901D01*
X98131476Y-76556901D01*
X116022380Y-120007142D02*
X115546190Y-119673809D01*
X116022380Y-119435714D02*
X115022380Y-119435714D01*
X115022380Y-119816666D01*
X115070000Y-119911904D01*
X115117619Y-119959523D01*
X115212857Y-120007142D01*
X115355714Y-120007142D01*
X115450952Y-119959523D01*
X115498571Y-119911904D01*
X115546190Y-119816666D01*
X115546190Y-119435714D01*
X115355714Y-120864285D02*
X116022380Y-120864285D01*
X114974761Y-120626190D02*
X115689047Y-120388095D01*
X115689047Y-121007142D01*
X115022380Y-121292857D02*
X115022380Y-121959523D01*
X116022380Y-121530952D01*
X98813857Y-119451380D02*
X99147190Y-118975190D01*
X99385285Y-119451380D02*
X99385285Y-118451380D01*
X99004333Y-118451380D01*
X98909095Y-118499000D01*
X98861476Y-118546619D01*
X98813857Y-118641857D01*
X98813857Y-118784714D01*
X98861476Y-118879952D01*
X98909095Y-118927571D01*
X99004333Y-118975190D01*
X99385285Y-118975190D01*
X97956714Y-118784714D02*
X97956714Y-119451380D01*
X98194809Y-118403761D02*
X98432904Y-119118047D01*
X97813857Y-119118047D01*
X97290047Y-118879952D02*
X97385285Y-118832333D01*
X97432904Y-118784714D01*
X97480523Y-118689476D01*
X97480523Y-118641857D01*
X97432904Y-118546619D01*
X97385285Y-118499000D01*
X97290047Y-118451380D01*
X97099571Y-118451380D01*
X97004333Y-118499000D01*
X96956714Y-118546619D01*
X96909095Y-118641857D01*
X96909095Y-118689476D01*
X96956714Y-118784714D01*
X97004333Y-118832333D01*
X97099571Y-118879952D01*
X97290047Y-118879952D01*
X97385285Y-118927571D01*
X97432904Y-118975190D01*
X97480523Y-119070428D01*
X97480523Y-119260904D01*
X97432904Y-119356142D01*
X97385285Y-119403761D01*
X97290047Y-119451380D01*
X97099571Y-119451380D01*
X97004333Y-119403761D01*
X96956714Y-119356142D01*
X96909095Y-119260904D01*
X96909095Y-119070428D01*
X96956714Y-118975190D01*
X97004333Y-118927571D01*
X97099571Y-118879952D01*
X99956857Y-103830380D02*
X100290190Y-103354190D01*
X100528285Y-103830380D02*
X100528285Y-102830380D01*
X100147333Y-102830380D01*
X100052095Y-102878000D01*
X100004476Y-102925619D01*
X99956857Y-103020857D01*
X99956857Y-103163714D01*
X100004476Y-103258952D01*
X100052095Y-103306571D01*
X100147333Y-103354190D01*
X100528285Y-103354190D01*
X99099714Y-103163714D02*
X99099714Y-103830380D01*
X99337809Y-102782761D02*
X99575904Y-103497047D01*
X98956857Y-103497047D01*
X98528285Y-103830380D02*
X98337809Y-103830380D01*
X98242571Y-103782761D01*
X98194952Y-103735142D01*
X98099714Y-103592285D01*
X98052095Y-103401809D01*
X98052095Y-103020857D01*
X98099714Y-102925619D01*
X98147333Y-102878000D01*
X98242571Y-102830380D01*
X98433047Y-102830380D01*
X98528285Y-102878000D01*
X98575904Y-102925619D01*
X98623523Y-103020857D01*
X98623523Y-103258952D01*
X98575904Y-103354190D01*
X98528285Y-103401809D01*
X98433047Y-103449428D01*
X98242571Y-103449428D01*
X98147333Y-103401809D01*
X98099714Y-103354190D01*
X98052095Y-103258952D01*
X104206380Y-105021142D02*
X103730190Y-104687809D01*
X104206380Y-104449714D02*
X103206380Y-104449714D01*
X103206380Y-104830666D01*
X103254000Y-104925904D01*
X103301619Y-104973523D01*
X103396857Y-105021142D01*
X103539714Y-105021142D01*
X103634952Y-104973523D01*
X103682571Y-104925904D01*
X103730190Y-104830666D01*
X103730190Y-104449714D01*
X103206380Y-105925904D02*
X103206380Y-105449714D01*
X103682571Y-105402095D01*
X103634952Y-105449714D01*
X103587333Y-105544952D01*
X103587333Y-105783047D01*
X103634952Y-105878285D01*
X103682571Y-105925904D01*
X103777809Y-105973523D01*
X104015904Y-105973523D01*
X104111142Y-105925904D01*
X104158761Y-105878285D01*
X104206380Y-105783047D01*
X104206380Y-105544952D01*
X104158761Y-105449714D01*
X104111142Y-105402095D01*
X103206380Y-106592571D02*
X103206380Y-106687809D01*
X103254000Y-106783047D01*
X103301619Y-106830666D01*
X103396857Y-106878285D01*
X103587333Y-106925904D01*
X103825428Y-106925904D01*
X104015904Y-106878285D01*
X104111142Y-106830666D01*
X104158761Y-106783047D01*
X104206380Y-106687809D01*
X104206380Y-106592571D01*
X104158761Y-106497333D01*
X104111142Y-106449714D01*
X104015904Y-106402095D01*
X103825428Y-106354476D01*
X103587333Y-106354476D01*
X103396857Y-106402095D01*
X103301619Y-106449714D01*
X103254000Y-106497333D01*
X103206380Y-106592571D01*
X92178190Y-110775809D02*
X92654380Y-110775809D01*
X91654380Y-110442476D02*
X92178190Y-110775809D01*
X91654380Y-111109142D01*
X92654380Y-111966285D02*
X92654380Y-111394857D01*
X92654380Y-111680571D02*
X91654380Y-111680571D01*
X91797238Y-111585333D01*
X91892476Y-111490095D01*
X91940095Y-111394857D01*
X101687380Y-85725095D02*
X102496904Y-85725095D01*
X102592142Y-85772714D01*
X102639761Y-85820333D01*
X102687380Y-85915571D01*
X102687380Y-86106047D01*
X102639761Y-86201285D01*
X102592142Y-86248904D01*
X102496904Y-86296523D01*
X101687380Y-86296523D01*
X102687380Y-87296523D02*
X102687380Y-86725095D01*
X102687380Y-87010809D02*
X101687380Y-87010809D01*
X101830238Y-86915571D01*
X101925476Y-86820333D01*
X101973095Y-86725095D01*
X109092904Y-78319380D02*
X109092904Y-79128904D01*
X109045285Y-79224142D01*
X108997666Y-79271761D01*
X108902428Y-79319380D01*
X108711952Y-79319380D01*
X108616714Y-79271761D01*
X108569095Y-79224142D01*
X108521476Y-79128904D01*
X108521476Y-78319380D01*
X108092904Y-78414619D02*
X108045285Y-78367000D01*
X107950047Y-78319380D01*
X107711952Y-78319380D01*
X107616714Y-78367000D01*
X107569095Y-78414619D01*
X107521476Y-78509857D01*
X107521476Y-78605095D01*
X107569095Y-78747952D01*
X108140523Y-79319380D01*
X107521476Y-79319380D01*
X162305904Y-107151380D02*
X162305904Y-107960904D01*
X162258285Y-108056142D01*
X162210666Y-108103761D01*
X162115428Y-108151380D01*
X161924952Y-108151380D01*
X161829714Y-108103761D01*
X161782095Y-108056142D01*
X161734476Y-107960904D01*
X161734476Y-107151380D01*
X160829714Y-107484714D02*
X160829714Y-108151380D01*
X161067809Y-107103761D02*
X161305904Y-107818047D01*
X160686857Y-107818047D01*
X146015904Y-119644380D02*
X146015904Y-120453904D01*
X145968285Y-120549142D01*
X145920666Y-120596761D01*
X145825428Y-120644380D01*
X145634952Y-120644380D01*
X145539714Y-120596761D01*
X145492095Y-120549142D01*
X145444476Y-120453904D01*
X145444476Y-119644380D01*
X144492095Y-119644380D02*
X144968285Y-119644380D01*
X145015904Y-120120571D01*
X144968285Y-120072952D01*
X144873047Y-120025333D01*
X144634952Y-120025333D01*
X144539714Y-120072952D01*
X144492095Y-120120571D01*
X144444476Y-120215809D01*
X144444476Y-120453904D01*
X144492095Y-120549142D01*
X144539714Y-120596761D01*
X144634952Y-120644380D01*
X144873047Y-120644380D01*
X144968285Y-120596761D01*
X145015904Y-120549142D01*
X146010380Y-92804887D02*
X146819904Y-92804887D01*
X146915142Y-92852506D01*
X146962761Y-92900125D01*
X147010380Y-92995363D01*
X147010380Y-93185839D01*
X146962761Y-93281077D01*
X146915142Y-93328696D01*
X146819904Y-93376315D01*
X146010380Y-93376315D01*
X146010380Y-94281077D02*
X146010380Y-94090601D01*
X146058000Y-93995363D01*
X146105619Y-93947744D01*
X146248476Y-93852506D01*
X146438952Y-93804887D01*
X146819904Y-93804887D01*
X146915142Y-93852506D01*
X146962761Y-93900125D01*
X147010380Y-93995363D01*
X147010380Y-94185839D01*
X146962761Y-94281077D01*
X146915142Y-94328696D01*
X146819904Y-94376315D01*
X146581809Y-94376315D01*
X146486571Y-94328696D01*
X146438952Y-94281077D01*
X146391333Y-94185839D01*
X146391333Y-93995363D01*
X146438952Y-93900125D01*
X146486571Y-93852506D01*
X146581809Y-93804887D01*
X105679666Y-100036380D02*
X105108238Y-100036380D01*
X105393952Y-101036380D02*
X105393952Y-100036380D01*
X104917761Y-100036380D02*
X104584428Y-101036380D01*
X104251095Y-100036380D01*
X103965380Y-100988761D02*
X103822523Y-101036380D01*
X103584428Y-101036380D01*
X103489190Y-100988761D01*
X103441571Y-100941142D01*
X103393952Y-100845904D01*
X103393952Y-100750666D01*
X103441571Y-100655428D01*
X103489190Y-100607809D01*
X103584428Y-100560190D01*
X103774904Y-100512571D01*
X103870142Y-100464952D01*
X103917761Y-100417333D01*
X103965380Y-100322095D01*
X103965380Y-100226857D01*
X103917761Y-100131619D01*
X103870142Y-100084000D01*
X103774904Y-100036380D01*
X103536809Y-100036380D01*
X103393952Y-100084000D01*
X102441571Y-101036380D02*
X103013000Y-101036380D01*
X102727285Y-101036380D02*
X102727285Y-100036380D01*
X102822523Y-100179238D01*
X102917761Y-100274476D01*
X103013000Y-100322095D01*
X114466666Y-103703380D02*
X114942857Y-103703380D01*
X114942857Y-102703380D01*
X113609523Y-103703380D02*
X114180952Y-103703380D01*
X113895238Y-103703380D02*
X113895238Y-102703380D01*
X113990476Y-102846238D01*
X114085714Y-102941476D01*
X114180952Y-102989095D01*
X145986333Y-80160761D02*
X145843476Y-80208380D01*
X145605380Y-80208380D01*
X145510142Y-80160761D01*
X145462523Y-80113142D01*
X145414904Y-80017904D01*
X145414904Y-79922666D01*
X145462523Y-79827428D01*
X145510142Y-79779809D01*
X145605380Y-79732190D01*
X145795857Y-79684571D01*
X145891095Y-79636952D01*
X145938714Y-79589333D01*
X145986333Y-79494095D01*
X145986333Y-79398857D01*
X145938714Y-79303619D01*
X145891095Y-79256000D01*
X145795857Y-79208380D01*
X145557761Y-79208380D01*
X145414904Y-79256000D01*
X145081571Y-79208380D02*
X144843476Y-80208380D01*
X144653000Y-79494095D01*
X144462523Y-80208380D01*
X144224428Y-79208380D01*
X143319666Y-80208380D02*
X143891095Y-80208380D01*
X143605380Y-80208380D02*
X143605380Y-79208380D01*
X143700619Y-79351238D01*
X143795857Y-79446476D01*
X143891095Y-79494095D01*
M02*
