G04 #@! TF.FileFunction,Legend,Bot*
%FSLAX46Y46*%
G04 Gerber Fmt 4.6, Leading zero omitted, Abs format (unit mm)*
G04 Created by KiCad (PCBNEW (2016-11-12 revision b9c62b6)-makepkg) date 12/04/16 22:26:22*
%MOMM*%
%LPD*%
G01*
G04 APERTURE LIST*
%ADD10C,0.100000*%
%ADD11C,0.254000*%
%ADD12C,0.150000*%
G04 APERTURE END LIST*
D10*
D11*
X116141500Y-123964700D02*
X116141500Y-69608700D01*
X138366500Y-123964700D02*
X116141500Y-123964700D01*
X138366500Y-69608700D02*
X116141500Y-69608700D01*
X138366500Y-123964700D02*
X138366500Y-69608700D01*
D12*
X139682571Y-121247685D02*
X139730190Y-121390542D01*
X139777809Y-121438161D01*
X139873047Y-121485780D01*
X140015904Y-121485780D01*
X140111142Y-121438161D01*
X140158761Y-121390542D01*
X140206380Y-121295304D01*
X140206380Y-120914352D01*
X139206380Y-120914352D01*
X139206380Y-121247685D01*
X139254000Y-121342923D01*
X139301619Y-121390542D01*
X139396857Y-121438161D01*
X139492095Y-121438161D01*
X139587333Y-121390542D01*
X139634952Y-121342923D01*
X139682571Y-121247685D01*
X139682571Y-120914352D01*
X139206380Y-121771495D02*
X139206380Y-122342923D01*
X140206380Y-122057209D02*
X139206380Y-122057209D01*
X140206380Y-123200066D02*
X140206380Y-122628638D01*
X140206380Y-122914352D02*
X139206380Y-122914352D01*
X139349238Y-122819114D01*
X139444476Y-122723876D01*
X139492095Y-122628638D01*
D11*
X132935428Y-116565780D02*
X132935428Y-118501019D01*
X121935428Y-116565780D02*
X121935428Y-118501019D01*
X122903047Y-117533400D02*
X120967809Y-117533400D01*
X132935428Y-75065780D02*
X132935428Y-77001019D01*
X133903047Y-76033400D02*
X131967809Y-76033400D01*
X121935428Y-75065780D02*
X121935428Y-77001019D01*
M02*
