G04 #@! TF.FileFunction,Profile,NP*
%FSLAX46Y46*%
G04 Gerber Fmt 4.6, Leading zero omitted, Abs format (unit mm)*
G04 Created by KiCad (PCBNEW (2016-11-12 revision b9c62b6)-makepkg) date 12/04/16 22:26:22*
%MOMM*%
%LPD*%
G01*
G04 APERTURE LIST*
%ADD10C,0.100000*%
%ADD11C,0.200000*%
G04 APERTURE END LIST*
D10*
D11*
X157886400Y-105435400D02*
X168313169Y-102646072D01*
X168313169Y-102646072D02*
X167757135Y-121389151D01*
X151803169Y-131242230D02*
X148963352Y-120794418D01*
X148961900Y-120797932D02*
X135890000Y-128422400D01*
X167757135Y-121389151D02*
X151803169Y-131242230D01*
X149021800Y-74879200D02*
X151809058Y-64464463D01*
X151809058Y-64464463D02*
X167763024Y-74317542D01*
X167763024Y-74317542D02*
X168319058Y-93060622D01*
X168319058Y-93060622D02*
X157909945Y-90271508D01*
X157909945Y-90271508D02*
X157886400Y-105435400D01*
X143505606Y-136028960D02*
X126995607Y-144918960D01*
X126995607Y-144918960D02*
X110485606Y-136028960D01*
X135890000Y-128422400D02*
X143505606Y-136028960D01*
X110485606Y-136028960D02*
X118113769Y-128345701D01*
X85671021Y-102645447D02*
X96139000Y-105410000D01*
X86227056Y-121388527D02*
X85671021Y-102645447D01*
X104970134Y-120832493D02*
X102181021Y-131241606D01*
X102181021Y-131241606D02*
X86227056Y-121388527D01*
X118110000Y-128346200D02*
X104970134Y-120832493D01*
X105029000Y-74930000D02*
X118110000Y-67310000D01*
X86232664Y-74327854D02*
X102186630Y-64474774D01*
X102186630Y-64474774D02*
X105029000Y-74930000D01*
X85676630Y-93070933D02*
X86232664Y-74327854D01*
X96085743Y-90281819D02*
X85676630Y-93070933D01*
X96139000Y-105410000D02*
X96085743Y-90281819D01*
X143510000Y-59690000D02*
X135890000Y-67310000D01*
X127000000Y-50800000D02*
X143510000Y-59690000D01*
X110490000Y-59690000D02*
X127000000Y-50800000D01*
X118110000Y-67310000D02*
X110490000Y-59690000D01*
X135890000Y-67310000D02*
X149021800Y-74879200D01*
M02*
