G04 #@! TF.GenerationSoftware,KiCad,Pcbnew,(2016-12-02 revision 54c5f6b)-makepkg*
G04 #@! TF.CreationDate,2016-12-08T22:01:39-06:00*
G04 #@! TF.ProjectId,Star,537461722E6B696361645F7063620000,rev?*
G04 #@! TF.FileFunction,Paste,Bot*
G04 #@! TF.FilePolarity,Positive*
%FSLAX46Y46*%
G04 Gerber Fmt 4.6, Leading zero omitted, Abs format (unit mm)*
G04 Created by KiCad (PCBNEW (2016-12-02 revision 54c5f6b)-makepkg) date 12/08/16 22:01:39*
%MOMM*%
%LPD*%
G01*
G04 APERTURE LIST*
%ADD10C,0.100000*%
%ADD11R,1.600000X1.000000*%
%ADD12R,0.750000X0.800000*%
%ADD13R,5.080000X6.350000*%
%ADD14R,1.102500X1.102500*%
%ADD15R,0.850000X0.300000*%
%ADD16R,0.300000X0.850000*%
%ADD17R,1.000000X1.600000*%
%ADD18R,0.800000X0.750000*%
%ADD19R,1.000000X1.250000*%
%ADD20R,1.250000X1.000000*%
%ADD21R,1.897380X1.173480*%
%ADD22R,1.897380X2.374900*%
%ADD23R,2.100580X1.473200*%
%ADD24R,1.379220X0.449580*%
%ADD25R,0.800100X0.800100*%
%ADD26R,1.300000X2.000000*%
%ADD27R,0.650000X1.060000*%
%ADD28R,0.650000X0.300000*%
%ADD29R,0.465000X0.744000*%
%ADD30R,1.700000X0.650000*%
%ADD31R,0.700000X0.250000*%
%ADD32R,0.498000X0.714000*%
%ADD33R,0.450000X1.450000*%
%ADD34R,0.800000X0.800000*%
%ADD35R,1.200000X0.800000*%
%ADD36R,1.270000X3.556000*%
%ADD37R,1.700000X1.000000*%
G04 APERTURE END LIST*
D10*
D11*
X112522000Y-84558000D03*
X112522000Y-81558000D03*
D12*
X101219000Y-122186000D03*
X101219000Y-123686000D03*
D13*
X121793000Y-70485000D03*
X132715000Y-70485000D03*
X121793000Y-125628400D03*
X132715000Y-125628400D03*
D14*
X106231500Y-115883500D03*
X104394000Y-115883500D03*
X102556500Y-115883500D03*
X100719000Y-115883500D03*
X106231500Y-114046000D03*
X104394000Y-114046000D03*
X102556500Y-114046000D03*
X100719000Y-114046000D03*
X106231500Y-112208500D03*
X104394000Y-112208500D03*
X102556500Y-112208500D03*
X100719000Y-112208500D03*
X106231500Y-110371000D03*
X104394000Y-110371000D03*
X102556500Y-110371000D03*
X100719000Y-110371000D03*
D15*
X107925250Y-116877250D03*
X107925250Y-116377250D03*
X107925250Y-115877250D03*
X107925250Y-115377250D03*
X107925250Y-114877250D03*
X107925250Y-114377250D03*
X107925250Y-113877250D03*
X107925250Y-113377250D03*
X107925250Y-112877250D03*
X107925250Y-112377250D03*
X107925250Y-111877250D03*
X107925250Y-111377250D03*
X107925250Y-110877250D03*
X107925250Y-110377250D03*
X107925250Y-109877250D03*
X107925250Y-109377250D03*
D16*
X107225250Y-108677250D03*
X106725250Y-108677250D03*
X106225250Y-108677250D03*
X105725250Y-108677250D03*
X105225250Y-108677250D03*
X104725250Y-108677250D03*
X104225250Y-108677250D03*
X103725250Y-108677250D03*
X103225250Y-108677250D03*
X102725250Y-108677250D03*
X102225250Y-108677250D03*
X101725250Y-108677250D03*
X101225250Y-108677250D03*
X100725250Y-108677250D03*
X100225250Y-108677250D03*
X99725250Y-108677250D03*
D15*
X99025250Y-109377250D03*
X99025250Y-109877250D03*
X99025250Y-110377250D03*
X99025250Y-110877250D03*
X99025250Y-111377250D03*
X99025250Y-111877250D03*
X99025250Y-112377250D03*
X99025250Y-112877250D03*
X99025250Y-113377250D03*
X99025250Y-113877250D03*
X99025250Y-114377250D03*
X99025250Y-114877250D03*
X99025250Y-115377250D03*
X99025250Y-115877250D03*
X99025250Y-116377250D03*
X99025250Y-116877250D03*
D16*
X99725250Y-117577250D03*
X100225250Y-117577250D03*
X100725250Y-117577250D03*
X101225250Y-117577250D03*
X101725250Y-117577250D03*
X102225250Y-117577250D03*
X102725250Y-117577250D03*
X103225250Y-117577250D03*
X103725250Y-117577250D03*
X104225250Y-117577250D03*
X104725250Y-117577250D03*
X105225250Y-117577250D03*
X105725250Y-117577250D03*
X106225250Y-117577250D03*
X106725250Y-117577250D03*
X107225250Y-117577250D03*
D17*
X95988000Y-118364000D03*
X92988000Y-118364000D03*
X111990000Y-102108000D03*
X108990000Y-102108000D03*
X111022000Y-117348000D03*
X114022000Y-117348000D03*
D12*
X110998000Y-115050000D03*
X110998000Y-113550000D03*
D17*
X105894000Y-89916000D03*
X102894000Y-89916000D03*
D18*
X100064000Y-106426000D03*
X98564000Y-106426000D03*
X145657000Y-86233000D03*
X144157000Y-86233000D03*
X102604000Y-120142000D03*
X101104000Y-120142000D03*
D11*
X100330000Y-84860000D03*
X100330000Y-87860000D03*
D12*
X107950000Y-105168000D03*
X107950000Y-106668000D03*
D19*
X111014000Y-111506000D03*
X113014000Y-111506000D03*
D20*
X107950000Y-85344000D03*
X107950000Y-87344000D03*
D12*
X96012000Y-115812000D03*
X96012000Y-114312000D03*
D18*
X112510000Y-109474000D03*
X111010000Y-109474000D03*
D19*
X102914021Y-82553361D03*
X104914021Y-82553361D03*
X102914021Y-80521361D03*
X104914021Y-80521361D03*
D12*
X113030000Y-113550000D03*
X113030000Y-115050000D03*
X155702000Y-110720000D03*
X155702000Y-109220000D03*
X96012000Y-110248000D03*
X96012000Y-111748000D03*
D18*
X110756000Y-119888000D03*
X112256000Y-119888000D03*
X142101000Y-120269000D03*
X140601000Y-120269000D03*
X142101000Y-114935000D03*
X140601000Y-114935000D03*
D12*
X96012000Y-107200000D03*
X96012000Y-108700000D03*
D19*
X93615000Y-120777000D03*
X95615000Y-120777000D03*
D20*
X148717000Y-118602000D03*
X148717000Y-116602000D03*
D12*
X102616000Y-95238000D03*
X102616000Y-93738000D03*
D18*
X150223832Y-89027000D03*
X148723832Y-89027000D03*
X150223832Y-98011792D03*
X148723832Y-98011792D03*
D21*
X97790000Y-98806000D03*
X97790000Y-97129600D03*
D22*
X97790000Y-95054420D03*
X97790000Y-100881180D03*
D23*
X100088700Y-95506540D03*
X100088700Y-100429060D03*
D24*
X100449380Y-99268280D03*
X100449380Y-98618040D03*
X100449380Y-97967800D03*
X100449380Y-97317560D03*
X100449380Y-96667320D03*
D25*
X130952240Y-138249688D03*
X130952240Y-136349688D03*
X132951220Y-137299688D03*
X130952240Y-134693688D03*
X130952240Y-132793688D03*
X132951220Y-133743688D03*
X121175780Y-133743688D03*
X123174760Y-134693688D03*
X123174760Y-132793688D03*
X123174760Y-136349688D03*
X123174760Y-138249688D03*
X121175780Y-137299688D03*
X154350036Y-120792240D03*
X156250036Y-120792240D03*
X155300036Y-122791220D03*
X158856036Y-122809000D03*
X159806036Y-120810020D03*
X157906036Y-120810020D03*
X159654240Y-77277000D03*
X159654240Y-75377000D03*
X161653220Y-76327000D03*
X161653220Y-79883000D03*
X159654240Y-78933000D03*
X159654240Y-80833000D03*
X125457738Y-58818780D03*
X124507738Y-60817760D03*
X126407738Y-60817760D03*
X129963738Y-60817760D03*
X128063738Y-60817760D03*
X129013738Y-58818780D03*
X91711780Y-80750854D03*
X93710760Y-81700854D03*
X93710760Y-79800854D03*
X93710760Y-76244854D03*
X93710760Y-78144854D03*
X91711780Y-77194854D03*
X97299780Y-123444000D03*
X99298760Y-124394000D03*
X99298760Y-122494000D03*
D18*
X129401000Y-138188688D03*
X127901000Y-138188688D03*
X127901000Y-136410688D03*
X129401000Y-136410688D03*
D12*
X91059000Y-119495000D03*
X91059000Y-117995000D03*
D18*
X141109000Y-86233000D03*
X142609000Y-86233000D03*
X95428500Y-122745500D03*
X93928500Y-122745500D03*
X129401000Y-132854688D03*
X127901000Y-132854688D03*
X129401000Y-134632688D03*
X127901000Y-134632688D03*
D12*
X147447000Y-86094000D03*
X147447000Y-84594000D03*
D18*
X142609000Y-84455000D03*
X141109000Y-84455000D03*
X124726000Y-132854688D03*
X126226000Y-132854688D03*
X126226000Y-134632688D03*
X124726000Y-134632688D03*
X127901000Y-140017500D03*
X129401000Y-140017500D03*
X124726000Y-140017500D03*
X126226000Y-140017500D03*
X124726000Y-138188688D03*
X126226000Y-138188688D03*
X124726000Y-136410688D03*
X126226000Y-136410688D03*
D12*
X154411036Y-119241000D03*
X154411036Y-117741000D03*
X156189036Y-117741000D03*
X156189036Y-119241000D03*
D18*
X163056000Y-119507000D03*
X161556000Y-119507000D03*
X161568000Y-117792500D03*
X163068000Y-117792500D03*
D12*
X159745036Y-117741000D03*
X159745036Y-119241000D03*
X157967036Y-119241000D03*
X157967036Y-117741000D03*
D18*
X156603000Y-77216000D03*
X158103000Y-77216000D03*
X158103000Y-75438000D03*
X156603000Y-75438000D03*
X158103000Y-82550000D03*
X156603000Y-82550000D03*
X156603000Y-73660000D03*
X158103000Y-73660000D03*
X158103000Y-78994000D03*
X156603000Y-78994000D03*
X156603000Y-80772000D03*
X158103000Y-80772000D03*
X144157000Y-84455000D03*
X145657000Y-84455000D03*
D12*
X126346738Y-62369000D03*
X126346738Y-63869000D03*
X124568738Y-63869000D03*
X124568738Y-62369000D03*
X122809000Y-63869000D03*
X122809000Y-62369000D03*
X131635500Y-62369000D03*
X131635500Y-63869000D03*
X128124738Y-62369000D03*
X128124738Y-63869000D03*
D18*
X165596000Y-107315000D03*
X164096000Y-107315000D03*
X142101000Y-118491000D03*
X140601000Y-118491000D03*
X142101000Y-116713000D03*
X140601000Y-116713000D03*
D12*
X129902738Y-62369000D03*
X129902738Y-63869000D03*
X104394000Y-93738000D03*
X104394000Y-95238000D03*
D18*
X95262000Y-79861854D03*
X96762000Y-79861854D03*
X96762000Y-81639854D03*
X95262000Y-81639854D03*
X95262000Y-74612500D03*
X96762000Y-74612500D03*
X95262000Y-83375500D03*
X96762000Y-83375500D03*
X95262000Y-78083854D03*
X96762000Y-78083854D03*
X95262000Y-76305854D03*
X96762000Y-76305854D03*
D12*
X114046000Y-121400000D03*
X114046000Y-119900000D03*
D18*
X98933000Y-120523000D03*
X97433000Y-120523000D03*
X98564000Y-104902000D03*
X100064000Y-104902000D03*
D12*
X101854000Y-106414000D03*
X101854000Y-104914000D03*
D26*
X91002000Y-109252000D03*
X91002000Y-113252000D03*
X93402000Y-113252000D03*
X93402000Y-109252000D03*
D27*
X105344000Y-87460000D03*
X104394000Y-87460000D03*
X103444000Y-87460000D03*
X103444000Y-85260000D03*
X105344000Y-85260000D03*
D28*
X106815521Y-82395361D03*
X106815521Y-81895361D03*
X106815521Y-81395361D03*
X106815521Y-80895361D03*
X106815521Y-80395361D03*
X109915521Y-80395361D03*
X109915521Y-80895361D03*
X109915521Y-81395361D03*
X109915521Y-81895361D03*
X109915521Y-82395361D03*
D29*
X108753021Y-80775361D03*
X108753021Y-82015361D03*
X107978021Y-80775361D03*
X107978021Y-82015361D03*
D30*
X165194000Y-109474000D03*
X165194000Y-110744000D03*
X165194000Y-112014000D03*
X165194000Y-113284000D03*
X157894000Y-113284000D03*
X157894000Y-112014000D03*
X157894000Y-110744000D03*
X157894000Y-109474000D03*
D31*
X143854000Y-118392000D03*
X143854000Y-117892000D03*
X143854000Y-117392000D03*
X143854000Y-116892000D03*
X146654000Y-116892000D03*
X146654000Y-117392000D03*
X146654000Y-117892000D03*
X146654000Y-118392000D03*
D32*
X145669000Y-117047000D03*
X145669000Y-118237000D03*
X144839000Y-117047000D03*
X144839000Y-118237000D03*
D33*
X150321832Y-95766792D03*
X149671832Y-95766792D03*
X149021832Y-95766792D03*
X148371832Y-95766792D03*
X148371832Y-91366792D03*
X149021832Y-91366792D03*
X149671832Y-91366792D03*
X150321832Y-91366792D03*
D34*
X103124000Y-99220100D03*
X105024000Y-99220100D03*
X105024000Y-97320100D03*
D35*
X103124000Y-97320100D03*
D36*
X112776000Y-105918000D03*
X110236000Y-105918000D03*
D37*
X147803000Y-77856000D03*
X141503000Y-77856000D03*
X147803000Y-81656000D03*
X141503000Y-81656000D03*
M02*
