G04 #@! TF.GenerationSoftware,KiCad,Pcbnew,(2016-12-02 revision 54c5f6b)-makepkg*
G04 #@! TF.CreationDate,2016-12-15T21:43:30-06:00*
G04 #@! TF.ProjectId,Star,537461722E6B696361645F7063620000,rev?*
G04 #@! TF.FileFunction,Profile,NP*
%FSLAX46Y46*%
G04 Gerber Fmt 4.6, Leading zero omitted, Abs format (unit mm)*
G04 Created by KiCad (PCBNEW (2016-12-02 revision 54c5f6b)-makepkg) date 12/15/16 21:43:30*
%MOMM*%
%LPD*%
G01*
G04 APERTURE LIST*
%ADD10C,0.100000*%
%ADD11C,0.200000*%
G04 APERTURE END LIST*
D10*
D11*
X104775000Y-121793000D02*
X105918000Y-121412000D01*
X117475000Y-129032000D02*
X117475000Y-128016000D01*
X136525000Y-128016000D02*
X136525000Y-129032000D01*
X148209000Y-121285000D02*
X149098000Y-121539000D01*
X157861000Y-104394000D02*
X158877000Y-105156000D01*
X158750000Y-90551000D02*
X157861000Y-91059000D01*
X148209000Y-74422000D02*
X149225000Y-74168000D01*
X136525000Y-66675000D02*
X136525000Y-67691000D01*
X117094000Y-67818000D02*
X117348000Y-66548000D01*
X104648000Y-73787000D02*
X106045000Y-74295000D01*
X94996000Y-90551000D02*
X96139000Y-91313000D01*
X94615000Y-105029000D02*
X96139000Y-104013000D01*
X158877000Y-105156000D02*
X168313169Y-102646072D01*
X168313169Y-102646072D02*
X167757135Y-121389151D01*
X151803169Y-131242230D02*
X149098000Y-121539000D01*
X148209000Y-121285000D02*
X136525000Y-128016000D01*
X167757135Y-121389151D02*
X151803169Y-131242230D01*
X149225000Y-74168000D02*
X151809058Y-64464463D01*
X151809058Y-64464463D02*
X167763024Y-74317542D01*
X167763024Y-74317542D02*
X168319058Y-93060622D01*
X168319058Y-93060622D02*
X158750000Y-90551000D01*
X157861000Y-91059000D02*
X157861000Y-104394000D01*
X143505606Y-136028960D02*
X126995607Y-144918960D01*
X126995607Y-144918960D02*
X110485606Y-136028960D01*
X136525000Y-129032000D02*
X143505606Y-136028960D01*
X110485606Y-136028960D02*
X117475000Y-129032000D01*
X85671021Y-102645447D02*
X94615000Y-105029000D01*
X86227056Y-121388527D02*
X85671021Y-102645447D01*
X104775000Y-121793000D02*
X102181021Y-131241606D01*
X102181021Y-131241606D02*
X86227056Y-121388527D01*
X117475000Y-128016000D02*
X105918000Y-121412000D01*
X106045000Y-74295000D02*
X117094000Y-67818000D01*
X86232664Y-74327854D02*
X102186630Y-64474774D01*
X102186630Y-64474774D02*
X104648000Y-73787000D01*
X85676630Y-93070933D02*
X86232664Y-74327854D01*
X94996000Y-90551000D02*
X85676630Y-93070933D01*
X96139000Y-104013000D02*
X96139000Y-91313000D01*
X143510000Y-59690000D02*
X136525000Y-66675000D01*
X127000000Y-50800000D02*
X143510000Y-59690000D01*
X110490000Y-59690000D02*
X127000000Y-50800000D01*
X117348000Y-66548000D02*
X110490000Y-59690000D01*
X136525000Y-67691000D02*
X148209000Y-74422000D01*
M02*
