G04 #@! TF.GenerationSoftware,KiCad,Pcbnew,(2016-12-02 revision 54c5f6b)-makepkg*
G04 #@! TF.CreationDate,2016-12-08T22:01:39-06:00*
G04 #@! TF.ProjectId,Star,537461722E6B696361645F7063620000,rev?*
G04 #@! TF.FileFunction,Paste,Top*
G04 #@! TF.FilePolarity,Positive*
%FSLAX46Y46*%
G04 Gerber Fmt 4.6, Leading zero omitted, Abs format (unit mm)*
G04 Created by KiCad (PCBNEW (2016-12-02 revision 54c5f6b)-makepkg) date 12/08/16 22:01:39*
%MOMM*%
%LPD*%
G01*
G04 APERTURE LIST*
%ADD10C,0.100000*%
%ADD11C,0.990600*%
%ADD12R,0.990600X1.498600*%
%ADD13R,1.700000X1.000000*%
G04 APERTURE END LIST*
D10*
D11*
X95491592Y-115214400D03*
D10*
G36*
X95892855Y-114410808D02*
X96388155Y-115268692D01*
X95090329Y-116017992D01*
X94595029Y-115160108D01*
X95892855Y-114410808D01*
X95892855Y-114410808D01*
G37*
D11*
X92456000Y-116967000D03*
D10*
G36*
X92857263Y-116163408D02*
X93352563Y-117021292D01*
X92054737Y-117770592D01*
X91559437Y-116912708D01*
X92857263Y-116163408D01*
X92857263Y-116163408D01*
G37*
D11*
X96190092Y-116424237D03*
D10*
G36*
X96591355Y-115620645D02*
X97086655Y-116478529D01*
X95788829Y-117227829D01*
X95293529Y-116369945D01*
X96591355Y-115620645D01*
X96591355Y-115620645D01*
G37*
D11*
X93154500Y-118176837D03*
D10*
G36*
X93555763Y-117373245D02*
X94051063Y-118231129D01*
X92753237Y-118980429D01*
X92257937Y-118122545D01*
X93555763Y-117373245D01*
X93555763Y-117373245D01*
G37*
D12*
X127762000Y-138176000D03*
X127762000Y-134670800D03*
X126365000Y-138176000D03*
X126365000Y-134670800D03*
D11*
X161493200Y-116992400D03*
D10*
G36*
X160596637Y-117046692D02*
X161091937Y-116188808D01*
X162389763Y-116938108D01*
X161894463Y-117795992D01*
X160596637Y-117046692D01*
X160596637Y-117046692D01*
G37*
D11*
X158457608Y-115239800D03*
D10*
G36*
X157561045Y-115294092D02*
X158056345Y-114436208D01*
X159354171Y-115185508D01*
X158858871Y-116043392D01*
X157561045Y-115294092D01*
X157561045Y-115294092D01*
G37*
D11*
X160794700Y-118202237D03*
D10*
G36*
X159898137Y-118256529D02*
X160393437Y-117398645D01*
X161691263Y-118147945D01*
X161195963Y-119005829D01*
X159898137Y-118256529D01*
X159898137Y-118256529D01*
G37*
D11*
X157759108Y-116449637D03*
D10*
G36*
X156862545Y-116503929D02*
X157357845Y-115646045D01*
X158655671Y-116395345D01*
X158160371Y-117253229D01*
X156862545Y-116503929D01*
X156862545Y-116503929D01*
G37*
D11*
X160960092Y-77428563D03*
D10*
G36*
X160558829Y-78232155D02*
X160063529Y-77374271D01*
X161361355Y-76624971D01*
X161856655Y-77482855D01*
X160558829Y-78232155D01*
X160558829Y-78232155D01*
G37*
D11*
X157924500Y-79181163D03*
D10*
G36*
X157523237Y-79984755D02*
X157027937Y-79126871D01*
X158325763Y-78377571D01*
X158821063Y-79235455D01*
X157523237Y-79984755D01*
X157523237Y-79984755D01*
G37*
D11*
X161658592Y-78638400D03*
D10*
G36*
X161257329Y-79441992D02*
X160762029Y-78584108D01*
X162059855Y-77834808D01*
X162555155Y-78692692D01*
X161257329Y-79441992D01*
X161257329Y-79441992D01*
G37*
D11*
X158623000Y-80391000D03*
D10*
G36*
X158221737Y-81194592D02*
X157726437Y-80336708D01*
X159024263Y-79587408D01*
X159519563Y-80445292D01*
X158221737Y-81194592D01*
X158221737Y-81194592D01*
G37*
D12*
X126301500Y-57454800D03*
X126301500Y-60960000D03*
X127698500Y-57454800D03*
X127698500Y-60960000D03*
D11*
X92557600Y-78740000D03*
D10*
G36*
X93454163Y-78685708D02*
X92958863Y-79543592D01*
X91661037Y-78794292D01*
X92156337Y-77936408D01*
X93454163Y-78685708D01*
X93454163Y-78685708D01*
G37*
D11*
X95593192Y-80492600D03*
D10*
G36*
X96489755Y-80438308D02*
X95994455Y-81296192D01*
X94696629Y-80546892D01*
X95191929Y-79689008D01*
X96489755Y-80438308D01*
X96489755Y-80438308D01*
G37*
D11*
X93256100Y-77530163D03*
D10*
G36*
X94152663Y-77475871D02*
X93657363Y-78333755D01*
X92359537Y-77584455D01*
X92854837Y-76726571D01*
X94152663Y-77475871D01*
X94152663Y-77475871D01*
G37*
D11*
X96291692Y-79282763D03*
D10*
G36*
X97188255Y-79228471D02*
X96692955Y-80086355D01*
X95395129Y-79337055D01*
X95890429Y-78479171D01*
X97188255Y-79228471D01*
X97188255Y-79228471D01*
G37*
D13*
X123850000Y-114940000D03*
X130150000Y-114940000D03*
X123850000Y-118740000D03*
X130150000Y-118740000D03*
M02*
