G04 #@! TF.FileFunction,Legend,Top*
%FSLAX46Y46*%
G04 Gerber Fmt 4.6, Leading zero omitted, Abs format (unit mm)*
G04 Created by KiCad (PCBNEW (2016-11-12 revision b9c62b6)-makepkg) date 12/04/16 22:26:22*
%MOMM*%
%LPD*%
G01*
G04 APERTURE LIST*
%ADD10C,0.100000*%
%ADD11C,0.150000*%
G04 APERTURE END LIST*
D10*
D11*
X141441250Y-76931250D02*
X141441250Y-77506250D01*
X132041250Y-86331250D02*
X132041250Y-85756250D01*
X141441250Y-86331250D02*
X141441250Y-85756250D01*
X132041250Y-76931250D02*
X132616250Y-76931250D01*
X132041250Y-86331250D02*
X132616250Y-86331250D01*
X141441250Y-86331250D02*
X140866250Y-86331250D01*
X141441250Y-76931250D02*
X140866250Y-76931250D01*
X125666666Y-54352380D02*
X125333333Y-53876190D01*
X125095238Y-54352380D02*
X125095238Y-53352380D01*
X125476190Y-53352380D01*
X125571428Y-53400000D01*
X125619047Y-53447619D01*
X125666666Y-53542857D01*
X125666666Y-53685714D01*
X125619047Y-53780952D01*
X125571428Y-53828571D01*
X125476190Y-53876190D01*
X125095238Y-53876190D01*
X126095238Y-53828571D02*
X126428571Y-53828571D01*
X126571428Y-54352380D02*
X126095238Y-54352380D01*
X126095238Y-53352380D01*
X126571428Y-53352380D01*
X127333333Y-53828571D02*
X127000000Y-53828571D01*
X127000000Y-54352380D02*
X127000000Y-53352380D01*
X127476190Y-53352380D01*
X128000000Y-53352380D02*
X128000000Y-53590476D01*
X127761904Y-53495238D02*
X128000000Y-53590476D01*
X128238095Y-53495238D01*
X127857142Y-53780952D02*
X128000000Y-53590476D01*
X128142857Y-53780952D01*
X128761904Y-53352380D02*
X128761904Y-53590476D01*
X128523809Y-53495238D02*
X128761904Y-53590476D01*
X129000000Y-53495238D01*
X128619047Y-53780952D02*
X128761904Y-53590476D01*
X128904761Y-53780952D01*
X135979345Y-75208630D02*
X135979345Y-76018154D01*
X136026964Y-76113392D01*
X136074583Y-76161011D01*
X136169821Y-76208630D01*
X136360297Y-76208630D01*
X136455535Y-76161011D01*
X136503154Y-76113392D01*
X136550773Y-76018154D01*
X136550773Y-75208630D01*
X136931726Y-75208630D02*
X137550773Y-75208630D01*
X137217440Y-75589583D01*
X137360297Y-75589583D01*
X137455535Y-75637202D01*
X137503154Y-75684821D01*
X137550773Y-75780059D01*
X137550773Y-76018154D01*
X137503154Y-76113392D01*
X137455535Y-76161011D01*
X137360297Y-76208630D01*
X137074583Y-76208630D01*
X136979345Y-76161011D01*
X136931726Y-76113392D01*
M02*
